<?xml version="1.0" encoding="UTF-8" standalone="no"?>
<svg
   xmlns:dc="http://purl.org/dc/elements/1.1/"
   xmlns:cc="http://creativecommons.org/ns#"
   xmlns:rdf="http://www.w3.org/1999/02/22-rdf-syntax-ns#"
   xmlns:svg="http://www.w3.org/2000/svg"
   xmlns="http://www.w3.org/2000/svg"
   xmlns:sodipodi="http://sodipodi.sourceforge.net/DTD/sodipodi-0.dtd"
   xmlns:inkscape="http://www.inkscape.org/namespaces/inkscape"
   version="1.1"
   id="svg2"
   xml:space="preserve"
   width="735.74799"
   height="862.10107"
   viewBox="0 0 735.74795 862.10104"
   sodipodi:docname="cage.svg"
   inkscape:version="1.0.1 (1.0.1+r73)"><metadata
     id="metadata8"><rdf:RDF><cc:Work
         rdf:about=""><dc:format>image/svg+xml</dc:format><dc:type
           rdf:resource="http://purl.org/dc/dcmitype/StillImage" /><dc:title /></cc:Work></rdf:RDF></metadata><defs
     id="defs6" /><sodipodi:namedview
     pagecolor="#ffffff"
     bordercolor="#666666"
     borderopacity="1"
     objecttolerance="10"
     gridtolerance="10"
     guidetolerance="10"
     inkscape:pageopacity="0"
     inkscape:pageshadow="2"
     inkscape:window-width="1896"
     inkscape:window-height="1019"
     id="namedview4"
     showgrid="false"
     inkscape:zoom="0.47"
     inkscape:cx="236.34089"
     inkscape:cy="351.75863"
     inkscape:window-x="1932"
     inkscape:window-y="12"
     inkscape:window-maximized="0"
     inkscape:current-layer="g10"
     inkscape:document-rotation="0" /><g
     id="g10"
     inkscape:groupmode="layer"
     inkscape:label="ink_ext_XXXXXX"
     transform="matrix(1.3333333,0,0,-1.3333333,-164.17466,967.99998)"><path
       d="m 383.65016,525.93998 c 0,30.58195 -24.79159,55.37331 -55.37331,55.37331 -30.58195,0 -55.37331,-24.79136 -55.37331,-55.37331 0,-30.58195 24.79136,-55.37328 55.37331,-55.37328 30.58172,0 55.37331,24.79133 55.37331,55.37328"
       style="fill:#f8f8f8;fill-opacity:1;fill-rule:nonzero;stroke:none;stroke-width:0.0225341"
       id="path937" /><path
       d="m 383.65016,525.93998 c 0,30.58195 -24.79159,55.37331 -55.37331,55.37331 -30.58195,0 -55.37331,-24.79136 -55.37331,-55.37331 0,-30.58195 24.79136,-55.37328 55.37331,-55.37328 30.58172,0 55.37331,24.79133 55.37331,55.37328"
       style="fill:#f8f8f8;fill-opacity:1;fill-rule:nonzero;stroke:none;stroke-width:0.0225341"
       id="path939" /><path
       d="m 378.33819,525.93998 c 0,27.64824 -22.41311,50.06157 -50.06134,50.06157 -27.64823,0 -50.06157,-22.41333 -50.06157,-50.06157 0,-27.64823 22.41334,-50.06156 50.06157,-50.06156 27.64823,0 50.06134,22.41333 50.06134,50.06156"
       style="fill:#f3f3f3;fill-opacity:1;fill-rule:nonzero;stroke:none;stroke-width:0.0225341"
       id="path941" /><path
       d="m 324.83119,519.21253 -1.60375,1.58258 3.19218,3.23454 c -0.0836,0.23503 -0.13385,0.48516 -0.14602,0.74588 l -38.2447,8.51747 c -0.28912,0.53721 0.31412,0.31534 -1e-5,0.83385 l 38.53382,-8.03059 c 0.43288,0.82722 1.29774,1.3926 2.29623,1.3926 0.29272,0 0.57327,-0.0507 0.83579,-0.14038 l 22.69208,22.99381 1.60375,-1.58302 -22.6923,-22.99404 c 0.0836,-0.23503 0.13363,-0.48516 0.14579,-0.74588 l 5.52875,-1.21955 -0.29137,-1.32049 -5.52626,1.21932 c -0.43288,-0.82723 -1.29797,-1.39261 -2.29623,-1.39261 -0.29294,0 -0.57349,0.0509 -0.83602,0.14039 l -3.19173,-3.23388"
       style="fill:#cecdcb;fill-opacity:1;fill-rule:nonzero;stroke:none;stroke-width:0.0225341"
       id="path951"
       sodipodi:nodetypes="cccccccsccccccccscc" /><path
       d="m 336.09934,523.52207 -48.07045,10.60478 0.29137,1.32028 48.07045,-10.60478 -0.29137,-1.32028"
       style="fill:#333232;fill-opacity:1;fill-rule:nonzero;stroke:#333232;stroke-width:0.69750002;stroke-miterlimit:4;stroke-dasharray:none;stroke-opacity:1;opacity:1"
       id="path955" /><path
       d="m 324.2491,520.25508 -1.60375,1.58257 29.15937,29.54718 1.60375,-1.58302 -29.15937,-29.54673"
       style="fill:#333232;fill-opacity:1;fill-rule:nonzero;stroke:#333232;stroke-width:0.84750002;stroke-miterlimit:4;stroke-dasharray:none;stroke-opacity:1"
       id="path957" /><path
       d="m 330.86827,525.93998 c 0,-1.43114 -1.16028,-2.59142 -2.59142,-2.59142 -1.43137,0 -2.59142,1.16028 -2.59142,2.59142 0,1.43115 1.16005,2.59143 2.59142,2.59143 1.43114,0 2.59142,-1.16028 2.59142,-2.59143"
       style="fill:#333232;fill-opacity:1;fill-rule:nonzero;stroke:none;stroke-width:0.0225341"
       id="path959" /><path
       d="m 327.15014,475.89286 c 0.37475,-0.008 0.74994,-0.0144 1.12671,-0.0144 0.37655,0 0.75174,0.006 1.12648,0.0144 v 9.99701 h -2.25319 v -9.99701"
       style="fill:#333232;fill-opacity:1;fill-rule:nonzero;stroke:none;stroke-width:0.0225341"
       id="path961" /><path
       d="m 329.40333,575.98735 c -0.37474,0.008 -0.74993,0.0142 -1.12648,0.0142 -0.37677,0 -0.75196,-0.006 -1.12671,-0.0142 v -9.99726 h 2.25319 v 9.99726"
       style="fill:#333232;fill-opacity:1;fill-rule:nonzero;stroke:none;stroke-width:0.0225341"
       id="path963" /><path
       d="m 368.32696,524.81328 h 9.99704 c 0.008,0.37474 0.0142,0.74993 0.0142,1.1267 0,0.37677 -0.006,0.75197 -0.0142,1.12671 h -9.99704 v -2.25341"
       style="fill:#333232;fill-opacity:1;fill-rule:nonzero;stroke:none;stroke-width:0.0225341"
       id="path965" /><path
       d="m 328.27685,475.87842 c 0.37655,0 0.75174,0.006 1.12648,0.0144 v 1.54895 c 25.89801,0.58949 46.78218,21.47346 47.37167,47.37147 h 1.549 c 0.008,0.37474 0.0142,0.74993 0.0142,1.1267 v 0 c 0,-27.64823 -22.41311,-50.06156 -50.06134,-50.06156 m 0,0 c -12.64299,0 -24.19037,4.68594 -33.00144,12.41675 0.48606,0.30353 0.94734,0.62194 1.32997,0.89821 8.23419,-7.10321 18.88043,-11.48609 30.54476,-11.75157 v -1.54895 c 0.37475,-0.008 0.74994,-0.0144 1.12671,-0.0144 m -36.85274,16.17837 c -2.37735,2.58443 -4.48812,5.42238 -6.28454,8.46426 0.49958,-0.0259 0.99285,-0.0379 1.47666,-0.0379 0.1192,0 0.23818,6.8e-4 0.35649,0.002 1.68668,-2.73091 3.637,-5.28267 5.8147,-7.61833 -0.48065,-0.13318 -0.96153,-0.37993 -1.36331,-0.8101"
       style="fill:#bfbebc;fill-opacity:1;fill-rule:nonzero;stroke:none;stroke-width:0.0225341"
       id="path967" /><path
       d="m 281.58233,539.13619 c -0.42319,0.4108 -0.84999,0.80221 -1.27633,1.16614 6.17299,20.64869 25.31415,35.69922 47.97085,35.69922 -0.37677,0 -0.75196,-0.006 -1.12671,-0.0142 v -1.54922 c -21.72311,-0.49439 -39.91783,-15.26754 -45.56781,-35.30194"
       style="fill:#bfbebc;fill-opacity:1;fill-rule:nonzero;stroke:none;stroke-width:0.0225341"
       id="path971" /><path
       d="m 378.33819,525.93998 c 0,0.37677 -0.006,0.75197 -0.0142,1.12671 h -1.549 c -0.58949,25.89801 -21.47366,46.78195 -47.37167,47.37144 v 1.54922 c -0.37474,0.008 -0.74993,0.0142 -1.12648,0.0142 27.64823,0 50.06134,-22.41333 50.06134,-50.06157"
       style="fill:#bfbebc;fill-opacity:1;fill-rule:nonzero;stroke:none;stroke-width:0.0225341"
       id="path975" /><path
       d="m 328.27685,475.87842 v 0 c -0.37677,0 -0.75196,0.006 -1.12671,0.0144 v 1.54895 c 0.37407,-0.009 0.75062,-0.0128 1.12671,-0.0128 0.37609,0 0.75241,0.004 1.12648,0.0128 v -1.54895 c -0.37474,-0.008 -0.74993,-0.0144 -1.12648,-0.0144 v 0"
       style="fill:#292827;fill-opacity:1;fill-rule:nonzero;stroke:none;stroke-width:0.0225341"
       id="path977" /><path
       d="m 327.15014,574.43813 v 1.54922 c 0.37475,0.008 0.74994,0.0142 1.12671,0.0142 v 0 0 c 0.37655,0 0.75174,-0.006 1.12648,-0.0142 v -1.54922 c -0.37407,0.009 -0.75039,0.0128 -1.12648,0.0128 -0.37609,0 -0.75264,-0.004 -1.12671,-0.0128"
       style="fill:#292827;fill-opacity:1;fill-rule:nonzero;stroke:none;stroke-width:0.0225341"
       id="path979" /><path
       d="m 378.324,524.81328 h -1.549 c 0.008,0.37407 0.0128,0.75061 0.0128,1.1267 0,0.3761 -0.005,0.75264 -0.0128,1.12671 h 1.549 c 0.008,-0.37474 0.0142,-0.74994 0.0142,-1.12671 v 0 c 0,-0.37677 -0.006,-0.75196 -0.0142,-1.1267"
       style="fill:#292827;fill-opacity:1;fill-rule:nonzero;stroke:none;stroke-width:0.0225341"
       id="path981" /><path
       d="m 283.27786,547.88343 c -0.16547,-0.33824 -0.32487,-0.67794 -0.48204,-1.01824 l 1.39137,-0.68067 c -10.85124,-23.52244 -1.26925,-51.45941 21.73509,-63.36968 l -0.6807,-1.39142 c 0.33296,-0.17217 0.66741,-0.34231 1.00585,-0.50787 v 0 c -24.83557,12.14987 -35.11944,42.13231 -22.96957,66.96788 m 0,0 c 5.55589,11.35682 14.83959,19.67026 25.6559,24.18771 0.0591,-0.57 0.14238,-1.12427 0.2224,-1.58938 -9.99906,-4.27506 -18.61451,-11.91222 -23.97882,-22.27327 l -1.39137,0.68068 c -0.17219,-0.33295 -0.34254,-0.6673 -0.50811,-1.00574 m 30.7273,25.99419 c 3.36623,0.99978 6.84304,1.6487 10.3649,1.92563 -0.24282,-0.43737 -0.47031,-0.87521 -0.68292,-1.30981 -0.0524,-0.10707 -0.10406,-0.21425 -0.15483,-0.32111 -3.1943,-0.31501 -6.34354,-0.94557 -9.39857,-1.87533 0.0916,0.49028 0.0813,1.03067 -0.12858,1.58062"
       style="fill:#bfbebc;fill-opacity:1;fill-rule:nonzero;stroke:none;stroke-width:0.0225341"
       id="path967-1" /><path
       d="m 461,100 h 26 v 70 h -26 z"
       style="fill:#885942;fill-opacity:1;fill-rule:nonzero;stroke:none;stroke-width:0.1"
       id="path18" /><path
       d="m 347,170 h 237 v 28 H 347 Z"
       style="fill:#885942;fill-opacity:1;fill-rule:nonzero;stroke:none;stroke-width:0.1"
       id="path20" /><path
       d="m 376.596,222.439 9.247,-53.095 c 0,0 -16.644,14.824 -29.59,0.029 -12.946,-14.794 29.59,-10.604 39.761,-8.293 l -6.472,46.233 53.939,-6.78 -2.373,12.949 -64.512,8.957"
       style="fill:#3b241c;fill-opacity:1;fill-rule:nonzero;stroke:none;stroke-width:0.1"
       id="path22" /><path
       d="m 361,173.473 v 5.022 L 361.05,198 h 7.166 l -0.055,-22.125 c -2.353,-0.207 -4.776,-0.927 -7.161,-2.402"
       style="fill:#6b4634;fill-opacity:1;fill-rule:nonzero;stroke:none;stroke-width:0.1"
       id="path24" /><path
       d="m 368.118,158.929 c -2.598,0.11 -5.027,0.35 -7.118,0.76 v 13.784 c 2.385,1.475 4.808,2.195 7.161,2.402 l -0.043,-16.946"
       style="fill:#35211a;fill-opacity:1;fill-rule:nonzero;stroke:none;stroke-width:0.1"
       id="path26" /><path
       d="m 399.089,289.772 c -39.137,15.097 -43.171,-11.644 -43.662,-13.811 -0.658,-2.888 -3.935,-20.792 -1.244,-21.611 2.691,-0.821 4.794,13.471 5.36,15.263 -0.005,-1.268 0.991,-2.998 2.24,-3.394 1.114,-0.355 2.73,1.258 3.16,2.519 0.024,0.116 0.047,0.231 0.091,0.335 -0.018,-0.106 -0.052,-0.219 -0.091,-0.335 -0.228,-1.126 0.471,-2.75 1.497,-3.074 1.333,-0.435 2.416,1.154 2.799,2.498 -0.011,-1.271 0.328,-2.311 1.572,-2.708 2.608,-0.837 3.267,4.484 3.631,7.659 0.262,2.25 14.515,9.64 24.855,-0.671 2.825,-2.818 5.176,-15.965 9.37,-29.105 l 11.767,12.331 c -4.048,14.155 -9.423,29.505 -21.345,34.104"
       style="fill:#fbd7b5;fill-opacity:1;fill-rule:nonzero;stroke:none;stroke-width:0.1"
       id="path28" /><path
       d="m 364.943,268.738 c 0.039,0.116 0.073,0.229 0.091,0.335 -0.044,-0.104 -0.067,-0.219 -0.091,-0.335"
       style="fill:#fbd7b5;fill-opacity:1;fill-rule:nonzero;stroke:none;stroke-width:0.1"
       id="path30" /><path
       d="m 403.522,261.568 c -1.343,4.852 -2.54,8.639 -3.813,10.379 l 10e-4,0.006 c 1.272,-1.74 2.469,-5.53 3.812,-10.385"
       style="fill:#a5c2ad;fill-opacity:1;fill-rule:nonzero;stroke:none;stroke-width:0.1"
       id="path32" /><path
       d="m 406.31,251.293 c -1.025,3.686 -1.936,7.195 -2.788,10.275 -1.343,4.855 -2.54,8.645 -3.812,10.385 l 3.256,15.806 10e-4,-0.001 2.283,-24.113 c -0.2,-1.883 -0.33,-3.697 -0.33,-5.218 0,-2.243 0.284,-3.845 1.047,-4.077 0.056,-0.017 0.111,-0.028 0.167,-0.032 l 0.159,-1.681 c -0.001,-0.464 0.004,-0.914 0.017,-1.344"
       style="fill:#e3c1a0;fill-opacity:1;fill-rule:nonzero;stroke:none;stroke-width:0.1"
       id="path34" /><path
       d="m 400.733,311.338 c 0,0 -19.731,150.753 100.619,104.46 0,0 38.302,-26.295 41.272,-103.421 -115.072,-26.562 -141.891,-1.039 -141.891,-1.039"
       style="fill:#fbd7b5;fill-opacity:1;fill-rule:nonzero;stroke:none;stroke-width:0.1"
       id="path36" /><path
       d="m 378.445,457.075 c 0,0 3.858,-97.189 119.46,-66.268 l 8.419,-28.171 c 0,0 12.291,12.042 16.515,-1.546 4.227,-13.592 -12.962,-8.28 -12.962,-8.28 0,0 15.364,-31.847 32.747,-40.433 -0.556,-1.154 31.363,147.382 -27.186,125.569 0,0 -9.852,26.816 -48.521,26.921 -40.078,0.109 -54.345,-49.774 -88.472,-7.792"
       style="fill:#3b241c;fill-opacity:1;fill-rule:nonzero;stroke:none;stroke-width:0.1"
       id="path38" /><path
       d="m 400.733,311.338 8.835,-93.288 c 0,0 48.313,-10.819 123.198,-1.216 l 9.858,95.543 c 0,0 -93.988,-15.907 -141.891,-1.039"
       style="fill:#f8f8f8;fill-opacity:1;fill-rule:nonzero;stroke:none;stroke-width:0.1"
       id="path40" /><path
       d="m 437.982,294.606 -2.666,-5.659 4.457,-6.265 -10.292,-44.15 14.793,-15.976 13.4,15.646 -9.757,44.225 4.476,7.082 -2.765,4.374 -11.646,0.723"
       style="fill:#3b241c;fill-opacity:1;fill-rule:nonzero;stroke:none;stroke-width:0.1"
       id="path42" /><path
       d="m 436.238,217.022 15.66,-55.017 c 0,0 -17.992,17.568 -28.154,1.849 -10.161,-15.719 39.96,-11.559 39.96,-11.559 l -9.729,48.546 c 0,0 74.961,-19.88 78.791,15.993 -42.901,-5.732 -64.859,-3.278 -64.859,-3.278 l -31.669,3.466"
       style="fill:#3b241c;fill-opacity:1;fill-rule:nonzero;stroke:none;stroke-width:0.1"
       id="path44" /><path
       d="m 485.12,213.055 c 4.497,0.131 9.16,0.334 13.989,0.619 -0.062,-0.044 -0.122,-0.085 -0.185,-0.129 -5.266,-0.296 -9.87,-0.44 -13.804,-0.49"
       style="fill:#a5c2ad;fill-opacity:1;fill-rule:nonzero;stroke:none;stroke-width:0.1"
       id="path46" /><path
       d="m 481.824,213.034 c -0.991,0 -1.929,0.006 -2.815,0.016 -2.735,1.795 -5.168,4.373 -7.354,7.446 3.06,-3.522 6.666,-5.946 10.971,-6.596 1.072,-0.161 2.11,-0.239 3.119,-0.239 22.77,0 29.684,39.946 34.66,62.14 v 0 0 l -13.215,2.849 2.791,11.885 12.996,0.77 -2.279,-17.042 c -3.149,-18.846 -6.97,-50.272 -21.589,-60.589 -4.829,-0.285 -9.492,-0.488 -13.989,-0.619 -1.157,-0.015 -2.255,-0.021 -3.296,-0.021"
       style="fill:#dfdfdd;fill-opacity:1;fill-rule:nonzero;stroke:none;stroke-width:0.1"
       id="path48" /><path
       d="m 488.412,210.279 c -0.661,0 -1.34,0.032 -2.031,0.098 -2.677,0.254 -5.126,1.199 -7.372,2.673 0.886,-0.01 1.824,-0.016 2.815,-0.016 1.041,0 2.139,0.006 3.296,0.021 3.934,0.05 8.538,0.194 13.804,0.49 -3.018,-2.079 -6.493,-3.266 -10.512,-3.266"
       style="fill:#35211a;fill-opacity:1;fill-rule:nonzero;stroke:none;stroke-width:0.1"
       id="path50" /><path
       d="m 481.877,230.274 c -4.09,3.811 -6.456,14.179 -9.634,25.302 3.588,-9.792 6.28,-19.615 9.634,-25.302"
       style="fill:#dfdfdd;fill-opacity:1;fill-rule:nonzero;stroke:none;stroke-width:0.1"
       id="path52" /><path
       d="m 406.392,251 h -0.071 c -0.004,0.096 -0.008,0.194 -0.011,0.292 0.028,-0.098 0.054,-0.194 0.082,-0.292"
       style="fill:#a5c2ad;fill-opacity:1;fill-rule:nonzero;stroke:none;stroke-width:0.1"
       id="path54" /><path
       d="m 406.392,251 v 0 c -0.028,0.098 -0.054,0.194 -0.082,0.292 v 0.001 c 0.027,-0.098 0.055,-0.195 0.082,-0.293"
       style="fill:#e3c1a0;fill-opacity:1;fill-rule:nonzero;stroke:none;stroke-width:0.1"
       id="path56" /><path
       d="m 406.448,251 h -0.056 c -0.027,0.098 -0.055,0.195 -0.082,0.293 -0.013,0.43 -0.018,0.88 -0.017,1.344 L 406.448,251"
       style="fill:#cbae8f;fill-opacity:1;fill-rule:nonzero;stroke:none;stroke-width:0.1"
       id="path58" /><path
       d="m 410.195,251 h -3.747 l -0.155,1.637 c 10e-4,0.546 0.012,1.112 0.03,1.691 2.518,0.453 4.461,13.573 5.002,15.285 0,-0.005 0,-0.01 0,-0.014 0.003,-1.268 0.995,-2.985 2.24,-3.38 0.107,-0.034 0.218,-0.05 0.332,-0.05 1.055,0 2.377,1.36 2.802,2.488 -0.018,-0.116 -0.027,-0.236 -0.027,-0.358 -0.002,-1.071 0.654,-2.351 1.55,-2.635 0.153,-0.05 0.303,-0.073 0.449,-0.073 1.123,0 2.011,1.382 2.35,2.571 0,-0.02 0,-0.039 0,-0.059 0,-1.245 0.348,-2.259 1.572,-2.649 0.186,-0.06 0.362,-0.088 0.529,-0.088 2.171,0 2.763,4.798 3.103,7.747 0.16,1.376 5.546,4.671 12.072,4.671 0.111,0 0.223,-10e-4 0.334,-0.003 l -1.442,-6.186 c -5.837,-0.746 -10.304,-3.918 -10.382,-5.199 -0.178,-3 -0.513,-7.908 -2.756,-7.908 -0.142,0 -0.292,0.019 -0.45,0.061 -1.262,0.328 -1.657,1.348 -1.717,2.619 -0.279,-1.236 -1.118,-2.7 -2.279,-2.7 -0.122,0 -0.249,0.017 -0.378,0.052 -1.042,0.266 -1.83,1.848 -1.665,2.985 -0.331,-1.185 -1.657,-2.722 -2.75,-2.722 -0.091,0 -0.18,0.01 -0.267,0.033 -1.27,0.327 -2.359,1.998 -2.424,3.266 -0.284,-1.11 -0.883,-6.891 -1.926,-11.082 m 47.398,2.101 c -2.275,6.925 -4.121,12.374 -5.934,13.993 -0.147,0.132 -0.296,0.26 -0.444,0.386 l -1.339,6.069 c 0.406,-0.344 0.806,-0.712 1.202,-1.107 2.115,-2.109 3.963,-9.998 6.515,-19.341"
       style="fill:#dfdfdd;fill-opacity:1;fill-rule:nonzero;stroke:none;stroke-width:0.1"
       id="path60" /><path
       d="m 451.215,267.48 c -3.759,3.168 -7.834,4.273 -11.56,4.273 -0.842,0 -1.667,-0.056 -2.466,-0.158 l 1.442,6.186 c 3.652,-0.063 7.635,-1.175 11.245,-4.232 l 1.339,-6.069"
       style="fill:#35211a;fill-opacity:1;fill-rule:nonzero;stroke:none;stroke-width:0.1"
       id="path62" /><path
       d="m 509.441,294.606 -2.907,-15.815 13.871,-2.99 3.215,16.891 -14.179,1.914"
       style="fill:#f8f8f8;fill-opacity:1;fill-rule:nonzero;stroke:none;stroke-width:0.1"
       id="path64" /><path
       d="m 597.521,184.062 c 0,-7.686 -6.231,-13.917 -13.916,-13.917 -7.686,0 -13.917,6.231 -13.917,13.917 0,7.685 6.231,13.916 13.917,13.916 7.685,0 13.916,-6.231 13.916,-13.916"
       style="fill:#6b4634;fill-opacity:1;fill-rule:nonzero;stroke:none;stroke-width:0.1"
       id="path66" /><path
       d="m 335,101 h 26 v 135 h -26 z"
       style="fill:#efefef;fill-opacity:1;fill-rule:nonzero;stroke:none;stroke-width:0.1"
       id="path68" /><path
       d="M 487,156.457 461.158,170 H 487 v -13.543"
       style="fill:#6b4634;fill-opacity:1;fill-rule:nonzero;stroke:none;stroke-width:0.1"
       id="path70" /><path
       d="m 361,223.959 -25.39,11.752 H 361 v -11.752"
       style="fill:#d5d5d3;fill-opacity:1;fill-rule:nonzero;stroke:none;stroke-width:0.1"
       id="path72" /><path
       d="m 426.225,273.113 c -0.366,-3.175 -1.025,-8.496 -3.632,-7.659 -1.243,0.397 -1.583,1.437 -1.572,2.708 -0.383,-1.344 -1.466,-2.933 -2.799,-2.498 -1.13,0.358 -1.878,2.3 -1.407,3.409 -0.218,-1.288 -2.035,-3.241 -3.25,-2.854 -1.25,0.396 -2.245,2.126 -2.24,3.394 -0.566,-1.792 -2.669,-16.084 -5.358,-15.263 -2.694,0.819 0.585,18.723 1.241,21.611 0.493,2.167 4.525,28.908 43.662,13.811 23.726,-9.151 21.523,-60.878 34.539,-61.039 12.321,-0.152 16.721,26.459 21.125,50.058 l 13.871,-2.99 C 515.209,252.624 507.9,210.089 482.626,213.9 c -21.944,3.31 -25.736,52.748 -31.548,58.542 -10.339,10.311 -24.592,2.921 -24.853,0.671"
       style="fill:#fbd7b5;fill-opacity:1;fill-rule:nonzero;stroke:none;stroke-width:0.1"
       id="path74" /><path
       d="m 426.225,273.113 c -0.366,-3.175 -1.025,-8.496 -3.632,-7.659 -1.243,0.397 -1.583,1.437 -1.572,2.708 -0.383,-1.344 -1.466,-2.933 -2.799,-2.498 -1.13,0.358 -1.878,2.3 -1.407,3.409 -0.218,-1.288 -2.035,-3.241 -3.25,-2.854 -1.25,0.396 -2.245,2.126 -2.24,3.394 -0.566,-1.792 -2.669,-16.084 -5.358,-15.263 -2.694,0.819 0.585,18.723 1.241,21.611 0.493,2.167 4.525,28.908 43.662,13.811 23.726,-9.151 21.523,-60.878 34.539,-61.039 12.321,-0.152 16.721,26.459 21.125,50.058 l 13.871,-2.99 C 515.209,252.624 507.9,210.089 482.626,213.9 c -21.944,3.31 -25.736,52.748 -31.548,58.542 -10.339,10.311 -24.592,2.921 -24.853,0.671"
       style="fill:#fbd7b5;fill-opacity:1;fill-rule:nonzero;stroke:none;stroke-width:0.1"
       id="path76" /><path
       d="m 367,242 h 93 v 9 h -93 z"
       style="fill:#7a7b7c;fill-opacity:1;fill-rule:nonzero;stroke:none;stroke-width:0.1"
       id="path78" /><path
       d="M 367,242 H 237 v 9 h 130 v -9"
       style="fill:#5e6061;fill-opacity:1;fill-rule:nonzero;stroke:none;stroke-width:0.1"
       id="path80" /><path
       d="m 204.636,335.77 h 130.38 l 31.901,-85.071 H 236.889 l -32.253,85.071"
       style="fill:#7a7b7c;fill-opacity:1;fill-rule:nonzero;stroke:none;stroke-width:0.1"
       id="path82" /><path
       d="m 230.496,235.711 h 234.869 v 7.39688 H 230.496 Z"
       style="fill:#efefef;fill-opacity:1;fill-rule:nonzero;stroke:none;stroke-width:0.1"
       id="path84" /><path
       d="m 465.365,235.711 h -94.897 v 7.397 h 94.897 v -7.397"
       style="fill:#d5d5d3;fill-opacity:1;fill-rule:nonzero;stroke:none;stroke-width:0.1"
       id="path86" /><path
       d="m 463.516,327.407 c 0,-3.148 -2.553,-5.701 -5.702,-5.701 h -20.651 c -3.15,0 -5.702,2.553 -5.702,5.701 0,3.151 2.552,5.704 5.702,5.704 h 20.651 c 3.149,0 5.702,-2.553 5.702,-5.704"
       style="fill:#3b241c;fill-opacity:1;fill-rule:nonzero;stroke:none;stroke-width:0.1"
       id="path88" /><path
       d="m 482.8771,361.69311 c -5.18276,2.67391 -11.55312,0.63912 -14.22694,-4.54264 l 18.76976,-9.6823 c 2.67283,5.18185 0.64003,11.55203 -4.54282,14.22494"
       style="fill:#3b241c;fill-opacity:1;fill-rule:nonzero;stroke:none;stroke-width:0.1"
       id="path90" /><path
       d="m 416.88455,362.15312 c 5.47041,2.02392 11.54511,-0.77026 13.56909,-6.23867 l -19.8067,-7.32845 c -2.02498,5.46844 0.76823,11.54418 6.23761,13.56712"
       style="fill:#3b241c;fill-opacity:1;fill-rule:nonzero;stroke:none;stroke-width:0.1"
       id="path92" /><path
       d="m 177.631,488.693 c 30.492,97.363 87.166,149.775 176.685,162.229 -15.882,-7.781 -29.752,-20.109 -41.47,-36.931 C 293.38,586.048 279.197,545.603 269.488,490.345 251.561,388.32 251.429,248.919 251.433,101.162 H 145.707 c -0.007,147.325 0.226,286.313 31.924,387.531 z M 395.537,653.802 V 101.162 H 258.433 c -0.004,147.443 0.127,286.545 17.949,387.971 19.385,110.317 57.297,162.776 119.155,164.669 z m -12.683,49.015 c 0,8.923 7.259,16.183 16.183,16.183 8.923,0 16.183,-7.26 16.183,-16.183 0,-7.721 -5.439,-14.187 -12.683,-15.792 v 1.352 c 0,1.933 -1.567,3.5 -3.5,3.5 -1.933,0 -3.5,-1.567 -3.5,-3.5 v -1.352 c -7.245,1.605 -12.683,8.071 -12.683,15.792 z M 521.691,489.135 c 17.823,-101.426 17.954,-240.529 17.95,-387.973 H 402.537 v 552.64 c 61.858,-1.893 99.771,-54.351 119.154,-164.667 z m 98.75,-0.442 C 652.14,387.475 652.373,248.487 652.366,101.162 H 546.641 c 0.004,147.758 -0.127,287.16 -18.055,389.185 -9.71,55.257 -23.893,95.702 -43.357,123.644 -11.719,16.822 -25.588,29.15 -41.471,36.931 89.518,-12.455 146.192,-64.866 176.683,-162.229 z m 38.925,-387.531 c 0.007,147.876 -0.227,287.389 -32.244,389.623 -17.358,55.428 -42.674,95.966 -77.393,123.931 -36.122,29.093 -81.671,44.178 -138.967,45.964 1.316,0.503 2.256,1.768 2.256,3.261 0,1.934 -1.568,3.5 -3.5,3.5 h -6.981 v 12.456 c 11.129,1.693 19.683,11.326 19.683,22.92 0,12.783 -10.4,23.183 -23.183,23.183 -12.783,0 -23.183,-10.4 -23.183,-23.183 0,-11.594 8.554,-21.227 19.683,-22.92 v -12.456 h -6.981 c -1.933,0 -3.5,-1.566 -3.5,-3.5 0,-1.493 0.938,-2.758 2.255,-3.261 C 330.016,658.894 284.466,643.809 248.345,614.716 213.625,586.751 188.31,546.213 170.952,490.785 138.935,388.551 138.7,249.038 138.707,101.162 H 123.131 V 79.4242 h 551.811 v 21.7378 h -15.576"
       style="fill:#595a5c;fill-opacity:1;fill-rule:nonzero;stroke:none;stroke-width:0.1"
       id="path94" /></g></svg>
