<?xml version="1.0" encoding="UTF-8" standalone="no"?>
<svg
   xmlns:dc="http://purl.org/dc/elements/1.1/"
   xmlns:cc="http://creativecommons.org/ns#"
   xmlns:rdf="http://www.w3.org/1999/02/22-rdf-syntax-ns#"
   xmlns:svg="http://www.w3.org/2000/svg"
   xmlns="http://www.w3.org/2000/svg"
   xmlns:sodipodi="http://sodipodi.sourceforge.net/DTD/sodipodi-0.dtd"
   xmlns:inkscape="http://www.inkscape.org/namespaces/inkscape"
   version="1.1"
   id="svg2"
   xml:space="preserve"
   width="262.63666"
   height="428.80106"
   viewBox="0 0 262.63665 428.80106"
   sodipodi:docname="cible-inversee.svg"
   inkscape:version="1.0.1 (1.0.1+r73)"><metadata
     id="metadata8"><rdf:RDF><cc:Work
         rdf:about=""><dc:format>image/svg+xml</dc:format><dc:type
           rdf:resource="http://purl.org/dc/dcmitype/StillImage" /><dc:title /></cc:Work></rdf:RDF></metadata><defs
     id="defs6" /><sodipodi:namedview
     pagecolor="#ffffff"
     bordercolor="#666666"
     borderopacity="1"
     objecttolerance="10"
     gridtolerance="10"
     guidetolerance="10"
     inkscape:pageopacity="0"
     inkscape:pageshadow="2"
     inkscape:window-width="1896"
     inkscape:window-height="1019"
     id="namedview4"
     showgrid="false"
     inkscape:zoom="0.68"
     inkscape:cx="393.69722"
     inkscape:cy="197.65737"
     inkscape:window-x="12"
     inkscape:window-y="12"
     inkscape:window-maximized="0"
     inkscape:current-layer="g10"
     inkscape:document-rotation="0" /><g
     id="g10"
     inkscape:groupmode="layer"
     inkscape:label="ink_ext_XXXXXX"
     transform="matrix(1.3333333,0,0,-1.3333333,487.64636,597.65737)"><path
       d="m -267.24578,126.64224 c 58.23,0 98.4885,8.7969 98.4885,19.6489 0,10.8519 -40.2585,19.6489 -98.4885,19.6489 -58.23,0 -98.489,-8.797 -98.489,-19.6489 0,-10.852 40.259,-19.6489 98.489,-19.6489"
       style="fill:#5d81ac;fill-opacity:1;fill-rule:nonzero;stroke:none;stroke-width:0.1"
       id="path16" /><path
       d="m -255.42878,155.73504 c -2.331,0 -4.405,1.652 -4.858,4.025 l -13.737,72.102 c -0.511,2.687 1.252,5.278 3.937,5.791 2.697,0.515 5.278,-1.252 5.791,-3.937 l 13.736,-72.102 c 0.511,-2.687 -1.251,-5.278 -3.937,-5.791 -0.313,-0.059 -0.625,-0.088 -0.932,-0.088"
       style="fill:#4c3625;fill-opacity:1;fill-rule:nonzero;stroke:none;stroke-width:0.1"
       id="path18" /><path
       d="m -205.11978,343.34804 c -9.854,8.654 -21.771,14.721 -35.156,17.148 l -18.094,3.281 c 43.815,-7.946 72.018,-54.733 62.992,-104.503 -9.025,-49.77 -51.861,-83.675 -95.676,-75.729 l 18.094,-3.281 c 11.917,-2.161 23.755,-1.205 34.866,2.303 29.742,9.389 54.239,37.192 60.8099,73.426 6.2684,34.566 -5.4319,67.679 -27.8359,87.355"
       style="fill:#a49374;fill-opacity:1;fill-rule:nonzero;stroke:none;stroke-width:0.1"
       id="path20" /><path
       d="m -335.64178,146.76104 c -1.091,-2.507 0.057,-5.4238 2.563,-6.516 2.506,-1.0871 5.424,0.057 6.516,2.5629 l 23.507,53.9841 c -2.984,1.442 -5.878,3.077 -8.667,4.9 l -23.919,-54.931"
       style="fill:#4c3625;fill-opacity:1;fill-rule:nonzero;stroke:none;stroke-width:0.1"
       id="path22" /><path
       d="m -205.54478,142.95004 -23.561,50.206 c -3.619,-1.182 -6.576,-2.731 -8.922,-4.296 l 23.518,-50.117 c 0.853,-1.8172 2.669,-2.875 4.555,-2.8488 0.682,0.01 1.373,0.1617 2.031,0.4699 2.474,1.1621 3.539,4.1098 2.379,6.5859"
       style="fill:#4c3625;fill-opacity:1;fill-rule:nonzero;stroke:none;stroke-width:0.1"
       id="path24" /><path
       d="m -195.37778,259.27404 c -9.025,-49.77 -51.861,-83.675 -95.676,-75.729 -43.815,7.946 -72.017,54.733 -62.992,104.503 9.026,49.77 51.862,83.675 95.677,75.729 43.814,-7.946 72.017,-54.733 62.991,-104.503"
       style="fill:#dfc69c;fill-opacity:1;fill-rule:nonzero;stroke:none;stroke-width:0.1"
       id="path26" /><path
       d="m -284.23878,221.12404 c 23.023,-4.175 46.028,15.997 51.282,44.965 5.253,28.969 -9.204,55.933 -32.228,60.108 -23.023,4.176 -46.028,-15.995 -51.282,-44.964 -5.253,-28.968 9.204,-55.934 32.228,-60.109 z m -55.889,64.4 c 7.62,42.016 43.163,70.876 79.234,64.334 36.07,-6.541 59.217,-46.044 51.598,-88.059 -7.62,-42.016 -43.164,-70.877 -79.234,-64.336 -36.071,6.541 -59.217,46.046 -51.598,88.061"
       style="fill:#af392e;fill-opacity:1;fill-rule:nonzero;stroke:none;stroke-width:0.1"
       id="path28" /><path
       d="m -280.95778,239.21804 c -12.826,2.326 -20.801,20.064 -17.415,38.734 3.386,18.67 17.082,32.477 29.907,30.152 12.825,-2.326 20.801,-20.063 17.415,-38.733 -3.386,-18.67 -17.082,-32.479 -29.907,-30.153"
       style="fill:#af392e;fill-opacity:1;fill-rule:nonzero;stroke:none;stroke-width:0.1"
       id="path30" /><path
       d="m -235.30778,384.95304 19.462,57.688 -19.462,5.602 -7.745,-61.31 7.745,-1.98"
       style="fill:#74a1d7;fill-opacity:1;fill-rule:nonzero;stroke:none;stroke-width:0.1"
       id="path32" /><path
       d="m -263.28678,388.91204 -6.929,47.328 -13.417,-5.981 14.627,-42.336 5.719,0.989"
       style="fill:#74a1d7;fill-opacity:1;fill-rule:nonzero;stroke:none;stroke-width:0.1"
       id="path34" /><path
       d="m -215.84578,377.03404 30.788,41.049 9.4548,-15.08 -35.2118,-30.466 -5.031,4.497"
       style="fill:#74a1d7;fill-opacity:1;fill-rule:nonzero;stroke:none;stroke-width:0.1"
       id="path36" /><path
       d="m 488.521,76.5191 c -52.166,0 -94.382,7.8438 -94.385,17.5551 -0.004,9.7348 42.431,17.6578 94.781,17.6948 0.131,0 0.27,0 0.401,0 52.17,0 94.394,-7.843 94.4,-17.5518 0.001,-9.7352 -42.436,-17.6602 -94.787,-17.6973 -0.134,-8e-4 -0.276,-8e-4 -0.41,-8e-4"
       style="fill:#77a688;fill-opacity:1;fill-rule:nonzero;stroke:none;stroke-width:0.1"
       id="path38" /><path
       d="m 546.698,257.745 c 0,0 -9.984,174.988 -115.082,104.981 0,0 -33.661,-25.227 -20.384,-111.738 91.473,-15.968 135.466,6.757 135.466,6.757"
       style="fill:#fbd8b5;fill-opacity:1;fill-rule:nonzero;stroke:none;stroke-width:0.1"
       id="path40" /><path
       d="m 515.625,418.476 c 0,0 63.63,-82.348 -77.796,-87.766 l -0.672,-31.846 c 0,0 -12.555,10.654 -14.896,-2.105 -2.337,-12.759 12.752,-7.174 12.752,-7.174 0,0 -8.992,-28.926 -23.781,-38.597 0,0 -49.659,112.869 2.252,114.521 0,0 0.515,19.901 28.299,31.58 39.633,16.658 61.315,-26.52 73.842,21.387"
       style="fill:#4c3625;fill-opacity:1;fill-rule:nonzero;stroke:none;stroke-width:0.1"
       id="path42" /><path
       d="m 391.755,335.012 c -0.112,10e-4 -0.176,0.002 -0.176,0.002 0,0 0.067,10e-4 0.176,-0.002"
       style="fill:#fbd8b5;fill-opacity:1;fill-rule:nonzero;stroke:none;stroke-width:0.1"
       id="path44" /><path
       d="m 351.649,289.23 c -5.096,32.553 19.132,49.735 19.132,49.735 0,0 21.503,15.594 29.282,3.244 0,0 1.797,-2.521 -0.9,-2.429 -2.696,0.091 -6.15,4.138 -9.849,1.895 0,0 3.703,1.162 3.864,-1.838 0.076,-1.437 -2.81,-1.544 -3.552,-1.548 -0.108,0.002 -0.175,0.001 -0.175,0.001 0,0 0.064,-0.001 0.175,-0.001 0.7,-0.013 3.321,-0.176 3.461,-1.833 0.206,-2.435 -1.953,-2.486 -2.649,-2.442 -0.131,0.017 -0.217,0.02 -0.217,0.02 0,0 0.086,-0.01 0.217,-0.02 0.638,-0.083 2.449,-0.516 1.792,-2.79 -0.701,-2.422 -4.456,-0.778 -4.456,-0.778 0,0 -8.539,0.088 -12.519,-4.888 -31.133,-41.009 14.631,-70.86 35.977,-74.57 l 2.718,-17.155 c -26.734,5.525 -57.206,22.845 -62.301,55.397"
       style="fill:#fbd8b5;fill-opacity:1;fill-rule:nonzero;stroke:none;stroke-width:0.1"
       id="path46" /><path
       d="m 392.567,330.737 c -0.131,0.01 -0.218,0.021 -0.218,0.021 0,0 0.086,-0.003 0.218,-0.021"
       style="fill:#fbd8b5;fill-opacity:1;fill-rule:nonzero;stroke:none;stroke-width:0.1"
       id="path48" /><path
       d="m 424.468,167.448 3.051,-37.233 -4.68,-38.633 c 0,0 48.003,-12.98 35.904,5.9571 -11.174,17.4899 -28.61,2.9589 -28.61,2.9589 l 8.716,31.363 2.012,25.421 c 0,0 49.402,-5.801 91.908,3.939 l -1.208,-25.54 -7.87,-38.9751 c 0,0 45.477,-14.9161 33.174,5.7431 -6.82,11.453 -23.577,4.266 -23.577,4.266 l 9.396,29.023 4.664,37.618 -122.88,-5.908"
       style="fill:#4c3625;fill-opacity:1;fill-rule:nonzero;stroke:none;stroke-width:0.1"
       id="path50" /><path
       d="m 546.698,257.745 0.65,-84.389 c 0,0 -50.849,-11.925 -122.88,-5.908 l -13.237,83.54 c 0,0 82.992,-12.051 135.467,6.757"
       style="fill:#f5f5f5;fill-opacity:1;fill-rule:nonzero;stroke:none;stroke-width:0.1"
       id="path52" /><path
       d="m 506.954,173.724 -11.584,11.452 13.807,47.927 -4.243,5.735 2.077,3.885 9.842,1.338 2.614,-4.637 -3.39,-5.594 4.046,-48.994 -13.169,-11.112"
       style="fill:#dcdbd9;fill-opacity:1;fill-rule:nonzero;stroke:none;stroke-width:0.1"
       id="path54" /><path
       d="m 516.853,244.061 2.614,-4.637 -3.39,-5.594 6.955,-48.092 -13.168,-11.111 -11.584,11.451 10.897,47.025 -4.243,5.735 2.077,3.885 9.842,1.338"
       style="fill:#4c3625;fill-opacity:1;fill-rule:nonzero;stroke:none;stroke-width:0.1"
       id="path56" /><path
       d="m 538.766,243.862 7.932,13.883 c 50.274,-8.993 35.084,40.98 25.543,61.221 -0.317,0.672 -2.052,4.988 -0.033,5.793 0.972,0.39 1.821,-0.133 2.477,-0.857 -0.069,0.94 0.114,1.892 1.018,2.254 0.878,0.35 1.656,-0.045 2.285,-0.661 -0.016,0.847 0.212,1.654 1.029,1.981 0.969,0.387 1.817,-0.134 2.473,-0.858 -0.069,0.943 0.116,1.893 1.018,2.253 1.888,0.752 2.955,-1.218 3.757,-2.862 22.185,-45.524 16.235,-96.225 -47.499,-82.147"
       style="fill:#fbd8b5;fill-opacity:1;fill-rule:nonzero;stroke:none;stroke-width:0.1"
       id="path58" /><path
       d="m 538.766,243.862 7.932,13.883 c 5.409,-0.968 10.056,-1.249 14.038,-0.962 l -0.104,-15.277 c -6.37,-0.193 -13.632,0.537 -21.866,2.356"
       style="fill:#f5f5f5;fill-opacity:1;fill-rule:nonzero;stroke:none;stroke-width:0.1"
       id="path60" /><path
       d="m 411.232,250.987 c -4.851,0.843 -10.961,3.04 -17.144,6.406 l -1.624,-16.614 c 7.065,-3.183 14.405,-5.483 21.486,-6.946 l -2.718,17.154"
       style="fill:#f5f5f5;fill-opacity:1;fill-rule:nonzero;stroke:none;stroke-width:0.1"
       id="path62" /><path
       d="m 482.921,263.535 c 0,0 24.625,1.648 39.143,7.94 0,0 -0.511,21.731 -23.485,17.756 -22.739,-3.935 -15.658,-25.696 -15.658,-25.696"
       style="fill:#ec6180;fill-opacity:1;fill-rule:nonzero;stroke:none;stroke-width:0.1"
       id="path64" /><path
       d="m 515.306,312.133 c 0.831,-4.016 3.053,-6.954 4.959,-6.566 1.908,0.39 2.78,3.963 1.948,7.978 -0.835,4.017 -3.057,6.956 -4.96,6.566 -1.909,-0.388 -2.778,-3.961 -1.947,-7.978"
       style="fill:#4c3625;fill-opacity:1;fill-rule:nonzero;stroke:none;stroke-width:0.1"
       id="path66" /><path
       d="m 523.715,331.444 -10.292,-3.333 c 0,0 -3.912,-3.641 -1.765,-14.837 2.148,-11.195 6.671,-12.523 6.671,-12.523 l 9.591,0.321 -4.205,30.372"
       style="fill:#865128;fill-opacity:1;fill-rule:nonzero;stroke:none;stroke-width:0.1"
       id="path68" /><path
       d="m 533.1,318.658 c 0,0 -3.333,14.001 -9.385,12.786 -6.053,-1.215 -6.98,-7.558 -6.162,-13.468 1.041,-7.524 3.222,-18.003 10.367,-16.904 7.145,1.098 5.18,17.586 5.18,17.586"
       style="fill:#fab73e;fill-opacity:1;fill-rule:nonzero;stroke:none;stroke-width:0.1"
       id="path70" /><path
       d="m 561.557,337.495 -37.709,-12.988 c -2.458,-4.01 0.345,-16.002 3.505,-16.446 l 39.241,6.035 -5.037,23.399"
       style="fill:#865128;fill-opacity:1;fill-rule:nonzero;stroke:none;stroke-width:0.1"
       id="path72" /><path
       d="m 597.778,366.509 -48.163,-16.802 c 0,0 -6.986,-28.327 11.536,-51.473 l 46.338,5.977 -9.711,62.298"
       style="fill:#fab73e;fill-opacity:1;fill-rule:nonzero;stroke:none;stroke-width:0.1"
       id="path74" /><path
       d="m 652.5,406.791 -60.32,-24.297 c -18.167,-23.452 -2.83,-84.708 21.124,-95.73 l 65.127,4.352 -25.931,115.675"
       style="fill:#865128;fill-opacity:1;fill-rule:nonzero;stroke:none;stroke-width:0.1"
       id="path76" /><path
       d="m 715.534,359.075 c 6.392,-32.316 -8.643,-62.513 -33.582,-67.446 -24.938,-4.932 -50.337,17.267 -56.729,49.583 -6.392,32.316 8.643,62.513 33.581,67.446 24.939,4.933 50.337,-17.266 56.73,-49.583"
       style="fill:#fab73e;fill-opacity:1;fill-rule:nonzero;stroke:none;stroke-width:0.1"
       id="path78" /><path
       d="m 710.832,358.145 c -5.727,28.952 -28.481,48.839 -50.823,44.42 -22.342,-4.419 -35.811,-31.471 -30.084,-60.423 5.726,-28.952 28.48,-48.84 50.822,-44.42 22.342,4.419 35.812,31.471 30.085,60.423"
       style="fill:#e9e9e9;fill-opacity:1;fill-rule:nonzero;stroke:none;stroke-width:0.1"
       id="path80" /><path
       d="m 704.968,363.348 c -5.71,23.872 -24.294,40.073 -41.511,36.185 -17.216,-3.888 -26.544,-26.392 -20.834,-50.265 5.709,-23.872 24.294,-40.073 41.51,-36.185 17.216,3.888 26.544,26.392 20.835,50.265"
       style="fill:#f5f5f5;fill-opacity:1;fill-rule:nonzero;stroke:none;stroke-width:0.1"
       id="path82" /><path
       d="m 710.832,358.145 c -5.727,28.952 -28.481,48.839 -50.823,44.42 -0.961,-0.19 -1.899,-0.437 -2.826,-0.709 20.881,1.257 41.137,-17.89 46.494,-44.972 5.48,-27.706 -6.626,-53.658 -27.258,-59.714 1.441,0.087 2.886,0.266 4.328,0.552 22.342,4.419 35.812,31.471 30.085,60.423"
       style="fill:#865128;fill-opacity:1;fill-rule:nonzero;stroke:none;stroke-width:0.1"
       id="path84" /><path
       d="m 453.514,310.094 27.983,-2.841 c 0.869,-0.088 1.502,-0.863 1.414,-1.732 -0.041,-0.404 -0.233,-0.759 -0.512,-1.012 l -20.691,-18.75 c -0.328,-0.297 -0.835,-0.272 -1.132,0.056 -0.286,0.315 -0.272,0.799 0.023,1.1 l 19.582,19.905 0.902,-2.744 -27.776,4.43 c -0.437,0.069 -0.735,0.48 -0.665,0.917 0.067,0.421 0.453,0.713 0.872,0.671"
       style="fill:#4c3625;fill-opacity:1;fill-rule:nonzero;stroke:none;stroke-width:0.1"
       id="path86" /><path
       d="m 418.97,434.959 11.814,2.356 2.462,-12.346 -11.814,-2.356 z m -26.506,65.602 c 3.85,6.178 10.042,10.119 18.575,11.821 7.891,1.573 14.656,0.608 20.29,-2.898 5.635,-3.505 9.144,-8.72 10.525,-15.646 0.837,-4.195 0.655,-7.77 -0.546,-10.725 -1.2,-2.955 -3.964,-7.498 -8.286,-13.626 -3.146,-4.454 -5.05,-8.074 -5.711,-10.859 -0.663,-2.788 -0.497,-6.674 0.497,-11.659 l -10.566,-2.107 c -1.128,5.659 -1.365,10.352 -0.709,14.083 0.654,3.732 2.857,8.295 6.607,13.694 l 3.909,5.656 c 1.185,1.635 2.083,3.274 2.696,4.919 1.13,2.9 1.419,5.735 0.866,8.506 -0.774,3.878 -2.627,7.004 -5.558,9.383 -2.932,2.378 -7.125,3.023 -12.58,1.935 -6.747,-1.345 -10.925,-4.729 -12.531,-10.152 -0.91,-3.02 -0.952,-7.124 -0.129,-12.308 l -10.567,-2.106 c -1.705,8.548 -0.632,15.91 3.218,22.089"
       style="fill:#b8d8bf;fill-opacity:1;fill-rule:nonzero;stroke:none;stroke-width:0.1"
       id="path88" /><path
       d="m 483.576,436.071 9.794,-1.584 -1.656,-10.237 -9.794,1.584 z m -1.56,58.259 c 4.752,3.658 10.665,4.916 17.739,3.772 6.544,-1.059 11.484,-3.752 14.824,-8.08 3.339,-4.329 4.544,-9.365 3.616,-15.106 -0.564,-3.478 -1.733,-6.184 -3.512,-8.119 -1.777,-1.934 -5.218,-4.645 -10.318,-8.129 -3.712,-2.53 -6.223,-4.776 -7.535,-6.736 -1.315,-1.958 -2.305,-5.005 -2.974,-9.139 l -8.76,1.417 c 0.759,4.692 1.928,8.383 3.508,11.073 1.579,2.691 4.594,5.579 9.042,8.664 l 4.646,3.239 c 1.385,0.92 2.55,1.927 3.498,3.02 1.707,1.912 2.746,4.016 3.118,6.314 0.52,3.215 -0.009,6.163 -1.586,8.842 -1.578,2.679 -4.627,4.385 -9.15,5.117 -5.595,0.905 -9.793,-0.504 -12.596,-4.225 -1.573,-2.069 -2.787,-5.223 -3.644,-9.461 l -8.761,1.417 c 1.147,7.088 4.095,12.461 8.845,16.12"
       style="fill:#b8d8bf;fill-opacity:1;fill-rule:nonzero;stroke:none;stroke-width:0.1"
       id="path90" /></g></svg>
