<?xml version="1.0" encoding="UTF-8" standalone="no"?>
<svg
   xmlns:dc="http://purl.org/dc/elements/1.1/"
   xmlns:cc="http://creativecommons.org/ns#"
   xmlns:rdf="http://www.w3.org/1999/02/22-rdf-syntax-ns#"
   xmlns:svg="http://www.w3.org/2000/svg"
   xmlns="http://www.w3.org/2000/svg"
   xmlns:sodipodi="http://sodipodi.sourceforge.net/DTD/sodipodi-0.dtd"
   xmlns:inkscape="http://www.inkscape.org/namespaces/inkscape"
   version="1.1"
   id="svg2"
   xml:space="preserve"
   width="623.25366"
   height="702.72693"
   viewBox="0 0 623.25363 702.7269"
   sodipodi:docname="context-tips.svg"
   inkscape:version="1.0.1 (1.0.1+r73)"><metadata
     id="metadata8"><rdf:RDF><cc:Work
         rdf:about=""><dc:format>image/svg+xml</dc:format><dc:type
           rdf:resource="http://purl.org/dc/dcmitype/StillImage" /><dc:title /></cc:Work></rdf:RDF></metadata><defs
     id="defs6" /><sodipodi:namedview
     pagecolor="#ffffff"
     bordercolor="#666666"
     borderopacity="1"
     objecttolerance="10"
     gridtolerance="10"
     guidetolerance="10"
     inkscape:pageopacity="0"
     inkscape:pageshadow="2"
     inkscape:window-width="1896"
     inkscape:window-height="1019"
     id="namedview4"
     showgrid="false"
     inkscape:zoom="0.55"
     inkscape:cx="-147.08477"
     inkscape:cy="228.68139"
     inkscape:window-x="1932"
     inkscape:window-y="12"
     inkscape:window-maximized="0"
     inkscape:current-layer="g10"
     inkscape:document-rotation="0" /><g
     id="g10"
     inkscape:groupmode="layer"
     inkscape:label="ink_ext_XXXXXX"
     transform="matrix(1.3333333,0,0,-1.3333333,-43.164201,956.16131)"><path
       style="fill:#517196;fill-opacity:1;fill-rule:nonzero;stroke:none;stroke-width:0.1"
       d="m 160.636,211.626 c -0.003,-11.852 31.649,-21.503 70.695,-21.55 39.045,-0.051 70.698,9.517 70.7,21.369 0.003,11.855 -31.648,21.502 -70.693,21.55 -39.045,0.05 -70.7,-9.517 -70.702,-21.369"
       id="path16" /><path
       style="fill:#704231;fill-opacity:1;fill-rule:nonzero;stroke:none;stroke-width:0.1"
       d="m 210.637,717.121 6.429,-506.835 h 25.318 l 6.515,500.578 -38.262,6.257"
       id="path18" /><path
       style="fill:#f8f8f8;fill-opacity:1;fill-rule:nonzero;stroke:#5a5a5a;stroke-width:0.75;stroke-miterlimit:4;stroke-dasharray:none;stroke-opacity:1"
       d="m 223.137,691.751 2.172,-40.174 241.825,-7.601 32.112,31.054 -30.485,24.322 -245.624,-7.601"
       id="path20" /><path
       style="fill:#f8f8f8;fill-opacity:1;fill-rule:nonzero;stroke:#5a5a5a;stroke-width:0.75;stroke-miterlimit:4;stroke-dasharray:none;stroke-opacity:1"
       d="m 239.604,636.736 -1.087,-84.088 -134.724,-5.972 -33.2016,59.616 30.4026,40.702 138.61,-10.258"
       id="path22" /><path
       style="fill:#f8f8f8;fill-opacity:1;fill-rule:nonzero;stroke:#5a5a5a;stroke-width:0.75;stroke-miterlimit:4;stroke-dasharray:none;stroke-opacity:1"
       d="m 225.309,534.575 1.086,-75.504 219.353,-4.17 24.888,35.173 -27.688,57.931 -217.639,-13.43"
       id="path24" /><path
       d="m 237.9474,431.52649 -1.085,-94.617 -175.896002,-3.501 -28.145795,56.132 41.516796,48.043 163.610001,-6.057"
       style="fill:#f8f8f8;fill-opacity:1;fill-rule:nonzero;stroke:#5a5a5a;stroke-width:0.75;stroke-miterlimit:4;stroke-dasharray:none;stroke-opacity:1"
       id="path26"
       sodipodi:nodetypes="cccccc" /><path
       d="m -217.73358,377.00069 1.086,-34.748 123.096,-9.228 27.145,21.987 -26.059,30.13 -125.268,-8.141"
       style="fill:#f8f8f8;fill-opacity:1;fill-rule:nonzero;stroke:#5a5a5a;stroke-width:0.75;stroke-miterlimit:4;stroke-dasharray:none;stroke-opacity:1"
       id="path28" /><path
       d="m -14.16358,326.24269 2.172,-38.546 -101.895,-14.029 -36.1166,26.774 35.8306,25.602 100.009,0.199"
       style="fill:#f8f8f8;fill-opacity:1;fill-rule:nonzero;stroke:#5a5a5a;stroke-width:0.75;stroke-miterlimit:4;stroke-dasharray:none;stroke-opacity:1"
       id="path30" /><path
       d="m 571.018,87.743 c -0.006,-12.2121 44.154,-22.1489 98.631,-22.1899 54.479,-0.0441 98.645,9.8219 98.65,22.036 0.006,12.2129 -44.153,22.1469 -98.63,22.1879 -54.477,0.043 -98.646,-9.8219 -98.651,-22.034"
       style="fill:#517196;fill-opacity:1;fill-rule:nonzero;stroke:none;stroke-width:0.1"
       id="path32" /><path
       d="m 609.348,162.542 3.725,-53.912 c 0,0 -16.54,12.303 -24.477,-1.845 -11.182,-19.935 34.693,-9.3319 34.693,-9.3319 l 1.232,51.4559 c 0,0 51.671,-9.216 115.645,-1.23 l 2.462,-44.587 c 0,0 -18.762,16.917 -25.222,0 -8.638,-22.6268 34.448,-7.708 34.448,-7.708 l 5.56,62.683 c 0,0 -55.592,14.097 -148.066,4.475"
       style="fill:#4e2e22;fill-opacity:1;fill-rule:nonzero;stroke:none;stroke-width:0.1"
       id="path34" /><path
       d="m 600.916,273.929 c 0,0 -20.756,181.146 122.66,123.321 0,0 45.421,-32.267 47.497,-124.808 -138.49,-29.631 -170.157,1.487 -170.157,1.487"
       style="fill:#fbd7b5;fill-opacity:1;fill-rule:nonzero;stroke:none;stroke-width:0.1"
       id="path36" /><path
       d="m 572.285,450.65 c 0,0 -1.267,-112.232 142.566,-83.3 l 13.666,-33.942 c 0,0 14.969,15.657 19.773,-0.718 4.806,-16.375 -15.703,-11.13 -15.703,-11.13 0,0 17.811,-38.486 38.486,-49.118 -0.685,-1.372 47.072,182.725 -30.179,151.094 0,0 -6.161,27.039 -52.527,27.909 -48.054,0.902 -72.155,-47.235 -116.082,-0.795"
       style="fill:#4e2e22;fill-opacity:1;fill-rule:nonzero;stroke:none;stroke-width:0.1"
       id="path38" /><path
       d="m 626.039,329.259 c -0.141,-3.821 -2.048,-6.855 -4.264,-6.773 -2.212,0.081 -3.895,3.243 -3.756,7.065 0.139,3.823 2.046,6.856 4.261,6.776 2.214,-0.081 3.897,-3.245 3.759,-7.068"
       style="fill:#4e2e22;fill-opacity:1;fill-rule:nonzero;stroke:none;stroke-width:0.1"
       id="path40" /><path
       d="m 684.931,329.181 c -0.139,-3.822 -2.046,-6.854 -4.263,-6.773 -2.214,0.079 -3.897,3.242 -3.758,7.065 0.139,3.822 2.049,6.855 4.262,6.774 2.215,-0.08 3.897,-3.244 3.759,-7.066"
       style="fill:#4e2e22;fill-opacity:1;fill-rule:nonzero;stroke:none;stroke-width:0.1"
       id="path42" /><path
       d="m 600.916,273.929 8.432,-111.387 c 0,0 58.088,-14.546 148.066,-4.475 l 13.659,114.375 c 0,0 -113.008,-17.264 -170.157,1.487"
       style="fill:#f8f8f8;fill-opacity:1;fill-rule:nonzero;stroke:none;stroke-width:0.1"
       id="path44" /><path
       d="m 602.578,270.4 0.71,-19.176 c -4.909,-1.814 -9.044,-4.328 -12.525,-7.363 l -9.995,16.076 c 11.06,9.287 21.81,10.463 21.81,10.463"
       style="fill:#f8f8f8;fill-opacity:1;fill-rule:nonzero;stroke:none;stroke-width:0.1"
       id="path46" /><path
       d="m 580.768,259.937 9.995,-16.076 c -30.556,-26.624 -10.232,-94.063 -10.232,-94.063 l 4.043,-12.915 c 0.228,-0.905 1.318,-6.639 -1.365,-7.141 -1.289,-0.241 -2.208,0.607 -2.84,1.656 -0.142,-1.174 -0.6,-2.299 -1.799,-2.526 -1.167,-0.218 -2.029,0.456 -2.653,1.368 -0.188,-1.048 -0.662,-1.986 -1.746,-2.189 -1.288,-0.242 -2.206,0.604 -2.839,1.656 -0.144,-1.179 -0.602,-2.303 -1.798,-2.526 -2.507,-0.468 -3.622,3.166 -3.93,4.432 l -3.031,15.408 c -14.561,68.873 2.143,99.437 18.195,112.916"
       style="fill:#fbd7b5;fill-opacity:1;fill-rule:nonzero;stroke:none;stroke-width:0.1"
       id="path48" /><path
       d="m 646.448,248.948 -3.497,-6.636 4.997,-7.747 -8.994,-43.47 12.493,-18.488 13.991,16.566 -7.746,44.644 5.746,8.244 -3.078,5.388 -13.912,1.499"
       style="fill:#4e2e22;fill-opacity:1;fill-rule:nonzero;stroke:none;stroke-width:0.1"
       id="path50" /><path
       d="m 772.782,412.115 c 0.137,0.005 0.218,0.01 0.218,0.01 0,0 -0.082,-0.002 -0.218,-0.01"
       style="fill:#fbd7b5;fill-opacity:1;fill-rule:nonzero;stroke:none;stroke-width:0.1"
       id="path52" /><path
       d="M 768.569,268.226 766.001,249 c 10.05,1.567 20.975,6.963 31.035,15.311 l -13.794,12.746 c -4.802,-3.805 -9.789,-6.799 -14.673,-8.831"
       style="fill:#f8f8f8;fill-opacity:1;fill-rule:nonzero;stroke:none;stroke-width:0.1"
       id="path54" /><path
       d="M 833.004,342.104 C 831,386.5 796.37,413.917 796.37,413.917 c 0,0 -27.745,18.458 -36.87,2.583 0,0 -2.125,-3.25 1.25,-3 3.375,0.25 7.5,5.5 12.25,2.875 0,0 -4.702,1.27 -4.75,-2.5 -0.023,-1.806 3.601,-1.793 4.532,-1.76 0.136,0.008 0.218,0.01 0.218,0.01 0,0 -0.081,-0.005 -0.218,-0.01 -0.877,-0.053 -4.154,-0.388 -4.246,-2.474 -0.136,-3.062 2.575,-3.018 3.444,-2.927 0.164,0.028 0.27,0.036 0.27,0.036 0,0 -0.105,-0.019 -0.27,-0.036 -0.794,-0.135 -3.044,-0.771 -2.105,-3.589 1,-3 5.625,-0.75 5.625,-0.75 0,0 10.625,1.75 15.867,-4.285 41.107,-49.83 19.613,-99.057 -8.125,-121.033 l 13.794,-12.746 c 19.894,16.509 36.394,44.611 35.968,77.793"
       style="fill:#fbd7b5;fill-opacity:1;fill-rule:nonzero;stroke:none;stroke-width:0.1"
       id="path56" /><path
       d="m 771.98,406.714 c 0.165,0.017 0.27,0.036 0.27,0.036 0,0 -0.106,-0.008 -0.27,-0.036"
       style="fill:#fbd7b5;fill-opacity:1;fill-rule:nonzero;stroke:none;stroke-width:0.1"
       id="path58" /><path
       d="m 606.724,331.556 c -0.031,-0.107 0.19,-0.139 0.022,-0.117 -0.061,0.088 -0.101,0.16 -0.022,0.117"
       style="fill:#4e2e22;fill-opacity:1;fill-rule:nonzero;stroke:none;stroke-width:0.1"
       id="path60" /><path
       d="m 625.499,348.047 c 0.232,-0.713 -0.523,-0.457 -0.478,-1.002 -0.009,-0.047 -0.242,0.287 -0.247,0.162 0.117,-0.609 -0.469,-0.705 -1.032,-0.654 l -0.054,0.093 c -0.105,0.009 0.061,-0.314 -0.03,-0.329 l -0.127,0.153 c 0.128,-0.173 -0.039,-0.168 0.041,-0.308 l -0.28,0.213 0.128,-0.211 c 0.289,-0.514 -0.252,-0.172 -0.182,-0.507 l -0.094,0.124 c 0.029,-0.443 -0.27,-0.621 -0.413,-0.92 l -0.219,0.256 c 0.158,-0.2 0.13,-0.31 0.102,-0.402 -0.201,0.172 0.054,-0.272 -0.114,-0.227 l -0.031,0.048 c 0.129,-0.253 -0.184,0.048 -0.009,-0.235 l -0.17,0.123 c 0.222,-0.296 -0.204,0.076 -0.123,-0.104 l 0.052,-0.055 c 0.018,-0.104 -0.126,0.016 -0.123,-0.065 l -0.032,0.029 c -0.026,-0.152 -0.214,-0.045 -0.02,-0.258 -0.186,0.144 0.017,0.156 -0.256,0.363 -0.097,-0.484 -0.44,-0.711 -0.732,-0.979 l -0.237,0.139 c 0.01,-0.07 -0.076,-0.139 -0.005,-0.273 0.006,0.013 -0.117,0.093 -0.142,0.09 -0.126,0.033 0.151,-0.29 0.006,-0.246 l -0.16,0.228 c 0.099,-0.213 0.007,-0.246 -0.004,-0.354 l -0.09,0.145 c 0.104,-0.248 -0.154,-0.065 -0.106,-0.236 l -0.089,0.142 c -0.226,0.07 0.205,-0.284 0.045,-0.265 l -0.107,0.152 c 0.127,-0.292 -0.06,-0.324 -0.065,-0.467 l -0.043,0.055 c -0.056,-0.101 -0.203,-0.106 -0.205,-0.283 -0.081,0.027 -0.258,0.312 -0.303,0.191 0.224,-0.247 -0.054,-0.232 0.247,-0.47 -0.109,-0.024 -0.308,-0.033 -0.281,-0.161 -0.052,0.124 -0.307,0.274 -0.265,0.349 l -0.181,0.11 c -0.084,0.109 0.078,0.008 -0.05,0.123 -0.022,-0.037 -0.023,-0.215 -0.086,-0.198 0.08,-0.203 0.282,-0.535 0.218,-0.647 -0.044,0.134 -0.269,0.253 -0.278,0.322 l 0.298,-0.591 c -0.021,-0.039 -0.182,0.19 -0.168,0.086 l 0.113,-0.188 c -0.038,0.02 -0.071,-0.173 -0.304,0.061 -0.098,0.083 0.005,0.095 -0.107,0.152 -0.055,-0.051 0.019,-0.138 -0.034,-0.192 l -0.03,0.032 c -0.07,0.004 -0.017,-0.202 0.144,-0.302 0.032,0.016 -0.141,0.139 -0.039,0.102 0.101,-0.166 0.071,-0.264 0.017,-0.316 l -0.13,0.196 c 0.095,-0.26 0.07,-0.393 0.057,-0.548 0.103,-0.118 -0.157,0.241 -0.089,0.19 -0.252,0.066 -0.019,-0.428 -0.32,-0.271 -0.004,0.034 0.155,-0.159 0.125,-0.127 -0.064,-0.032 -0.213,0.14 -0.191,0.048 -0.092,0.096 -0.014,-0.071 -0.022,-0.132 0.045,-0.088 -0.052,0.041 -0.031,0.078 0.025,-0.127 -0.033,-0.452 -0.273,-0.408 0.06,-0.064 0.144,-0.302 0.112,-0.317 l -0.126,0.162 c -0.106,0.071 -0.075,-0.09 -0.196,0.038 0.111,-0.237 0.071,0.347 0.125,0.137 -0.134,0.111 0.113,-0.337 -0.057,-0.114 -0.047,-0.052 0.057,-0.269 -0.121,-0.169 0.037,-0.012 -0.148,0.25 -0.18,0.202 -0.049,-0.092 0.045,-0.091 0.031,-0.196 l 0.018,-0.097 c 0.131,-0.152 -0.084,-0.038 0.093,-0.181 -0.119,0.115 -0.04,-0.171 -0.253,0.084 l -0.163,0.205 c -0.02,-0.043 0.131,-0.253 0.182,-0.362 l -0.089,0.08 c 0.26,-0.305 -0.099,-0.043 0.069,-0.308 -0.159,0.044 -0.179,-0.142 -0.376,0.017 0.029,-0.137 0.078,-0.286 -0.037,-0.274 l -0.06,0.129 c -0.115,0.056 -0.053,-0.031 -0.044,-0.11 -0.032,0.051 -0.229,0.11 -0.364,0.179 0.028,-0.134 0.19,-0.281 0.272,-0.383 -0.31,0.253 0.025,-0.319 -0.272,-0.103 -0.018,0.057 -0.055,0.211 -0.163,0.248 -0.309,0.253 0.1,-0.302 -0.102,-0.227 l 0.237,-0.229 c -0.168,0.122 0.016,-0.24 -0.198,0.016 0.052,-0.111 -0.162,0.003 0.059,-0.229 -0.303,0.092 -0.191,-0.39 -0.649,-0.028 0.018,-0.056 -0.063,-0.055 0.056,-0.169 0.148,-0.108 -0.044,0.132 0.048,0.051 l 0.072,-0.125 c -0.086,0.02 -0.131,0.01 -0.272,0.242 -0.217,0.072 0.273,-0.486 0.081,-0.487 -0.083,0.102 -0.124,0.132 -0.143,0.088 l 0.091,-0.223 c -0.105,-0.024 -0.24,0.189 -0.39,0.355 -0.013,-0.061 -0.066,-0.094 0.028,-0.235 l -0.232,0.17 c 0.168,-0.122 0.059,-0.129 0.077,-0.185 l -0.018,0.056 c -0.071,0.065 -0.075,-0.017 -0.079,-0.058 0.098,-0.098 0.18,-0.101 0.23,-0.11 0.047,-0.091 10e-4,-0.1 0.053,-0.209 -0.137,0.171 -0.165,0.062 -0.21,0.053 -0.065,0.005 0.092,-0.182 0.077,-0.186 -0.076,0.085 -0.068,-0.035 -0.148,0.109 -0.013,0.038 0.101,-0.06 0.053,0.033 -0.078,0.043 -0.208,0.194 -0.159,0.044 0.038,-0.113 0.297,-0.317 0.138,-0.273 l -0.112,0.197 -0.139,0.03 0.13,-0.153 -0.069,0.066 c 0.122,-0.175 -0.053,-0.134 0.091,-0.324 -0.018,-0.044 -0.159,0.045 -0.205,0.035 l -0.005,0.017 c -0.116,0.056 -0.114,-0.046 -0.054,-0.174 l -0.027,0.034 c -0.032,-0.006 -0.058,-0.073 -0.005,-0.183 -0.152,0.068 -0.52,0.551 -0.409,0.312 -0.047,-0.051 0.163,-0.347 0.269,-0.424 -0.183,0.018 -0.071,-0.319 -0.364,-0.164 l 0.087,-0.162 c -0.19,-0.063 -0.131,-0.434 -0.501,-0.237 -0.017,0.099 -0.131,0.154 -0.207,0.238 0.086,-0.163 -0.163,0.103 0.029,-0.137 0.124,-0.132 0.179,-0.2 0.266,-0.221 -0.017,-0.145 -0.141,-0.256 -0.298,-0.17 0.078,-0.042 0.097,-0.099 0.116,-0.155 -0.187,0.221 -0.275,0.2 -0.253,0.083 l 0.11,-0.137 -0.149,0.109 c 0.02,-0.057 0.226,-0.293 0.068,-0.206 l -0.138,0.128 c 0.048,-0.15 0.145,-0.391 -0.005,-0.325 l -0.212,0.155 c -0.004,-0.04 0.062,-0.189 0.15,-0.209 -0.19,0.038 -0.259,0.003 -0.434,0.144 0.21,-0.538 0.007,-0.748 -0.194,-0.874 l -0.082,0.103 c -0.129,0.051 0.128,-0.194 0.035,-0.155 -0.068,0.108 -0.217,0.173 -0.283,0.321 -0.159,0.044 0.066,-0.247 0.062,-0.331 0.109,-0.135 -0.038,0.114 0.099,-0.058 0.034,-0.053 -0.182,0.019 -0.019,-0.186 -0.085,0.062 -0.199,0.217 -0.261,0.305 l 0.043,-0.132 c -0.253,0.184 -0.249,0.51 -0.552,0.745 l -0.01,-0.064 c -0.218,0.173 -0.106,0.319 -0.263,0.306 0.045,-0.133 0.262,-0.449 0.376,-0.502 -0.038,-0.13 0.375,-0.502 0.268,-0.568 -0.128,0.093 0.049,0.094 -0.112,0.239 -0.183,0.119 -0.009,-0.165 -0.096,-0.145 0.109,-0.035 0.247,-0.265 0.252,-0.326 -0.129,0.052 -0.133,0.213 -0.218,0.174 0.089,-0.122 0.103,-0.262 0.226,-0.293 0.204,-0.278 -0.132,0.01 0.009,-0.221 -0.183,0.161 -0.303,0.477 -0.455,0.502 0.166,-0.163 0.12,-0.315 0.387,-0.538 -0.073,0.023 -0.198,0.157 -0.271,0.282 -0.136,0.071 0.183,-0.404 -0.137,-0.072 l 0.144,-0.19 -0.228,0.152 c -0.038,-0.029 0.099,-0.344 -0.136,-0.073 0.012,-0.038 -0.079,-0.099 0.116,-0.255 0.151,-0.068 -0.062,0.186 0.189,-0.038 -0.217,0.172 -0.048,-0.093 -0.017,-0.187 l -0.098,0.099 c 0.019,-0.056 -0.042,-0.069 0.047,-0.191 l -0.146,0.148 0.123,-0.174 c -10e-4,-0.142 -0.264,0.263 -0.292,0.155 l -0.056,0.169 c 0.012,-0.037 -0.144,0.09 -0.133,0.011 l 0.333,-0.471 c 0.017,-0.097 -0.162,0.147 -0.069,-0.035 l -0.104,0.218 c -0.034,0.055 -0.245,0.208 -0.294,0.157 0.011,-0.079 0.144,-0.333 0.267,-0.365 -0.025,-0.026 -0.14,0.029 -0.212,0.153 -0.015,-0.102 0.145,-0.148 0.174,-0.283 -0.107,0.077 -0.293,0.156 -0.456,0.261 l -0.161,0.288 -0.038,-0.029 c -0.125,0.234 -0.154,0.125 -0.308,0.353 -0.053,0.01 -0.021,-0.086 0.003,-0.16 0.36,-0.263 0.316,-0.516 0.6,-0.794 -0.024,-0.168 -0.703,0.668 -0.39,0.113 0.085,-0.063 0.238,-0.331 0.223,-0.191 -0.089,-0.022 0.224,-0.334 0.043,-0.275 -0.055,0.169 -0.324,0.25 -0.405,0.495 0.082,-0.102 0.109,-0.036 0.096,0.001 -0.126,0.092 -0.261,0.304 -0.322,0.249 -0.013,-0.061 -0.06,-0.113 0.085,-0.261 0.153,-0.169 0.042,0.069 0.17,-0.124 -0.022,-0.126 -0.265,0.121 -0.028,-0.209 0.026,0.067 0.194,-0.098 0.297,-0.216 l 0.008,-0.12 -0.09,0.123 c -0.16,0.003 0.156,-0.229 0.044,-0.275 l -0.239,0.188 c -0.151,0.211 0.201,0.025 -0.093,0.325 -0.068,-0.037 0.056,-0.213 -0.069,-0.179 l -0.016,0.098 c -0.029,-0.008 -0.418,0.391 -0.281,0.076 0.043,-0.131 0.088,-0.12 0.191,-0.239 -0.059,-0.115 0.021,-0.259 -0.02,-0.328 -0.192,0.239 -0.123,-0.069 -0.266,0.223 0.148,-0.109 0.266,0.02 0.103,0.266 -0.273,0.242 0.105,0.025 -0.12,0.316 -0.078,-0.057 -0.311,0.212 -0.478,0.376 -0.031,-0.004 0.015,-0.096 0.028,-0.133 0.137,-0.172 0.161,-0.147 0.314,-0.315 -0.121,-0.026 -0.117,-0.186 -0.018,-0.386 -0.099,0.057 -0.236,0.229 -0.219,0.273 -0.051,-0.134 -0.174,-0.202 -0.308,-0.233 0.297,-0.216 -0.045,-0.153 0.193,-0.34 0.103,-0.018 0.314,-0.172 0.394,-0.316 -0.045,-0.009 -0.104,0.118 -0.167,0.164 0.091,-0.18 -0.269,0.182 -0.102,-0.083 0.011,0.164 -0.273,0.342 -0.444,0.567 0.042,-0.174 -0.131,0.152 -0.193,0.096 0.041,-0.172 0.046,-0.333 0.017,-0.44 -0.265,0.122 -0.225,-0.193 -0.296,-0.27 -0.136,0.07 -0.319,0.332 -0.4,0.333 -0.048,-0.05 0.266,-0.221 0.092,-0.181 l -0.034,0.054 c 0.026,-0.076 -0.285,0.036 -0.004,-0.327 l -0.205,0.28 c -0.036,0.01 0.004,-0.061 0.016,-0.099 l -0.186,0.221 c -0.205,0.135 -0.074,-0.117 -0.119,-0.17 l 0.168,-0.123 c 0.019,-0.198 -0.176,-0.1 -0.214,-0.229 l -0.13,0.152 0.029,-0.135 c -0.116,0.156 -0.245,0.207 -0.165,0.062 l -0.193,0.483 c 0.116,-0.055 0.12,-0.216 0.274,-0.342 0.134,-0.111 0.176,0 0.062,0.155 -0.045,-0.01 -0.017,-0.045 0.007,-0.12 -0.194,0.199 -0.142,0.233 -0.241,0.391 -0.009,-0.023 -0.087,0.02 -0.032,-0.048 -0.059,0.129 -0.041,0.172 0.005,0.224 0.038,-0.113 0.134,-0.112 0.173,-0.183 -0.158,0.186 -0.159,0.287 -0.048,0.293 0.233,-0.171 0,0.243 0.125,0.251 0.135,-0.212 0.229,-0.395 0.25,-0.51 0.129,-0.052 0.047,0.051 0.177,0 -0.1,0.157 -0.272,0.384 -0.286,0.522 l 0.125,-0.134 c -0.008,0.12 -0.187,0.322 -0.082,0.346 0.18,0.04 0.304,0.15 0.411,0.214 l 0.124,-0.132 c -0.208,0.337 0.075,0.259 0.029,0.45 0.234,-0.028 0.139,0.356 0.408,0.175 0.114,0.289 0.203,0.551 0.462,0.692 l 0.14,-0.231 c -0.091,0.181 0.127,-0.091 0.138,-0.028 -0.184,0.119 -0.13,0.252 -0.212,0.397 0.233,-0.07 0.205,0.208 0.166,0.422 l 0.125,-0.134 c -0.142,0.333 0.16,0.198 0.304,0.251 0.062,-0.045 0.195,-0.157 0.214,-0.114 -0.139,0.273 -0.095,0.284 -0.132,0.497 0.061,0.055 0.21,0.09 0.349,0.06 -0.043,0.517 0.372,0.529 0.448,0.932 l 0.16,-0.146 c -0.07,0.552 0.495,0.497 0.539,0.851 l 0.224,-0.291 c 0.137,-0.029 0.08,0.199 -0.11,0.379 0.138,-0.028 0.039,0.272 0.279,0.083 0.11,0.007 -0.033,0.196 -0.012,0.281 0.22,0.011 0.248,0.076 0.323,0.235 l -0.045,-0.009 c 0.04,-0.073 0.143,-0.19 0.189,-0.18 -0.023,0.117 0.232,0.074 -0.104,0.361 0.297,-0.073 0.165,0.422 0.519,0.279 -0.091,0.081 -0.075,0.126 -0.115,0.199 0.111,0.104 0.393,0.028 0.348,0.261 0.058,-0.029 0.106,-0.178 0.161,-0.146 l -0.114,0.197 c 0.036,0.331 0.526,0.16 0.655,0.353 0.145,0.437 0.533,0.626 0.792,0.908 l 0.056,-0.068 c -0.128,0.336 0.452,-0.058 0.193,0.387 0.078,-0.042 0.112,0.048 0.208,-0.093 -0.081,0.245 0.362,0.022 0.272,0.345 l 0.004,-0.06 c 0.24,-0.046 0.162,0.239 0.395,0.212 l 0.065,-0.147 c 0.158,-0.086 -0.139,0.372 0.168,0.077 0.023,0.027 -0.124,0.176 -0.131,0.153 0.366,0.105 0.461,0.55 0.664,0.86 0.359,-0.019 0.485,-0.523 0.426,-0.151 0.067,-0.051 -0.098,0.128 -0.038,0.064 -0.02,0.141 0.406,-0.272 0.298,-0.071 -0.189,0.179 -0.069,0.134 -0.174,0.253 0.23,-0.023 0.41,-0.177 0.371,0.053 l 0.084,-0.109 c -0.149,0.386 0.115,0.342 -0.091,0.757 0.544,0.592 0.952,1.286 1.5,1.843 0.633,0.448 1.062,1.098 1.805,1.44 0.375,-0.146 0.379,-0.13 0.433,0.113 l 0.079,-0.099 c -0.189,0.226 0.087,0.115 -0.086,0.338 0.253,0.151 0.399,0.388 0.619,0.587 -0.013,-0.054 0.128,-0.25 0.158,-0.199 l -0.083,0.18 0.063,-0.056 c 0,0.059 -0.066,0.196 -0.158,0.24 0.388,0.687 1.331,0.734 1.831,1.274 0.212,0.023 0.321,0.272 0.423,0.442 0.678,0.078 1.267,0.176 1.509,0.76 0,0 0.453,-0.619 0.393,-0.906"
       style="fill:#4e2e22;fill-opacity:1;fill-rule:nonzero;stroke:none;stroke-width:0.1"
       id="path62" /><path
       d="m 606.787,331.652 c 0.113,-0.096 0.216,-0.114 0.307,-0.295 l -0.307,0.295"
       style="fill:#4e2e22;fill-opacity:1;fill-rule:nonzero;stroke:none;stroke-width:0.1"
       id="path64" /><path
       d="m 609.096,331.673 c -0.028,0.034 0.058,-0.028 0.078,-0.043 -0.009,-0.023 0.058,-0.128 -0.005,-0.083 l -0.073,0.126"
       style="fill:#4e2e22;fill-opacity:1;fill-rule:nonzero;stroke:none;stroke-width:0.1"
       id="path66" /><path
       d="m 609.486,331.902 c 0.082,-0.102 0.08,-0.244 0.049,-0.293 l -0.049,0.293"
       style="fill:#4e2e22;fill-opacity:1;fill-rule:nonzero;stroke:none;stroke-width:0.1"
       id="path68" /><path
       d="m 610.155,331.772 c 0.101,-0.058 0.134,-0.11 0.095,-0.139 l -0.095,0.139"
       style="fill:#4e2e22;fill-opacity:1;fill-rule:nonzero;stroke:none;stroke-width:0.1"
       id="path70" /><path
       d="m 609.979,332.016 c 0.023,0.025 0.087,-0.021 0.15,-0.067 -0.076,0.084 -0.013,-0.105 -0.15,0.067"
       style="fill:#4e2e22;fill-opacity:1;fill-rule:nonzero;stroke:none;stroke-width:0.1"
       id="path72" /><path
       d="m 610.904,332.328 c 0.01,0.023 -0.028,0.135 0.084,0.039 -0.085,0.062 0.032,-0.194 -0.084,-0.039"
       style="fill:#4e2e22;fill-opacity:1;fill-rule:nonzero;stroke:none;stroke-width:0.1"
       id="path74" /><path
       d="m 611.085,332.754 0.023,0.025 c 0.059,-0.027 0.103,-0.117 0.095,-0.139 l -0.118,0.114"
       style="fill:#4e2e22;fill-opacity:1;fill-rule:nonzero;stroke:none;stroke-width:0.1"
       id="path76" /><path
       d="m 616.42,338.202 0.01,-0.079 -0.082,0.102 z"
       style="fill:#4e2e22;fill-opacity:1;fill-rule:nonzero;stroke:none;stroke-width:0.1"
       id="path78" /><path
       d="m 618.906,340.422 c -0.021,0.092 0.106,-0.071 0.124,-0.081 -0.021,-0.037 -0.096,0.131 -0.124,0.081"
       style="fill:#4e2e22;fill-opacity:1;fill-rule:nonzero;stroke:none;stroke-width:0.1"
       id="path80" /><path
       d="m 619.814,342.105 -0.008,-0.011 -0.176,0.205 z"
       style="fill:#4e2e22;fill-opacity:1;fill-rule:nonzero;stroke:none;stroke-width:0.1"
       id="path82" /><path
       d="m 695.639,330.763 c 0.102,-0.026 0.139,0.188 0.114,0.025 -0.087,-0.062 -0.158,-0.102 -0.114,-0.025"
       style="fill:#4e2e22;fill-opacity:1;fill-rule:nonzero;stroke:none;stroke-width:0.1"
       id="path84" /><path
       d="m 680.029,348.45 c 0.7,0.247 0.432,-0.493 0.965,-0.432 0.046,-0.008 -0.287,-0.245 -0.165,-0.245 0.598,0.131 0.676,-0.433 0.613,-0.98 l -0.093,-0.055 c -0.011,-0.102 0.307,0.069 0.32,-0.019 l -0.151,-0.127 c 0.17,0.129 0.162,-0.033 0.301,0.049 l -0.215,-0.278 0.209,0.129 c 0.507,0.297 0.161,-0.238 0.489,-0.16 l -0.122,-0.095 c 0.432,0.041 0.597,-0.243 0.885,-0.372 l -0.254,-0.22 c 0.199,0.16 0.306,0.136 0.395,0.111 -0.173,-0.199 0.266,0.061 0.218,-0.103 l -0.047,-0.032 c 0.248,0.133 -0.053,-0.18 0.228,-10e-4 l -0.125,-0.169 c 0.295,0.225 -0.078,-0.199 0.099,-0.115 l 0.056,0.051 c 0.101,0.021 -0.019,-0.122 0.059,-0.117 l -0.028,-0.032 c 0.147,-0.02 0.038,-0.205 0.251,-0.011 -0.146,-0.184 -0.151,0.011 -0.36,-0.26 0.469,-0.078 0.681,-0.405 0.935,-0.68 l -0.141,-0.232 c 0.069,0.011 0.133,-0.07 0.266,0.004 -0.013,0.004 -0.094,-0.118 -0.091,-0.141 -0.036,-0.123 0.286,0.155 0.24,0.014 l -0.227,-0.162 c 0.21,0.101 0.24,0.013 0.345,0.005 l -0.144,-0.09 c 0.245,0.108 0.061,-0.148 0.229,-0.095 l -0.142,-0.091 c -0.073,-0.222 0.282,0.206 0.261,0.052 l -0.151,-0.11 c 0.288,0.132 0.314,-0.047 0.453,-0.048 l -0.054,-0.043 c 0.097,-0.051 0.098,-0.194 0.27,-0.19 -0.028,-0.08 -0.311,-0.261 -0.194,-0.3 0.247,0.226 0.225,-0.046 0.464,0.254 0.021,-0.105 0.025,-0.298 0.15,-0.268 -0.122,-0.053 -0.274,-0.305 -0.346,-0.267 l -0.113,-0.179 c -0.107,-0.084 -0.004,0.077 -0.121,-0.052 0.036,-0.02 0.209,-0.015 0.192,-0.077 0.2,0.083 0.528,0.29 0.636,0.231 -0.132,-0.046 -0.253,-0.268 -0.321,-0.278 l 0.584,0.305 c 0.037,-0.018 -0.19,-0.181 -0.089,-0.165 l 0.187,0.115 c -0.02,-0.037 0.168,-0.064 -0.067,-0.295 -0.084,-0.098 -0.092,10e-4 -0.152,-0.109 0.05,-0.052 0.136,0.022 0.188,-0.027 l -0.033,-0.03 c -0.005,-0.069 0.197,-0.01 0.298,0.149 -0.015,0.03 -0.139,-0.142 -0.099,-0.041 0.164,0.103 0.258,0.076 0.308,0.025 l -0.194,-0.131 c 0.256,0.1 0.384,0.08 0.535,0.072 0.118,0.103 -0.238,-0.16 -0.188,-0.093 -0.071,-0.246 0.417,-0.005 0.256,-0.301 -0.032,-0.005 0.159,0.156 0.128,0.125 0.03,-0.061 -0.142,-0.211 -0.052,-0.186 -0.095,-0.092 0.069,-0.012 0.128,-0.018 0.087,0.047 -0.041,-0.052 -0.077,-0.033 0.124,0.029 0.441,-0.018 0.391,-0.252 0.064,0.061 0.299,0.149 0.313,0.119 l -0.162,-0.128 c -0.071,-0.103 0.086,-0.069 -0.041,-0.19 0.233,0.114 -0.338,0.057 -0.131,0.116 -0.112,-0.133 0.331,0.12 0.11,-0.052 0.049,-0.043 0.263,0.064 0.162,-0.111 0.013,0.036 -0.249,-0.151 -0.202,-0.18 0.09,-0.045 0.091,0.046 0.192,0.035 l 0.095,0.021 c 0.151,0.131 0.035,-0.08 0.179,0.095 -0.116,-0.119 0.166,-0.033 -0.088,-0.247 l -0.204,-0.166 c 0.042,-0.016 0.25,0.135 0.357,0.189 l -0.08,-0.09 c 0.304,0.263 0.04,-0.094 0.302,0.077 -0.047,-0.156 0.133,-0.169 -0.026,-0.364 0.134,0.032 0.281,0.083 0.266,-0.028 l -0.127,-0.062 c -0.057,-0.112 0.029,-0.051 0.106,-0.039 -0.05,-0.033 -0.113,-0.225 -0.184,-0.358 0.133,0.031 0.278,0.191 0.381,0.274 -0.255,-0.307 0.311,0.034 0.093,-0.26 -0.055,-0.019 -0.208,-0.058 -0.246,-0.165 -0.255,-0.306 0.297,0.106 0.219,-0.091 l 0.229,0.236 c -0.123,-0.167 0.236,0.022 -0.02,-0.194 0.109,0.056 -0.007,-0.156 0.225,0.066 -0.098,-0.297 0.375,-0.174 0.01,-0.628 0.056,0.019 0.052,-0.06 0.167,0.059 0.109,0.146 -0.129,-0.046 -0.048,0.044 l 0.123,0.076 c -0.022,-0.085 -0.014,-0.129 -0.243,-0.273 -0.076,-0.212 0.48,0.28 0.478,0.094 -0.103,-0.083 -0.133,-0.125 -0.091,-0.141 l 0.221,0.095 c 0.019,-0.101 -0.192,-0.239 -0.358,-0.39 0.061,-0.009 0.092,-0.06 0.231,0.036 l -0.171,-0.231 c 0.123,0.167 0.127,0.061 0.183,0.081 l -0.056,-0.02 c -0.065,-0.071 0.015,-0.072 0.054,-0.075 0.099,0.098 0.104,0.178 0.114,0.227 0.089,0.048 0.098,0.005 0.205,0.058 -0.171,-0.138 -0.064,-0.162 -0.057,-0.205 -0.006,-0.064 0.179,0.094 0.183,0.081 -0.085,-0.078 0.032,-0.066 -0.109,-0.148 -0.038,-0.014 0.06,0.1 -0.032,0.05 -0.044,-0.077 -0.194,-0.207 -0.047,-0.154 0.112,0.039 0.317,0.298 0.269,0.141 l -0.193,-0.115 -0.034,-0.135 0.153,0.131 -0.066,-0.069 c 0.173,0.123 0.129,-0.047 0.319,0.097 0.042,-0.015 -0.048,-0.155 -0.039,-0.199 l -0.019,-0.006 c -0.057,-0.113 0.042,-0.108 0.17,-0.047 l -0.034,-0.028 c 0.005,-0.029 0.068,-0.053 0.178,0.002 -0.071,-0.149 -0.55,-0.52 -0.315,-0.405 0.049,-0.044 0.342,0.168 0.42,0.273 -0.022,-0.177 0.311,-0.059 0.151,-0.347 l 0.162,0.088 c 0.055,-0.181 0.419,-0.113 0.216,-0.478 -0.095,-0.019 -0.152,-0.132 -0.236,-0.208 0.161,0.089 -0.105,-0.161 0.134,0.033 0.132,0.123 0.2,0.179 0.222,0.264 0.142,-0.012 0.246,-0.128 0.158,-0.283 0.044,0.077 0.099,0.097 0.155,0.117 -0.221,-0.188 -0.202,-0.273 -0.088,-0.247 l 0.137,0.11 -0.111,-0.148 c 0.057,0.021 0.291,0.228 0.204,0.073 l -0.129,-0.138 c 0.147,0.052 0.384,0.153 0.316,0.005 l -0.156,-0.211 c 0.04,-0.002 0.185,0.068 0.209,0.153 -0.042,-0.186 -0.01,-0.251 -0.153,-0.425 0.531,0.219 0.73,0.029 0.848,-0.161 l -0.102,-0.083 c -0.053,-0.126 0.192,0.13 0.151,0.039 -0.106,-0.07 -0.174,-0.216 -0.319,-0.284 -0.047,-0.156 0.243,0.071 0.324,0.07 0.135,0.109 -0.112,-0.041 0.058,0.097 0.053,0.035 -0.022,-0.177 0.182,-0.012 -0.062,-0.084 -0.218,-0.2 -0.305,-0.263 l 0.13,0.047 c -0.185,-0.251 -0.504,-0.257 -0.74,-0.558 l 0.062,-0.009 c -0.173,-0.215 -0.314,-0.111 -0.305,-0.263 0.132,0.048 0.444,0.267 0.5,0.379 0.125,-0.033 0.498,0.379 0.559,0.277 -0.093,-0.126 -0.089,0.045 -0.235,-0.115 -0.121,-0.182 0.161,-0.003 0.139,-0.089 0.037,0.105 0.264,0.248 0.324,0.254 -0.054,-0.126 -0.211,-0.136 -0.175,-0.217 0.121,0.091 0.258,0.108 0.292,0.229 0.276,0.206 -0.013,-0.128 0.215,0.014 -0.162,-0.18 -0.473,-0.306 -0.501,-0.456 0.163,0.166 0.311,0.126 0.535,0.392 -0.025,-0.072 -0.159,-0.196 -0.283,-0.272 -0.072,-0.133 0.399,0.19 0.067,-0.13 l 0.189,0.145 -0.153,-0.225 c 0.027,-0.036 0.337,0.106 0.067,-0.13 0.037,0.014 0.095,-0.074 0.252,0.121 0.07,0.148 -0.184,-0.065 0.042,0.185 -0.173,-0.217 0.089,-0.046 0.181,-0.013 l -0.099,-0.096 c 0.056,0.019 0.067,-0.039 0.188,0.051 l -0.148,-0.146 0.173,0.124 c 0.138,0.003 -0.263,-0.264 -0.158,-0.288 l -0.166,-0.059 c 0.035,0.012 -0.092,-0.141 -0.015,-0.129 l 0.468,0.336 c 0.095,0.02 -0.148,-0.161 0.032,-0.065 l -0.215,-0.107 c -0.054,-0.036 -0.209,-0.245 -0.161,-0.29 0.078,0.013 0.329,0.15 0.363,0.269 0.025,-0.022 -0.032,-0.135 -0.155,-0.209 0.101,-0.012 0.148,0.146 0.28,0.177 -0.077,-0.106 -0.159,-0.288 -0.264,-0.449 l -0.286,-0.165 0.027,-0.037 c -0.231,-0.128 -0.126,-0.152 -0.351,-0.309 -0.012,-0.051 0.082,-0.017 0.155,0.009 0.265,0.357 0.511,0.321 0.791,0.605 0.163,-0.018 -0.67,-0.701 -0.122,-0.382 0.064,0.085 0.33,0.241 0.193,0.222 0.018,-0.085 0.332,0.227 0.269,0.051 -0.167,-0.06 -0.253,-0.322 -0.494,-0.408 0.103,0.083 0.038,0.106 0.002,0.093 -0.093,-0.125 -0.304,-0.262 -0.251,-0.32 0.06,-0.011 0.11,-0.055 0.258,0.091 0.168,0.153 -0.067,0.038 0.125,0.169 0.122,-0.019 -0.125,-0.261 0.202,-0.021 -0.064,0.023 0.101,0.191 0.218,0.294 l 0.118,0.011 -0.122,-0.09 c -0.007,-0.156 0.227,0.157 0.269,0.05 l -0.189,-0.237 c -0.21,-0.153 -0.02,0.194 -0.32,-0.1 0.035,-0.064 0.209,0.061 0.173,-0.062 l -0.096,-0.018 c 0.007,-0.028 -0.391,-0.417 -0.081,-0.276 0.129,0.046 0.119,0.089 0.237,0.194 0.111,-0.054 0.253,0.028 0.32,-0.01 -0.238,-0.192 0.064,-0.116 -0.223,-0.265 0.109,0.148 -0.014,0.258 -0.258,0.093 -0.243,-0.272 -0.021,0.101 -0.311,-0.126 0.054,-0.074 -0.215,-0.308 -0.379,-0.474 0.003,-0.031 0.094,0.017 0.131,0.03 0.171,0.139 0.147,0.161 0.315,0.314 0.022,-0.116 0.179,-0.107 0.377,-0.005 -0.059,-0.098 -0.23,-0.236 -0.274,-0.221 0.13,-0.046 0.194,-0.162 0.22,-0.292 0.219,0.295 0.149,-0.039 0.337,0.198 0.02,0.1 0.176,0.31 0.318,0.392 0.008,-0.044 -0.118,-0.105 -0.165,-0.167 0.179,0.093 -0.183,-0.267 0.079,-0.096 -0.16,0.005 -0.34,-0.276 -0.564,-0.448 0.171,0.046 -0.151,-0.131 -0.099,-0.19 0.169,0.045 0.326,0.055 0.43,0.03 -0.125,-0.26 0.183,-0.212 0.257,-0.279 -0.072,-0.133 -0.332,-0.319 -0.337,-0.397 0.049,-0.045 0.224,0.264 0.181,0.095 l -0.054,-0.035 c 0.074,0.027 -0.042,-0.277 0.317,0.006 l -0.276,-0.208 c -0.012,-0.034 0.059,0.006 0.096,0.02 l -0.22,-0.187 c -0.137,-0.203 0.112,-0.069 0.163,-0.111 l 0.124,0.167 c 0.193,0.023 0.093,-0.167 0.218,-0.2 l -0.152,-0.131 0.133,0.032 c -0.155,-0.118 -0.209,-0.244 -0.065,-0.162 l -0.476,-0.201 c 0.057,0.113 0.213,0.123 0.341,0.276 0.111,0.133 0.004,0.171 -0.15,0.055 0.009,-0.043 0.044,-0.015 0.117,0.011 -0.198,-0.195 -0.23,-0.145 -0.387,-0.247 0.022,-0.007 -0.022,-0.085 0.046,-0.029 -0.127,-0.061 -0.169,-0.046 -0.219,-10e-4 0.112,0.039 0.114,0.133 0.183,0.173 -0.186,-0.159 -0.283,-0.163 -0.286,-0.057 0.172,0.233 -0.238,-0.007 -0.242,0.116 0.211,0.136 0.391,0.232 0.503,0.256 0.053,0.126 -0.048,0.044 0.005,0.171 -0.157,-0.101 -0.381,-0.274 -0.516,-0.292 l 0.134,0.125 c -0.118,-0.01 -0.32,-0.191 -0.339,-0.09 -0.035,0.173 -0.14,0.29 -0.201,0.392 l 0.133,0.124 c -0.334,-0.212 -0.251,0.065 -0.437,0.014 0.032,0.227 -0.345,0.124 -0.16,0.39 -0.28,0.101 -0.534,0.18 -0.664,0.426 l 0.228,0.144 c -0.178,-0.095 0.093,0.125 0.031,0.134 -0.121,-0.182 -0.249,-0.134 -0.392,-0.217 0.074,0.227 -0.198,0.192 -0.407,0.148 l 0.133,0.125 c -0.328,-0.148 -0.189,0.149 -0.237,0.286 0.046,0.062 0.158,0.195 0.116,0.21 -0.268,-0.141 -0.278,-0.099 -0.487,-0.142 -0.053,0.058 -0.083,0.201 -0.05,0.337 -0.505,-0.057 -0.508,0.343 -0.897,0.405 l 0.145,0.159 c -0.539,-0.085 -0.471,0.465 -0.815,0.496 l 0.289,0.227 c 0.031,0.134 -0.192,0.07 -0.372,-0.118 0.03,0.134 -0.265,0.03 -0.074,0.268 -0.003,0.106 -0.193,-0.039 -0.275,-0.021 -0.005,0.213 -0.068,0.238 -0.222,0.306 l 0.009,-0.044 c 0.072,0.042 0.189,0.145 0.181,0.189 -0.115,-0.027 -0.067,0.222 -0.356,-0.112 0.08,0.291 -0.408,0.148 -0.259,0.494 -0.08,-0.09 -0.124,-0.076 -0.196,-0.117 -0.099,0.104 -0.018,0.379 -0.247,0.33 0.03,0.056 0.177,0.108 0.147,0.16 l -0.196,-0.117 c -0.321,0.025 -0.142,0.505 -0.326,0.624 -0.424,0.126 -0.597,0.498 -0.867,0.74 l 0.068,0.055 c -0.33,-0.133 0.068,0.441 -0.373,0.176 0.043,0.076 -0.043,0.108 0.098,0.205 -0.241,-0.087 -0.014,0.349 -0.331,0.252 l 0.059,0.005 c 0.051,0.234 -0.229,0.151 -0.197,0.378 l 0.146,0.066 c 0.087,0.156 -0.367,-0.145 -0.072,0.161 -0.025,0.021 -0.175,-0.125 -0.152,-0.131 -0.094,0.351 -0.525,0.428 -0.823,0.616 0.028,0.35 0.522,0.487 0.159,0.418 0.051,0.066 -0.128,-0.099 -0.063,-0.039 -0.138,-0.024 0.275,0.401 0.076,0.292 -0.18,-0.19 -0.132,-0.072 -0.25,-0.176 0.026,0.223 0.181,0.4 -0.043,0.357 l 0.107,0.084 c -0.379,-0.156 -0.33,0.101 -0.74,-0.111 -0.563,0.508 -1.229,0.883 -1.759,1.397 -0.421,0.599 -1.045,0.996 -1.359,1.705 0.152,0.369 0.137,0.372 -0.099,0.416 l 0.099,0.08 c -0.227,-0.191 -0.11,0.08 -0.332,-0.094 -0.142,0.24 -0.369,0.374 -0.558,0.582 0.054,-0.012 0.248,0.132 0.198,0.158 l -0.177,-0.084 0.055,0.062 c -0.056,-0.002 -0.191,-0.07 -0.237,-0.161 -0.66,0.356 -0.682,1.267 -1.196,1.735 -0.018,0.204 -0.257,0.304 -0.421,0.396 -0.06,0.656 -0.14,1.223 -0.703,1.44 0,0 0.616,0.456 0.894,0.408"
       style="fill:#4e2e22;fill-opacity:1;fill-rule:nonzero;stroke:none;stroke-width:0.1"
       id="path86" /><path
       d="m 695.546,330.821 c 0.098,0.114 0.116,0.213 0.296,0.307 l -0.296,-0.307"
       style="fill:#4e2e22;fill-opacity:1;fill-rule:nonzero;stroke:none;stroke-width:0.1"
       id="path88" /><path
       d="m 695.584,333.058 c -0.034,-0.029 0.029,0.056 0.044,0.077 0.021,-0.008 0.127,0.06 0.08,-0.002 l -0.124,-0.075"
       style="fill:#4e2e22;fill-opacity:1;fill-rule:nonzero;stroke:none;stroke-width:0.1"
       id="path90" /><path
       d="m 695.37,333.429 c 0.103,0.083 0.24,0.086 0.287,0.056 l -0.287,-0.056"
       style="fill:#4e2e22;fill-opacity:1;fill-rule:nonzero;stroke:none;stroke-width:0.1"
       id="path92" /><path
       d="m 695.514,334.081 c 0.059,0.099 0.111,0.133 0.138,0.097 l -0.138,-0.097"
       style="fill:#4e2e22;fill-opacity:1;fill-rule:nonzero;stroke:none;stroke-width:0.1"
       id="path94" /><path
       d="m 695.272,333.902 c -0.024,0.023 0.023,0.086 0.069,0.149 -0.084,-0.077 0.102,-0.01 -0.069,-0.149"
       style="fill:#4e2e22;fill-opacity:1;fill-rule:nonzero;stroke:none;stroke-width:0.1"
       id="path96" /><path
       d="m 694.991,334.79 c -0.021,0.008 -0.133,-0.032 -0.036,0.079 -0.062,-0.083 0.19,0.037 0.036,-0.079"
       style="fill:#4e2e22;fill-opacity:1;fill-rule:nonzero;stroke:none;stroke-width:0.1"
       id="path98" /><path
       d="m 694.58,334.951 -0.024,0.023 c 0.028,0.057 0.116,0.102 0.138,0.095 l -0.114,-0.118"
       style="fill:#4e2e22;fill-opacity:1;fill-rule:nonzero;stroke:none;stroke-width:0.1"
       id="path100" /><path
       d="m 689.401,339.954 0.078,0.012 -0.102,-0.082 z"
       style="fill:#4e2e22;fill-opacity:1;fill-rule:nonzero;stroke:none;stroke-width:0.1"
       id="path102" /><path
       d="m 687.299,342.295 c -0.09,-0.024 0.072,0.104 0.082,0.123 0.036,-0.02 -0.13,-0.098 -0.082,-0.123"
       style="fill:#4e2e22;fill-opacity:1;fill-rule:nonzero;stroke:none;stroke-width:0.1"
       id="path104" /><path
       d="m 685.68,343.123 0.01,-0.008 -0.204,-0.176 z"
       style="fill:#4e2e22;fill-opacity:1;fill-rule:nonzero;stroke:none;stroke-width:0.1"
       id="path106" /><path
       d="m 643.5,297.927 c 0,0 18.5,6.823 32.363,2 0,0 6.137,-16.427 -12.681,-16.427 -19.432,0 -19.682,14.427 -19.682,14.427"
       style="fill:#4e2e22;fill-opacity:1;fill-rule:nonzero;stroke:none;stroke-width:0.1"
       id="path108" /><path
       d="m 774.875,472.611 c 1.036,-0.464 2.031,-1.054 2.98,-1.773 1.766,-1.335 2.968,-2.883 3.611,-4.65 0.638,-1.763 0.446,-3.325 -0.58,-4.683 -0.615,-0.816 -1.436,-1.476 -2.459,-1.984 -1.264,-0.539 -2.813,-0.65 -4.649,-0.327 -1.838,0.324 -3.47,1.022 -4.896,2.1 -1.361,1.028 -2.232,2.273 -2.617,3.739 -0.386,1.466 -0.066,2.876 0.961,4.236 0.873,1.153 2.067,2.064 3.586,2.732 1.517,0.666 2.871,0.871 4.063,0.61 z m 12.154,-0.864 c -1.041,0.039 -2.196,0.273 -3.471,0.703 -1.277,0.429 -2.458,1.058 -3.542,1.878 -0.749,0.565 -1.389,1.234 -1.922,2.012 -0.533,0.776 -0.834,1.617 -0.897,2.518 0.65,1.003 1.258,1.877 1.823,2.624 0.564,0.747 1.079,1.426 1.541,2.039 0.409,0.541 0.743,0.983 1,1.323 0.256,0.34 0.516,0.651 0.782,0.928 0.264,0.281 0.528,0.563 0.796,0.842 0.264,0.28 0.634,0.664 1.116,1.157 0.988,1.172 2.296,1.946 3.915,2.322 1.618,0.378 3.312,0.642 5.085,0.799 1.77,0.154 3.474,0.359 5.11,0.619 1.634,0.257 2.931,0.879 3.889,1.863 0.103,0.134 0.247,0.293 0.435,0.47 0.188,0.178 0.333,0.334 0.438,0.47 0.616,0.816 1.163,1.683 1.644,2.599 0.478,0.919 0.661,1.901 0.546,2.948 -0.114,1.047 -0.627,2.208 -1.532,3.479 -0.907,1.27 -2.446,2.729 -4.618,4.371 -0.951,0.721 -1.845,1.235 -2.677,1.543 -1.413,0.533 -3.062,0.394 -4.956,-0.416 -1.892,-0.81 -3.481,-2.065 -4.763,-3.761 -0.413,-0.545 -0.687,-0.976 -0.824,-1.301 -0.634,-1.119 -0.876,-2.218 -0.726,-3.291 0.148,-1.073 0.37,-2.121 0.664,-3.143 0.295,-1.023 0.507,-2.011 0.64,-2.965 0.132,-0.955 -0.108,-1.838 -0.724,-2.654 -1.369,-1.525 -2.932,-2.185 -4.695,-1.974 -1.76,0.21 -3.389,0.883 -4.881,2.011 -1.02,0.769 -1.911,1.707 -2.672,2.819 -1.474,2.286 -1.843,5.154 -1.105,8.598 0.737,3.445 2.261,6.695 4.57,9.751 1.54,2.038 3.359,3.808 5.461,5.317 1.842,1.168 3.792,1.879 5.855,2.136 2.061,0.257 4.159,0.138 6.295,-0.356 2.134,-0.491 4.262,-1.276 6.388,-2.348 2.123,-1.073 4.17,-2.35 6.14,-3.841 l 0.51,-0.385 c 5.161,-3.9 8.184,-8.265 9.068,-13.096 0.883,-4.83 -0.958,-10.268 -5.526,-16.312 -0.771,-1.018 -2.105,-1.797 -4.006,-2.334 -1.902,-0.538 -3.872,-0.994 -5.918,-1.369 -2.043,-0.375 -3.919,-0.667 -5.622,-0.874 -1.704,-0.206 -2.692,-0.42 -2.965,-0.639 -0.855,-0.849 -1.343,-1.282 -1.46,-1.298 -0.12,-0.016 -0.307,-0.196 -0.564,-0.534 -0.41,-0.545 -0.763,-1.078 -1.053,-1.604 -0.293,-0.528 -0.849,-1.335 -1.669,-2.421 l -0.923,-1.223"
       style="fill:#4e2e22;fill-opacity:1;fill-rule:nonzero;stroke:none;stroke-width:0.1"
       id="path110" /><path
       d="m 720.8,485.873 c 1.224,0.464 2.518,0.789 3.88,0.975 2.53,0.344 4.774,0.054 6.735,-0.868 1.958,-0.923 3.069,-2.358 3.335,-4.303 0.159,-1.168 0.026,-2.376 -0.398,-3.623 -0.595,-1.469 -1.773,-2.82 -3.537,-4.049 -1.766,-1.229 -3.669,-1.986 -5.714,-2.264 -1.948,-0.264 -3.673,0.045 -5.181,0.931 -1.508,0.884 -2.395,2.298 -2.658,4.246 -0.226,1.653 0.009,3.371 0.71,5.151 0.7,1.78 1.641,3.048 2.828,3.804 z m 10.643,9.179 c -0.88,-0.815 -2.016,-1.564 -3.41,-2.248 -1.393,-0.687 -2.871,-1.133 -4.424,-1.346 -1.073,-0.146 -2.141,-0.118 -3.21,0.085 -1.067,0.2 -1.997,0.644 -2.781,1.331 -0.285,1.348 -0.499,2.557 -0.643,3.629 -0.146,1.069 -0.279,2.044 -0.399,2.92 -0.104,0.776 -0.19,1.409 -0.258,1.896 -0.064,0.487 -0.105,0.952 -0.114,1.397 -0.013,0.444 -0.025,0.888 -0.033,1.334 -0.011,0.444 -0.022,1.061 -0.029,1.854 -0.144,1.763 0.295,3.459 1.313,5.085 1.018,1.625 2.189,3.219 3.511,4.79 1.324,1.565 2.55,3.118 3.679,4.663 1.126,1.538 1.68,3.101 1.664,4.686 -0.026,0.193 -0.037,0.44 -0.025,0.739 0.009,0.298 10e-4,0.544 -0.025,0.74 -0.16,1.168 -0.418,2.322 -0.771,3.463 -0.355,1.141 -1.005,2.094 -1.949,2.857 -0.945,0.763 -2.31,1.296 -4.083,1.598 -1.777,0.303 -4.221,0.245 -7.334,-0.178 -1.364,-0.186 -2.513,-0.491 -3.444,-0.915 -1.59,-0.714 -2.826,-2.169 -3.716,-4.371 -0.89,-2.203 -1.169,-4.521 -0.837,-6.953 0.105,-0.78 0.231,-1.356 0.383,-1.733 0.392,-1.432 1.088,-2.527 2.083,-3.283 0.995,-0.758 2.028,-1.434 3.101,-2.031 1.072,-0.598 2.05,-1.233 2.934,-1.905 0.885,-0.675 1.407,-1.593 1.566,-2.76 0.121,-2.362 -0.622,-4.173 -2.234,-5.434 -1.612,-1.26 -3.49,-2.035 -5.63,-2.326 -1.459,-0.199 -2.95,-0.156 -4.477,0.134 -3.066,0.672 -5.701,2.718 -7.898,6.135 -2.2,3.417 -3.597,7.315 -4.193,11.694 -0.398,2.92 -0.35,5.848 0.143,8.79 0.558,2.455 1.575,4.624 3.053,6.511 1.477,1.885 3.29,3.495 5.44,4.829 2.144,1.333 4.524,2.423 7.133,3.275 2.609,0.85 5.325,1.469 8.149,1.851 l 0.728,0.101 c 7.396,1.007 13.419,-0.106 18.072,-3.338 4.651,-3.234 7.568,-9.181 8.746,-17.84 0.198,-1.459 -0.261,-3.184 -1.378,-5.168 -1.117,-1.987 -2.36,-3.963 -3.728,-5.933 -1.367,-1.969 -2.664,-3.732 -3.889,-5.286 -1.224,-1.557 -1.861,-2.535 -1.905,-2.935 -0.01,-1.391 -0.056,-2.141 -0.138,-2.25 -0.085,-0.111 -0.093,-0.41 -0.027,-0.896 0.108,-0.78 0.253,-1.502 0.444,-2.168 0.187,-0.67 0.39,-1.782 0.602,-3.338 l 0.238,-1.752"
       style="fill:#4e2e22;fill-opacity:1;fill-rule:nonzero;stroke:none;stroke-width:0.1"
       id="path112" /><g
       aria-label="Phase du projet ?"
       transform="scale(1,-1)"
       id="text989"
       style="font-style:normal;font-weight:normal;font-size:30px;line-height:1.25;font-family:sans-serif;letter-spacing:0px;word-spacing:0px;fill:#757575;fill-opacity:1;stroke:none;stroke-width:0.75"><path
         d="m 233.36903,-681.12701 v 8.21777 h 3.72071 q 2.06543,0 3.19336,-1.06934 1.12793,-1.06933 1.12793,-3.04687 0,-1.96289 -1.12793,-3.03223 -1.12793,-1.06933 -3.19336,-1.06933 z m -2.95898,-2.43164 h 6.67969 q 3.67675,0 5.55175,1.66992 1.88965,1.65527 1.88965,4.86328 0,3.2373 -1.88965,4.89258 -1.875,1.65527 -5.55175,1.65527 h -3.72071 v 8.78906 h -2.95898 z"
         style="fill:#757575;stroke-width:0.75"
         id="path1055" /><path
         d="m 262.02138,-671.59088 v 9.90234 h -2.69531 v -9.81445 q 0,-2.3291 -0.90821,-3.48633 -0.9082,-1.15723 -2.72461,-1.15723 -2.18261,0 -3.44238,1.39161 -1.25977,1.3916 -1.25977,3.79394 v 9.27246 h -2.70996 v -22.79297 h 2.70996 v 8.93555 q 0.9668,-1.47949 2.27051,-2.21191 1.31836,-0.73243 3.03223,-0.73243 2.82715,0 4.27734,1.75782 1.4502,1.74316 1.4502,5.1416 z"
         style="fill:#757575;stroke-width:0.75"
         id="path1057" /><path
         d="m 274.85341,-669.93561 q -3.2666,0 -4.52637,0.74707 -1.25976,0.74707 -1.25976,2.54883 0,1.43555 0.9375,2.28516 0.95214,0.83496 2.57812,0.83496 2.24121,0 3.58887,-1.58203 1.3623,-1.59668 1.3623,-4.2334 v -0.60059 z m 5.37598,-1.11328 v 9.36035 h -2.69532 v -2.49023 q -0.92285,1.49414 -2.2998,2.21191 -1.37695,0.70313 -3.36914,0.70313 -2.51953,0 -4.01367,-1.40625 -1.4795,-1.4209 -1.4795,-3.79395 0,-2.76855 1.84571,-4.1748 1.86035,-1.40625 5.53711,-1.40625 h 3.77929 v -0.26367 q 0,-1.86036 -1.23047,-2.8711 -1.21582,-1.02539 -3.42773,-1.02539 -1.40625,0 -2.73926,0.33691 -1.33301,0.33692 -2.56347,1.01075 v -2.49024 q 1.47949,-0.57129 2.87109,-0.84961 1.3916,-0.29297 2.70996,-0.29297 3.55957,0 5.31738,1.84571 1.75782,1.8457 1.75782,5.5957 z"
         style="fill:#757575;stroke-width:0.75"
         id="path1059" /><path
         d="m 296.24013,-677.61139 v 2.54883 q -1.14258,-0.58594 -2.37305,-0.87891 -1.23047,-0.29297 -2.54883,-0.29297 -2.00683,0 -3.01758,0.61524 -0.99609,0.61523 -0.99609,1.8457 0,0.9375 0.71777,1.47949 0.71778,0.52735 2.88575,1.01075 l 0.92285,0.20507 q 2.87109,0.61524 4.07226,1.74317 1.21582,1.11328 1.21582,3.12012 0,2.28515 -1.8164,3.61816 -1.80176,1.33301 -4.96582,1.33301 -1.31836,0 -2.75391,-0.26367 -1.4209,-0.24903 -3.00293,-0.76172 v -2.78321 q 1.49414,0.77637 2.94434,1.17188 1.45019,0.38086 2.87109,0.38086 1.9043,0 2.92969,-0.64453 1.02539,-0.65918 1.02539,-1.84571 0,-1.09863 -0.74707,-1.68457 -0.73242,-0.58593 -3.23731,-1.12793 l -0.9375,-0.21972 q -2.50488,-0.52735 -3.61816,-1.61133 -1.11328,-1.09863 -1.11328,-3.00293 0,-2.31445 1.64062,-3.57422 1.64063,-1.25977 4.65821,-1.25977 1.49414,0 2.8125,0.21973 1.31836,0.21973 2.43164,0.65918 z"
         style="fill:#757575;stroke-width:0.75"
         id="path1061" /><path
         d="m 315.44423,-670.56549 v 1.31836 h -12.39258 q 0.17578,2.7832 1.66992,4.24805 1.50879,1.45019 4.18946,1.45019 1.55273,0 3.00293,-0.38086 1.46484,-0.38086 2.90039,-1.14258 v 2.54883 q -1.4502,0.61524 -2.97364,0.9375 -1.52343,0.32227 -3.09082,0.32227 -3.92578,0 -6.22558,-2.28516 -2.28516,-2.28516 -2.28516,-6.18164 0,-4.02832 2.16797,-6.38672 2.18262,-2.37305 5.87402,-2.37305 3.31055,0 5.2295,2.13868 1.93359,2.12402 1.93359,5.78613 z m -2.69531,-0.79102 q -0.0293,-2.21191 -1.24512,-3.53027 -1.20117,-1.31836 -3.19336,-1.31836 -2.25586,0 -3.61816,1.27441 -1.34766,1.27442 -1.55274,3.58887 z"
         style="fill:#757575;stroke-width:0.75"
         id="path1063" /><path
         d="m 340.20009,-675.60455 v -8.87696 h 2.69531 v 22.79297 h -2.69531 v -2.46094 q -0.84961,1.46485 -2.15332,2.18262 -1.28906,0.70313 -3.10547,0.70313 -2.97363,0 -4.84863,-2.37305 -1.86035,-2.37305 -1.86035,-6.24023 0,-3.86719 1.86035,-6.24024 1.875,-2.37305 4.84863,-2.37305 1.81641,0 3.10547,0.71778 1.30371,0.70312 2.15332,2.16797 z m -9.18457,5.72754 q 0,2.97363 1.21582,4.67285 1.23047,1.68457 3.36914,1.68457 2.13867,0 3.36914,-1.68457 1.23047,-1.69922 1.23047,-4.67285 0,-2.97364 -1.23047,-4.65821 -1.23047,-1.69922 -3.36914,-1.69922 -2.13867,0 -3.36914,1.69922 -1.21582,1.68457 -1.21582,4.65821 z"
         style="fill:#757575;stroke-width:0.75"
         id="path1065" /><path
         d="m 348.16884,-668.16315 v -9.93164 h 2.69531 v 9.8291 q 0,2.32911 0.9082,3.50098 0.90821,1.15723 2.72461,1.15723 2.18262,0 3.44239,-1.3916 1.27441,-1.39161 1.27441,-3.79395 v -9.30176 h 2.69531 v 16.40625 h -2.69531 v -2.51953 q -0.98144,1.49414 -2.28516,2.22656 -1.28906,0.71778 -3.00293,0.71778 -2.82714,0 -4.29199,-1.75782 -1.46484,-1.75781 -1.46484,-5.1416 z m 6.78223,-10.32715 z"
         style="fill:#757575;stroke-width:0.75"
         id="path1067" /><path
         d="m 379.60439,-664.14948 v 8.70118 h -2.70997 v -22.64649 h 2.70997 v 2.49024 q 0.8496,-1.46485 2.13867,-2.16797 1.30371,-0.71778 3.10547,-0.71778 2.98828,0 4.84863,2.37305 1.875,2.37305 1.875,6.24024 0,3.86718 -1.875,6.24023 -1.86035,2.37305 -4.84863,2.37305 -1.80176,0 -3.10547,-0.70313 -1.28907,-0.71777 -2.13867,-2.18262 z m 9.16992,-5.72753 q 0,-2.97364 -1.23047,-4.65821 -1.21582,-1.69922 -3.35449,-1.69922 -2.13868,0 -3.36914,1.69922 -1.21582,1.68457 -1.21582,4.65821 0,2.97363 1.21582,4.67285 1.23046,1.68457 3.36914,1.68457 2.13867,0 3.35449,-1.68457 1.23047,-1.69922 1.23047,-4.67285 z"
         style="fill:#757575;stroke-width:0.75"
         id="path1069" /><path
         d="m 405.54677,-675.57526 q -0.4541,-0.26367 -0.9961,-0.38086 -0.52734,-0.13183 -1.17187,-0.13183 -2.28516,0 -3.51563,1.49414 -1.21582,1.47949 -1.21582,4.26269 v 8.64258 h -2.70996 v -16.40625 h 2.70996 v 2.54883 q 0.84961,-1.49414 2.21192,-2.21191 1.3623,-0.73243 3.31055,-0.73243 0.27832,0 0.61523,0.0439 0.33691,0.0293 0.74707,0.10254 z"
         style="fill:#757575;stroke-width:0.75"
         id="path1071" /><path
         d="m 414.07216,-676.20514 q -2.16797,0 -3.42774,1.69922 -1.25976,1.68457 -1.25976,4.62891 0,2.94433 1.24512,4.64355 1.25976,1.68457 3.44238,1.68457 2.15332,0 3.41308,-1.69922 1.25977,-1.69922 1.25977,-4.6289 0,-2.91504 -1.25977,-4.61426 -1.25976,-1.71387 -3.41308,-1.71387 z m 0,-2.28516 q 3.51562,0 5.52246,2.28516 2.00684,2.28516 2.00684,6.32813 0,4.02832 -2.00684,6.32812 -2.00684,2.28516 -5.52246,2.28516 -3.53027,0 -5.53711,-2.28516 -1.99219,-2.2998 -1.99219,-6.32812 0,-4.04297 1.99219,-6.32813 2.00684,-2.28516 5.53711,-2.28516 z"
         style="fill:#757575;stroke-width:0.75"
         id="path1073" /><path
         d="m 426.06923,-678.09479 h 2.69531 v 16.69922 q 0,3.13477 -1.20117,4.54102 -1.18652,1.40625 -3.83789,1.40625 h -1.02539 v -2.28516 h 0.71777 q 1.53809,0 2.09473,-0.71777 0.55664,-0.70313 0.55664,-2.94434 z m 0,-6.38672 h 2.69531 v 3.41309 h -2.69531 z"
         style="fill:#757575;stroke-width:0.75"
         id="path1075" /><path
         d="m 448.43739,-670.56549 v 1.31836 h -12.39257 q 0.17578,2.7832 1.66992,4.24805 1.50879,1.45019 4.18945,1.45019 1.55273,0 3.00293,-0.38086 1.46484,-0.38086 2.90039,-1.14258 v 2.54883 q -1.45019,0.61524 -2.97363,0.9375 -1.52344,0.32227 -3.09082,0.32227 -3.92578,0 -6.22559,-2.28516 -2.28515,-2.28516 -2.28515,-6.18164 0,-4.02832 2.16796,-6.38672 2.18262,-2.37305 5.87403,-2.37305 3.31054,0 5.22949,2.13868 1.93359,2.12402 1.93359,5.78613 z m -2.69531,-0.79102 q -0.0293,-2.21191 -1.24512,-3.53027 -1.20117,-1.31836 -3.19336,-1.31836 -2.25586,0 -3.61816,1.27441 -1.34766,1.27442 -1.55273,3.58887 z"
         style="fill:#757575;stroke-width:0.75"
         id="path1077" /><path
         d="m 455.52724,-682.75299 v 4.6582 h 5.55175 v 2.09473 h -5.55175 v 8.90625 q 0,2.00683 0.54199,2.57812 0.55664,0.57129 2.24121,0.57129 h 2.76855 v 2.25586 h -2.76855 q -3.12012,0 -4.30664,-1.15722 -1.18652,-1.17188 -1.18652,-4.24805 v -8.90625 h -1.97754 v -2.09473 h 1.97754 v -4.6582 z"
         style="fill:#757575;stroke-width:0.75"
         id="path1079" /><path
         d="m 477.06044,-665.40924 h 2.97363 v 3.7207 h -2.97363 z m 2.88574,-2.15332 h -2.79785 v -2.25586 q 0,-1.47949 0.41016,-2.43164 0.41015,-0.95215 1.72851,-2.21192 l 1.31836,-1.30371 q 0.83496,-0.77636 1.20117,-1.46484 0.38086,-0.68848 0.38086,-1.40625 0,-1.30371 -0.96679,-2.10937 -0.95215,-0.80567 -2.53418,-0.80567 -1.15723,0 -2.47559,0.5127 -1.30371,0.51269 -2.72461,1.49414 v -2.75391 q 1.37695,-0.83496 2.7832,-1.24512 1.4209,-0.41015 2.92969,-0.41015 2.69531,0 4.32129,1.4209 1.64063,1.42089 1.64063,3.75 0,1.11328 -0.52735,2.12402 -0.52734,0.99609 -1.8457,2.25586 l -1.28906,1.25976 q -0.68848,0.68848 -0.98145,1.08399 -0.27832,0.38086 -0.39551,0.74707 -0.0879,0.30762 -0.13183,0.74707 -0.0439,0.43945 -0.0439,1.20117 z"
         style="fill:#757575;stroke-width:0.75"
         id="path1081" /></g><g
       aria-label="Nouveau collaborateur ?"
       transform="matrix(0.99944746,0.03323819,0.03323819,-0.99944746,0,0)"
       id="text989-1"
       style="font-style:normal;font-weight:normal;font-size:30px;line-height:1.25;font-family:sans-serif;letter-spacing:0px;word-spacing:0px;fill:#757575;fill-opacity:1;stroke:none;stroke-width:0.75"><path
         d="m 252.18806,-519.51135 h 3.98438 l 9.69727,18.2959 v -18.2959 h 2.87109 v 21.87011 h -3.98438 l -9.69726,-18.29589 v 18.29589 h -2.8711 z"
         style="fill:#757575;stroke-width:0.75"
         id="path1084" /><path
         d="m 280.86971,-512.15784 q -2.16797,0 -3.42774,1.69922 -1.25976,1.68457 -1.25976,4.62891 0,2.94433 1.24511,4.64355 1.25977,1.68457 3.44239,1.68457 2.15332,0 3.41308,-1.69922 1.25977,-1.69921 1.25977,-4.6289 0,-2.91504 -1.25977,-4.61426 -1.25976,-1.71387 -3.41308,-1.71387 z m 0,-2.28515 q 3.51562,0 5.52246,2.28515 2.00683,2.28516 2.00683,6.32813 0,4.02832 -2.00683,6.32812 -2.00684,2.28516 -5.52246,2.28516 -3.53028,0 -5.53711,-2.28516 -1.99219,-2.2998 -1.99219,-6.32812 0,-4.04297 1.99219,-6.32813 2.00683,-2.28515 5.53711,-2.28515 z"
         style="fill:#757575;stroke-width:0.75"
         id="path1086" /><path
         d="m 292.58846,-504.11584 v -9.93165 h 2.69531 v 9.82911 q 0,2.3291 0.9082,3.50097 0.9082,1.15723 2.72461,1.15723 2.18262,0 3.44238,-1.3916 1.27442,-1.3916 1.27442,-3.79395 v -9.30176 h 2.69531 v 16.40625 h -2.69531 v -2.51953 q -0.98145,1.49414 -2.28516,2.22657 -1.28906,0.71777 -3.00293,0.71777 -2.82715,0 -4.29199,-1.75781 -1.46484,-1.75782 -1.46484,-5.1416 z m 6.78222,-10.32715 z"
         style="fill:#757575;stroke-width:0.75"
         id="path1088" /><path
         d="m 309.94685,-514.04749 h 2.85645 l 5.12695,13.76954 5.12696,-13.76954 h 2.85644 l -6.15234,16.40625 h -3.66211 z"
         style="fill:#757575;stroke-width:0.75"
         id="path1090" /><path
         d="m 343.66756,-506.51819 v 1.31836 h -12.39258 q 0.17578,2.7832 1.66992,4.24805 1.50879,1.45019 4.18945,1.45019 1.55274,0 3.00293,-0.38086 1.46485,-0.38086 2.90039,-1.14257 v 2.54882 q -1.45019,0.61524 -2.97363,0.9375 -1.52344,0.32227 -3.09082,0.32227 -3.92578,0 -6.22559,-2.28516 -2.28515,-2.28515 -2.28515,-6.18164 0,-4.02832 2.16797,-6.38672 2.18261,-2.37304 5.87402,-2.37304 3.31055,0 5.22949,2.13867 1.9336,2.12402 1.9336,5.78613 z m -2.69532,-0.79101 q -0.0293,-2.21192 -1.24511,-3.53028 -1.20117,-1.31836 -3.19336,-1.31836 -2.25586,0 -3.61817,1.27442 -1.34765,1.27441 -1.55273,3.58886 z"
         style="fill:#757575;stroke-width:0.75"
         id="path1092" /><path
         d="m 355.54744,-505.88831 q -3.2666,0 -4.52637,0.74707 -1.25976,0.74707 -1.25976,2.54883 0,1.43555 0.9375,2.28516 0.95215,0.83496 2.57812,0.83496 2.24121,0 3.58887,-1.58203 1.3623,-1.59668 1.3623,-4.2334 v -0.60059 z m 5.37598,-1.11328 v 9.36035 h -2.69532 v -2.49023 q -0.92285,1.49414 -2.2998,2.21191 -1.37695,0.70313 -3.36914,0.70313 -2.51953,0 -4.01367,-1.40625 -1.4795,-1.4209 -1.4795,-3.79395 0,-2.76855 1.84571,-4.1748 1.86035,-1.40625 5.53711,-1.40625 h 3.77929 v -0.26367 q 0,-1.86035 -1.23047,-2.8711 -1.21582,-1.02539 -3.42773,-1.02539 -1.40625,0 -2.73926,0.33692 -1.33301,0.33691 -2.56347,1.01074 v -2.49024 q 1.47949,-0.57128 2.87109,-0.8496 1.3916,-0.29297 2.70996,-0.29297 3.55957,0 5.31738,1.8457 1.75782,1.8457 1.75782,5.5957 z"
         style="fill:#757575;stroke-width:0.75"
         id="path1094" /><path
         d="m 366.19685,-504.11584 v -9.93165 h 2.69532 v 9.82911 q 0,2.3291 0.9082,3.50097 0.9082,1.15723 2.72461,1.15723 2.18262,0 3.44238,-1.3916 1.27442,-1.3916 1.27442,-3.79395 v -9.30176 h 2.69531 v 16.40625 h -2.69531 v -2.51953 q -0.98145,1.49414 -2.28516,2.22657 -1.28906,0.71777 -3.00293,0.71777 -2.82715,0 -4.29199,-1.75781 -1.46485,-1.75782 -1.46485,-5.1416 z m 6.78223,-10.32715 z"
         style="fill:#757575;stroke-width:0.75"
         id="path1096" /><path
         d="m 263.87752,-475.9176 v 2.51953 q -1.14258,-0.62988 -2.29981,-0.9375 -1.14258,-0.32227 -2.31445,-0.32227 -2.62207,0 -4.07227,1.66992 -1.45019,1.65528 -1.45019,4.65821 0,3.00293 1.45019,4.67285 1.4502,1.65527 4.07227,1.65527 1.17187,0 2.31445,-0.30761 1.15723,-0.32227 2.29981,-0.95215 v 2.49023 q -1.12793,0.52735 -2.34375,0.79102 -1.20117,0.26367 -2.56348,0.26367 -3.70605,0 -5.88867,-2.3291 -2.18262,-2.3291 -2.18262,-6.28418 0,-4.01367 2.19727,-6.31348 2.21191,-2.2998 6.0498,-2.2998 1.24512,0 2.43164,0.26367 1.18653,0.24902 2.29981,0.76172 z"
         style="fill:#757575;stroke-width:0.75"
         id="path1098" /><path
         d="m 274.92244,-474.65784 q -2.16797,0 -3.42773,1.69922 -1.25977,1.68457 -1.25977,4.62891 0,2.94433 1.24512,4.64355 1.25976,1.68457 3.44238,1.68457 2.15332,0 3.41309,-1.69922 1.25976,-1.69921 1.25976,-4.6289 0,-2.91504 -1.25976,-4.61426 -1.25977,-1.71387 -3.41309,-1.71387 z m 0,-2.28515 q 3.51562,0 5.52246,2.28515 2.00684,2.28516 2.00684,6.32813 0,4.02832 -2.00684,6.32812 -2.00684,2.28516 -5.52246,2.28516 -3.53027,0 -5.53711,-2.28516 -1.99219,-2.2998 -1.99219,-6.32812 0,-4.04297 1.99219,-6.32813 2.00684,-2.28515 5.53711,-2.28515 z"
         style="fill:#757575;stroke-width:0.75"
         id="path1100" /><path
         d="m 286.91951,-482.9342 h 2.69531 v 22.79296 h -2.69531 z"
         style="fill:#757575;stroke-width:0.75"
         id="path1102" /><path
         d="m 295.25447,-482.9342 h 2.69531 v 22.79296 h -2.69531 z"
         style="fill:#757575;stroke-width:0.75"
         id="path1104" /><path
         d="m 311.04549,-468.38831 q -3.26661,0 -4.52637,0.74707 -1.25977,0.74707 -1.25977,2.54883 0,1.43555 0.9375,2.28516 0.95215,0.83496 2.57813,0.83496 2.24121,0 3.58887,-1.58203 1.3623,-1.59668 1.3623,-4.2334 v -0.60059 z m 5.37597,-1.11328 v 9.36035 h -2.69531 v -2.49023 q -0.92285,1.49414 -2.2998,2.21191 -1.37696,0.70313 -3.36914,0.70313 -2.51954,0 -4.01368,-1.40625 -1.47949,-1.4209 -1.47949,-3.79395 0,-2.76855 1.8457,-4.1748 1.86036,-1.40625 5.53711,-1.40625 h 3.7793 v -0.26367 q 0,-1.86035 -1.23047,-2.8711 -1.21582,-1.02539 -3.42773,-1.02539 -1.40625,0 -2.73926,0.33692 -1.33301,0.33691 -2.56348,1.01074 v -2.49024 q 1.4795,-0.57128 2.8711,-0.8496 1.3916,-0.29297 2.70996,-0.29297 3.55957,0 5.31738,1.8457 1.75781,1.8457 1.75781,5.5957 z"
         style="fill:#757575;stroke-width:0.75"
         id="path1106" /><path
         d="m 333.75056,-468.32971 q 0,-2.97363 -1.23046,-4.65821 -1.21582,-1.69921 -3.3545,-1.69921 -2.13867,0 -3.36914,1.69921 -1.21582,1.68458 -1.21582,4.65821 0,2.97363 1.21582,4.67285 1.23047,1.68457 3.36914,1.68457 2.13868,0 3.3545,-1.68457 1.23046,-1.69922 1.23046,-4.67285 z m -9.16992,-5.72754 q 0.84961,-1.46484 2.13867,-2.16797 1.30372,-0.71777 3.10547,-0.71777 2.98828,0 4.84864,2.37304 1.875,2.37305 1.875,6.24024 0,3.86719 -1.875,6.24023 -1.86036,2.37305 -4.84864,2.37305 -1.80175,0 -3.10547,-0.70313 -1.28906,-0.71777 -2.13867,-2.18261 v 2.46093 h -2.70996 v -22.79296 h 2.70996 z"
         style="fill:#757575;stroke-width:0.75"
         id="path1108" /><path
         d="m 347.37361,-474.65784 q -2.16797,0 -3.42773,1.69922 -1.25977,1.68457 -1.25977,4.62891 0,2.94433 1.24512,4.64355 1.25976,1.68457 3.44238,1.68457 2.15332,0 3.41309,-1.69922 1.25976,-1.69921 1.25976,-4.6289 0,-2.91504 -1.25976,-4.61426 -1.25977,-1.71387 -3.41309,-1.71387 z m 0,-2.28515 q 3.51563,0 5.52246,2.28515 2.00684,2.28516 2.00684,6.32813 0,4.02832 -2.00684,6.32812 -2.00683,2.28516 -5.52246,2.28516 -3.53027,0 -5.53711,-2.28516 -1.99219,-2.2998 -1.99219,-6.32812 0,-4.04297 1.99219,-6.32813 2.00684,-2.28515 5.53711,-2.28515 z"
         style="fill:#757575;stroke-width:0.75"
         id="path1110" /><path
         d="m 368.87752,-474.02795 q -0.4541,-0.26368 -0.9961,-0.38086 -0.52734,-0.13184 -1.17187,-0.13184 -2.28516,0 -3.51563,1.49414 -1.21582,1.47949 -1.21582,4.2627 v 8.64257 h -2.70996 v -16.40625 h 2.70996 v 2.54883 q 0.84961,-1.49414 2.21192,-2.21191 1.3623,-0.73242 3.31054,-0.73242 0.27832,0 0.61524,0.0439 0.33691,0.0293 0.74707,0.10254 z"
         style="fill:#757575;stroke-width:0.75"
         id="path1112" /><path
         d="m 379.16072,-468.38831 q -3.2666,0 -4.52637,0.74707 -1.25976,0.74707 -1.25976,2.54883 0,1.43555 0.9375,2.28516 0.95215,0.83496 2.57812,0.83496 2.24121,0 3.58887,-1.58203 1.3623,-1.59668 1.3623,-4.2334 v -0.60059 z m 5.37598,-1.11328 v 9.36035 h -2.69532 v -2.49023 q -0.92285,1.49414 -2.2998,2.21191 -1.37695,0.70313 -3.36914,0.70313 -2.51953,0 -4.01367,-1.40625 -1.47949,-1.4209 -1.47949,-3.79395 0,-2.76855 1.8457,-4.1748 1.86035,-1.40625 5.53711,-1.40625 h 3.77929 v -0.26367 q 0,-1.86035 -1.23046,-2.8711 -1.21582,-1.02539 -3.42774,-1.02539 -1.40625,0 -2.73926,0.33692 -1.333,0.33691 -2.56347,1.01074 v -2.49024 q 1.47949,-0.57128 2.87109,-0.8496 1.3916,-0.29297 2.70996,-0.29297 3.55957,0 5.31738,1.8457 1.75782,1.8457 1.75782,5.5957 z"
         style="fill:#757575;stroke-width:0.75"
         id="path1114" /><path
         d="m 392.75447,-481.20569 v 4.6582 h 5.55176 v 2.09473 h -5.55176 v 8.90625 q 0,2.00684 0.54199,2.57813 0.55664,0.57129 2.24121,0.57129 h 2.76856 v 2.25585 h -2.76856 q -3.12011,0 -4.30664,-1.15722 -1.18652,-1.17188 -1.18652,-4.24805 v -8.90625 h -1.97754 v -2.09473 h 1.97754 v -4.6582 z"
         style="fill:#757575;stroke-width:0.75"
         id="path1116" /><path
         d="m 415.88435,-469.01819 v 1.31836 h -12.39257 q 0.17578,2.7832 1.66992,4.24805 1.50879,1.45019 4.18945,1.45019 1.55273,0 3.00293,-0.38086 1.46484,-0.38086 2.90039,-1.14257 v 2.54882 q -1.45019,0.61524 -2.97363,0.9375 -1.52344,0.32227 -3.09082,0.32227 -3.92578,0 -6.22559,-2.28516 -2.28515,-2.28515 -2.28515,-6.18164 0,-4.02832 2.16796,-6.38672 2.18262,-2.37304 5.87403,-2.37304 3.31054,0 5.22949,2.13867 1.93359,2.12402 1.93359,5.78613 z m -2.69531,-0.79101 q -0.0293,-2.21192 -1.24512,-3.53028 -1.20117,-1.31836 -3.19336,-1.31836 -2.25585,0 -3.61816,1.27442 -1.34766,1.27441 -1.55273,3.58886 z"
         style="fill:#757575;stroke-width:0.75"
         id="path1118" /><path
         d="m 420.02986,-466.61584 v -9.93165 h 2.69531 v 9.82911 q 0,2.3291 0.90821,3.50097 0.9082,1.15723 2.72461,1.15723 2.18261,0 3.44238,-1.3916 1.27441,-1.3916 1.27441,-3.79395 v -9.30176 h 2.69532 v 16.40625 h -2.69532 v -2.51953 q -0.98144,1.49414 -2.28515,2.22657 -1.28907,0.71777 -3.00293,0.71777 -2.82715,0 -4.29199,-1.75781 -1.46485,-1.75782 -1.46485,-5.1416 z m 6.78223,-10.32715 z"
         style="fill:#757575;stroke-width:0.75"
         id="path1120" /><path
         d="m 448.82869,-474.02795 q -0.4541,-0.26368 -0.99609,-0.38086 -0.52735,-0.13184 -1.17188,-0.13184 -2.28516,0 -3.51562,1.49414 -1.21582,1.47949 -1.21582,4.2627 v 8.64257 h -2.70997 v -16.40625 h 2.70997 v 2.54883 q 0.8496,-1.49414 2.21191,-2.21191 1.3623,-0.73242 3.31055,-0.73242 0.27832,0 0.61523,0.0439 0.33691,0.0293 0.74707,0.10254 z"
         style="fill:#757575;stroke-width:0.75"
         id="path1122" /><path
         d="m 464.09236,-463.86194 h 2.97363 v 3.7207 h -2.97363 z m 2.88574,-2.15332 h -2.79785 v -2.25586 q 0,-1.47949 0.41016,-2.43164 0.41015,-0.95215 1.72851,-2.21191 l 1.31836,-1.30371 q 0.83496,-0.77637 1.20118,-1.46485 0.38085,-0.68847 0.38085,-1.40625 0,-1.30371 -0.96679,-2.10937 -0.95215,-0.80567 -2.53418,-0.80567 -1.15723,0 -2.47559,0.5127 -1.30371,0.51269 -2.72461,1.49414 v -2.75391 q 1.37696,-0.83496 2.78321,-1.24511 1.42089,-0.41016 2.92968,-0.41016 2.69532,0 4.32129,1.4209 1.64063,1.4209 1.64063,3.75 0,1.11328 -0.52735,2.12402 -0.52734,0.9961 -1.8457,2.25586 l -1.28906,1.25977 q -0.68848,0.68847 -0.98145,1.08398 -0.27832,0.38086 -0.39551,0.74707 -0.0879,0.30762 -0.13183,0.74707 -0.0439,0.43945 -0.0439,1.20117 z"
         style="fill:#757575;stroke-width:0.75"
         id="path1124" /></g><g
       aria-label="Evnement particulier ?"
       transform="matrix(0.99944175,0.03340931,0.03340931,-0.99944175,0,0)"
       id="text989-1-6"
       style="font-style:normal;font-weight:normal;font-size:30px;line-height:1.25;font-family:sans-serif;letter-spacing:0px;word-spacing:0px;fill:#757575;fill-opacity:1;stroke:none;stroke-width:0.75"><path
         d="m 71.188568,-410.84695 h 13.828125 v 2.49023 H 74.147552 v 6.47461 h 10.41504 v 2.49023 h -10.41504 v 7.92481 h 11.132813 v 2.49023 H 71.188568 Z"
         style="fill:#757575;stroke-width:0.75"
         id="path1127" /><path
         d="m 88.092865,-405.38309 h 2.856445 l 5.126953,13.76953 5.126957,-13.76953 h 2.85644 l -6.152342,16.40625 h -3.662109 z"
         style="fill:#757575;stroke-width:0.75"
         id="path1129" /><path
         d="m 121.81357,-397.85379 v 1.31836 h -12.39258 q 0.17578,2.7832 1.66992,4.24805 1.50879,1.45019 4.18945,1.45019 1.55274,0 3.00293,-0.38086 1.46485,-0.38086 2.9004,-1.14258 v 2.54883 q -1.4502,0.61524 -2.97364,0.9375 -1.52344,0.32227 -3.09082,0.32227 -3.92578,0 -6.22558,-2.28516 -2.28516,-2.28515 -2.28516,-6.18164 0,-4.02832 2.16797,-6.38672 2.18262,-2.37304 5.87402,-2.37304 3.31055,0 5.22949,2.13867 1.9336,2.12402 1.9336,5.78613 z m -2.69531,-0.79102 q -0.0293,-2.21191 -1.24512,-3.53027 -1.20117,-1.31836 -3.19336,-1.31836 -2.25586,0 -3.61817,1.27442 -1.34765,1.27441 -1.55273,3.58886 z m -2.59278,-14.32617 h 2.91504 l -4.77539,5.50781 h -2.24121 z"
         style="fill:#757575;stroke-width:0.75"
         id="path1131" /><path
         d="m 139.87509,-398.87918 v 9.90234 h -2.69531 v -9.81445 q 0,-2.3291 -0.9082,-3.48633 -0.90821,-1.15722 -2.72461,-1.15722 -2.18262,0 -3.44239,1.3916 -1.25976,1.3916 -1.25976,3.79394 v 9.27246 h -2.70996 v -16.40625 h 2.70996 v 2.54883 q 0.96679,-1.47949 2.27051,-2.21191 1.31836,-0.73242 3.03222,-0.73242 2.82715,0 4.27735,1.75781 1.45019,1.74316 1.45019,5.1416 z"
         style="fill:#757575;stroke-width:0.75"
         id="path1133" /><path
         d="m 159.28427,-397.85379 v 1.31836 h -12.39258 q 0.17578,2.7832 1.66992,4.24805 1.50879,1.45019 4.18946,1.45019 1.55273,0 3.00293,-0.38086 1.46484,-0.38086 2.90039,-1.14258 v 2.54883 q -1.4502,0.61524 -2.97363,0.9375 -1.52344,0.32227 -3.09082,0.32227 -3.92579,0 -6.22559,-2.28516 -2.28516,-2.28515 -2.28516,-6.18164 0,-4.02832 2.16797,-6.38672 2.18262,-2.37304 5.87403,-2.37304 3.31054,0 5.22949,2.13867 1.93359,2.12402 1.93359,5.78613 z m -2.69531,-0.79102 q -0.0293,-2.21191 -1.24512,-3.53027 -1.20117,-1.31836 -3.19336,-1.31836 -2.25586,0 -3.61816,1.27442 -1.34766,1.27441 -1.55274,3.58886 z"
         style="fill:#757575;stroke-width:0.75"
         id="path1135" /><path
         d="m 176.48154,-402.23367 q 1.01074,-1.81641 2.41699,-2.68067 1.40625,-0.86425 3.31055,-0.86425 2.56347,0 3.95507,1.80175 1.39161,1.78711 1.39161,5.09766 v 9.90234 h -2.70997 v -9.81445 q 0,-2.3584 -0.83496,-3.50098 -0.83496,-1.14257 -2.54882,-1.14257 -2.09473,0 -3.31055,1.3916 -1.21582,1.3916 -1.21582,3.79394 v 9.27246 h -2.70996 v -9.81445 q 0,-2.37305 -0.83496,-3.50098 -0.83496,-1.14257 -2.57813,-1.14257 -2.06543,0 -3.28125,1.40625 -1.21582,1.3916 -1.21582,3.77929 v 9.27246 h -2.70996 v -16.40625 h 2.70996 v 2.54883 q 0.92285,-1.50879 2.21192,-2.22656 1.28906,-0.71777 3.06152,-0.71777 1.78711,0 3.03223,0.9082 1.25976,0.9082 1.86035,2.63672 z"
         style="fill:#757575;stroke-width:0.75"
         id="path1137" /><path
         d="m 206.96494,-397.85379 v 1.31836 h -12.39258 q 0.17578,2.7832 1.66992,4.24805 1.50879,1.45019 4.18945,1.45019 1.55274,0 3.00293,-0.38086 1.46485,-0.38086 2.90039,-1.14258 v 2.54883 q -1.45019,0.61524 -2.97363,0.9375 -1.52344,0.32227 -3.09082,0.32227 -3.92578,0 -6.22559,-2.28516 -2.28515,-2.28515 -2.28515,-6.18164 0,-4.02832 2.16797,-6.38672 2.18261,-2.37304 5.87402,-2.37304 3.31055,0 5.22949,2.13867 1.9336,2.12402 1.9336,5.78613 z m -2.69532,-0.79102 q -0.0293,-2.21191 -1.24511,-3.53027 -1.20118,-1.31836 -3.19336,-1.31836 -2.25586,0 -3.61817,1.27442 -1.34765,1.27441 -1.55273,3.58886 z"
         style="fill:#757575;stroke-width:0.75"
         id="path1139" /><path
         d="m 225.02646,-398.87918 v 9.90234 h -2.69531 v -9.81445 q 0,-2.3291 -0.90821,-3.48633 -0.9082,-1.15722 -2.72461,-1.15722 -2.18261,0 -3.44238,1.3916 -1.25976,1.3916 -1.25976,3.79394 v 9.27246 h -2.70997 v -16.40625 h 2.70997 v 2.54883 q 0.96679,-1.47949 2.2705,-2.21191 1.31836,-0.73242 3.03223,-0.73242 2.82715,0 4.27734,1.75781 1.4502,1.74316 1.4502,5.1416 z"
         style="fill:#757575;stroke-width:0.75"
         id="path1141" /><path
         d="m 233.06845,-410.04129 v 4.6582 h 5.55176 v 2.09473 h -5.55176 v 8.90625 q 0,2.00684 0.54199,2.57812 0.55664,0.57129 2.24121,0.57129 h 2.76856 v 2.25586 h -2.76856 q -3.12011,0 -4.30664,-1.15722 -1.18652,-1.17188 -1.18652,-4.24805 v -8.90625 h -1.97754 v -2.09473 h 1.97754 v -4.6582 z"
         style="fill:#757575;stroke-width:0.75"
         id="path1143" /><path
         d="m 73.678802,-353.93777 v 8.70117 h -2.70996 v -22.64649 h 2.70996 v 2.49024 q 0.84961,-1.46485 2.138672,-2.16797 1.303711,-0.71777 3.105469,-0.71777 2.988281,0 4.848633,2.37304 1.875,2.37305 1.875,6.24024 0,3.86718 -1.875,6.24023 -1.860352,2.37305 -4.848633,2.37305 -1.801758,0 -3.105469,-0.70313 -1.289062,-0.71777 -2.138672,-2.18261 z m 9.169922,-5.72754 q 0,-2.97364 -1.230468,-4.65821 -1.215821,-1.69922 -3.354493,-1.69922 -2.138671,0 -3.36914,1.69922 -1.215821,1.68457 -1.215821,4.65821 0,2.97363 1.215821,4.67285 1.230469,1.68457 3.36914,1.68457 2.138672,0 3.354493,-1.68457 1.230468,-1.69922 1.230468,-4.67285 z"
         style="fill:#757575;stroke-width:0.75"
         id="path1145" /><path
         d="m 97.570404,-359.72391 q -3.266602,0 -4.526367,0.74707 -1.259766,0.74707 -1.259766,2.54883 0,1.43555 0.9375,2.28516 0.952149,0.83496 2.578125,0.83496 2.241211,0 3.588867,-1.58203 1.362307,-1.59668 1.362307,-4.2334 v -0.60059 z m 5.375976,-1.11328 v 9.36035 h -2.69531 v -2.49023 q -0.922853,1.49414 -2.299807,2.21191 -1.376953,0.70313 -3.36914,0.70313 -2.519531,0 -4.013672,-1.40625 -1.479492,-1.4209 -1.479492,-3.79395 0,-2.76855 1.845703,-4.1748 1.860351,-1.40625 5.537109,-1.40625 h 3.779299 v -0.26367 q 0,-1.86036 -1.230471,-2.8711 -1.21582,-1.02539 -3.427734,-1.02539 -1.40625,0 -2.739258,0.33692 -1.333008,0.33691 -2.563476,1.01074 v -2.49024 q 1.479492,-0.57129 2.871093,-0.84961 1.391602,-0.29296 2.709961,-0.29296 3.559571,0 5.317385,1.8457 1.75781,1.8457 1.75781,5.5957 z"
         style="fill:#757575;stroke-width:0.75"
         id="path1147" /><path
         d="m 118.00497,-365.36356 q -0.4541,-0.26367 -0.99609,-0.38086 -0.52734,-0.13183 -1.17187,-0.13183 -2.28516,0 -3.51563,1.49414 -1.21582,1.47949 -1.21582,4.26269 v 8.64258 h -2.70996 v -16.40625 h 2.70996 v 2.54883 q 0.84961,-1.49414 2.21191,-2.21191 1.36231,-0.73242 3.31055,-0.73242 0.27832,0 0.61524,0.0439 0.33691,0.0293 0.74707,0.10254 z"
         style="fill:#757575;stroke-width:0.75"
         id="path1149" /><path
         d="m 123.49814,-372.54129 v 4.6582 h 5.55176 v 2.09473 h -5.55176 v 8.90625 q 0,2.00684 0.54199,2.57812 0.55664,0.57129 2.24121,0.57129 h 2.76856 v 2.25586 h -2.76856 q -3.12012,0 -4.30664,-1.15722 -1.18652,-1.17188 -1.18652,-4.24805 v -8.90625 h -1.97754 v -2.09473 h 1.97754 v -4.6582 z"
         style="fill:#757575;stroke-width:0.75"
         id="path1151" /><path
         d="m 132.59482,-367.88309 h 2.69531 v 16.40625 h -2.69531 z m 0,-6.38672 h 2.69531 v 3.41309 h -2.69531 z"
         style="fill:#757575;stroke-width:0.75"
         id="path1153" /><path
         d="m 152.73642,-367.2532 v 2.51953 q -1.14258,-0.62989 -2.29981,-0.9375 -1.14257,-0.32227 -2.31445,-0.32227 -2.62207,0 -4.07226,1.66992 -1.4502,1.65528 -1.4502,4.65821 0,3.00293 1.4502,4.67285 1.45019,1.65527 4.07226,1.65527 1.17188,0 2.31445,-0.30762 1.15723,-0.32226 2.29981,-0.95214 v 2.49023 q -1.12793,0.52734 -2.34375,0.79102 -1.20117,0.26367 -2.56348,0.26367 -3.70605,0 -5.88867,-2.3291 -2.18262,-2.32911 -2.18262,-6.28418 0,-4.01368 2.19727,-6.31348 2.21191,-2.2998 6.0498,-2.2998 1.24512,0 2.43164,0.26367 1.18653,0.24902 2.29981,0.76172 z"
         style="fill:#757575;stroke-width:0.75"
         id="path1155" /><path
         d="m 157.1456,-357.95145 v -9.93164 h 2.69531 v 9.8291 q 0,2.32911 0.9082,3.50098 0.90821,1.15723 2.72461,1.15723 2.18262,0 3.44239,-1.3916 1.27441,-1.39161 1.27441,-3.79395 v -9.30176 h 2.69531 v 16.40625 h -2.69531 v -2.51953 q -0.98144,1.49414 -2.28516,2.22656 -1.28906,0.71778 -3.00292,0.71778 -2.82715,0 -4.292,-1.75781 -1.46484,-1.75782 -1.46484,-5.14161 z m 6.78223,-10.32714 z"
         style="fill:#757575;stroke-width:0.75"
         id="path1157" /><path
         d="m 176.43759,-374.26981 h 2.69531 v 22.79297 h -2.69531 z"
         style="fill:#757575;stroke-width:0.75"
         id="path1159" /><path
         d="m 184.77255,-367.88309 h 2.69531 v 16.40625 h -2.69531 z m 0,-6.38672 h 2.69531 v 3.41309 h -2.69531 z"
         style="fill:#757575;stroke-width:0.75"
         id="path1161" /><path
         d="m 207.14072,-360.35379 v 1.31836 h -12.39258 q 0.17578,2.7832 1.66992,4.24805 1.50879,1.45019 4.18945,1.45019 1.55274,0 3.00293,-0.38086 1.46485,-0.38086 2.90039,-1.14258 v 2.54883 q -1.45019,0.61524 -2.97363,0.9375 -1.52344,0.32227 -3.09082,0.32227 -3.92578,0 -6.22559,-2.28516 -2.28515,-2.28515 -2.28515,-6.18164 0,-4.02832 2.16797,-6.38672 2.18261,-2.37304 5.87402,-2.37304 3.31055,0 5.22949,2.13867 1.9336,2.12402 1.9336,5.78613 z m -2.69532,-0.79102 q -0.0293,-2.21191 -1.24511,-3.53027 -1.20118,-1.31836 -3.19336,-1.31836 -2.25586,0 -3.61817,1.27442 -1.34765,1.27441 -1.55273,3.58886 z"
         style="fill:#757575;stroke-width:0.75"
         id="path1163" /><path
         d="m 221.07138,-365.36356 q -0.4541,-0.26367 -0.99609,-0.38086 -0.52735,-0.13183 -1.17188,-0.13183 -2.28515,0 -3.51562,1.49414 -1.21582,1.47949 -1.21582,4.26269 v 8.64258 h -2.70996 v -16.40625 h 2.70996 v 2.54883 q 0.84961,-1.49414 2.21191,-2.21191 1.36231,-0.73242 3.31055,-0.73242 0.27832,0 0.61523,0.0439 0.33692,0.0293 0.74707,0.10254 z"
         style="fill:#757575;stroke-width:0.75"
         id="path1165" /><path
         d="m 236.33505,-355.19754 h 2.97364 v 3.7207 h -2.97364 z m 2.88574,-2.15332 h -2.79785 v -2.25586 q 0,-1.47949 0.41016,-2.43164 0.41016,-0.95215 1.72851,-2.21191 l 1.31836,-1.30372 q 0.83497,-0.77636 1.20118,-1.46484 0.38086,-0.68848 0.38086,-1.40625 0,-1.30371 -0.9668,-2.10937 -0.95215,-0.80567 -2.53418,-0.80567 -1.15723,0 -2.47559,0.5127 -1.30371,0.51269 -2.72461,1.49414 v -2.75391 q 1.37696,-0.83496 2.78321,-1.24512 1.4209,-0.41015 2.92968,-0.41015 2.69532,0 4.32129,1.4209 1.64063,1.42089 1.64063,3.75 0,1.11328 -0.52735,2.12402 -0.52734,0.99609 -1.8457,2.25586 l -1.28906,1.25976 q -0.68848,0.68848 -0.98145,1.08399 -0.27832,0.38086 -0.3955,0.74707 -0.0879,0.30762 -0.13184,0.74707 -0.0439,0.43945 -0.0439,1.20117 z"
         style="fill:#757575;stroke-width:0.75"
         id="path1167" /></g><g
       aria-label="Objectif final ?"
       transform="matrix(0.99973155,-0.0231695,-0.0231695,-0.99973155,0,0)"
       id="text989-1-6-5"
       style="font-style:normal;font-weight:normal;font-size:30px;line-height:1.25;font-family:sans-serif;text-align:center;letter-spacing:0px;word-spacing:0px;text-anchor:middle;fill:#757575;fill-opacity:1;stroke:none;stroke-width:0.75"><path
         d="m 98.071747,-626.70105 q -3.222656,0 -5.126953,2.40234 -1.889649,2.40235 -1.889649,6.54786 0,4.13085 1.889649,6.5332 1.904297,2.40234 5.126953,2.40234 3.222653,0 5.097653,-2.40234 1.88965,-2.40235 1.88965,-6.5332 0,-4.14551 -1.88965,-6.54786 -1.875,-2.40234 -5.097653,-2.40234 z m 0,-2.40234 q 4.599613,0 7.353513,3.09082 2.75391,3.07617 2.75391,8.26172 0,5.17089 -2.75391,8.26171 -2.7539,3.07618 -7.353513,3.07618 -4.614258,0 -7.382813,-3.07618 -2.753906,-3.07617 -2.753906,-8.26171 0,-5.18555 2.753906,-8.26172 2.768555,-3.09082 7.382813,-3.09082 z"
         style="text-align:center;text-anchor:middle;fill:#757575;stroke-width:0.75"
         id="path1170" /><path
         d="m 124.46823,-615.02625 q 0,-2.97363 -1.23047,-4.6582 -1.21582,-1.69922 -3.35449,-1.69922 -2.13867,0 -3.36914,1.69922 -1.21582,1.68457 -1.21582,4.6582 0,2.97364 1.21582,4.67286 1.23047,1.68457 3.36914,1.68457 2.13867,0 3.35449,-1.68457 1.23047,-1.69922 1.23047,-4.67286 z m -9.16992,-5.72753 q 0.84961,-1.46485 2.13867,-2.16797 1.30371,-0.71778 3.10547,-0.71778 2.98828,0 4.84863,2.37305 1.875,2.37305 1.875,6.24023 0,3.86719 -1.875,6.24024 -1.86035,2.37305 -4.84863,2.37305 -1.80176,0 -3.10547,-0.70313 -1.28906,-0.71777 -2.13867,-2.18262 v 2.46094 h -2.70996 v -22.79297 h 2.70996 z"
         style="text-align:center;text-anchor:middle;fill:#757575;stroke-width:0.75"
         id="path1172" /><path
         d="m 131.73386,-623.24402 h 2.69531 v 16.69922 q 0,3.13477 -1.20117,4.54102 -1.18653,1.40625 -3.83789,1.40625 h -1.02539 v -2.28516 h 0.71777 q 1.53808,0 2.09473,-0.71777 0.55664,-0.70313 0.55664,-2.94434 z m 0,-6.38672 h 2.69531 v 3.41309 h -2.69531 z"
         style="text-align:center;text-anchor:middle;fill:#757575;stroke-width:0.75"
         id="path1174" /><path
         d="m 154.10202,-615.71472 v 1.31836 h -12.39258 q 0.17578,2.7832 1.66992,4.24804 1.50879,1.4502 4.18946,1.4502 1.55273,0 3.00293,-0.38086 1.46484,-0.38086 2.90039,-1.14258 v 2.54883 q -1.4502,0.61523 -2.97364,0.9375 -1.52343,0.32227 -3.09082,0.32227 -3.92578,0 -6.22558,-2.28516 -2.28516,-2.28516 -2.28516,-6.18164 0,-4.02832 2.16797,-6.38672 2.18262,-2.37305 5.87402,-2.37305 3.31055,0 5.2295,2.13868 1.93359,2.12402 1.93359,5.78613 z m -2.69531,-0.79102 q -0.0293,-2.21191 -1.24512,-3.53027 -1.20117,-1.31836 -3.19336,-1.31836 -2.25586,0 -3.61816,1.27441 -1.34766,1.27442 -1.55274,3.58887 z"
         style="text-align:center;text-anchor:middle;fill:#757575;stroke-width:0.75"
         id="path1176" /><path
         d="m 170.33249,-622.61414 v 2.51954 q -1.14258,-0.62989 -2.29981,-0.9375 -1.14257,-0.32227 -2.31445,-0.32227 -2.62207,0 -4.07226,1.66992 -1.4502,1.65528 -1.4502,4.6582 0,3.00293 1.4502,4.67286 1.45019,1.65527 4.07226,1.65527 1.17188,0 2.31445,-0.30762 1.15723,-0.32226 2.29981,-0.95215 v 2.49024 q -1.12793,0.52734 -2.34375,0.79101 -1.20117,0.26368 -2.56348,0.26368 -3.70605,0 -5.88867,-2.32911 -2.18262,-2.3291 -2.18262,-6.28418 0,-4.01367 2.19727,-6.31347 2.21191,-2.29981 6.0498,-2.29981 1.24512,0 2.43164,0.26368 1.18653,0.24902 2.29981,0.76171 z"
         style="text-align:center;text-anchor:middle;fill:#757575;stroke-width:0.75"
         id="path1178" /><path
         d="m 177.686,-627.90222 v 4.6582 h 5.55176 v 2.09473 H 177.686 v 8.90625 q 0,2.00683 0.542,2.57812 0.55664,0.57129 2.24121,0.57129 h 2.76855 v 2.25586 h -2.76855 q -3.12012,0 -4.30664,-1.15723 -1.18653,-1.17187 -1.18653,-4.24804 v -8.90625 h -1.97754 v -2.09473 h 1.97754 v -4.6582 z"
         style="text-align:center;text-anchor:middle;fill:#757575;stroke-width:0.75"
         id="path1180" /><path
         d="m 186.78268,-623.24402 h 2.69532 v 16.40625 h -2.69532 z m 0,-6.38672 h 2.69532 v 3.41309 h -2.69532 z"
         style="text-align:center;text-anchor:middle;fill:#757575;stroke-width:0.75"
         id="path1182" /><path
         d="m 203.42331,-629.63074 v 2.24121 h -2.57813 q -1.45019,0 -2.02148,0.58594 -0.55664,0.58594 -0.55664,2.10938 v 1.45019 h 4.43848 v 2.09473 h -4.43848 v 14.31152 h -2.70996 v -14.31152 h -2.57813 v -2.09473 h 2.57813 v -1.14258 q 0,-2.73925 1.27441,-3.98437 1.27442,-1.25977 4.04297,-1.25977 z"
         style="text-align:center;text-anchor:middle;fill:#757575;stroke-width:0.75"
         id="path1184" /><path
         d="m 115.59128,-585.74402 v 16.40625 h -2.70996 v -14.31152 h -7.39746 v 14.31152 h -2.70996 v -14.31152 h -2.57813 v -2.09473 h 2.57813 v -1.14258 q 0,-2.68066 1.25976,-3.95507 1.27441,-1.28907 3.89649,-1.28907 h 2.70996 v 2.24121 h -2.57813 q -1.45019,0 -2.02148,0.58594 -0.55664,0.58594 -0.55664,2.10938 v 1.45019 z m -2.70996,-6.35742 h 2.70996 v 3.41309 h -2.70996 z"
         style="text-align:center;text-anchor:middle;fill:#757575;stroke-width:0.75"
         id="path1186" /><path
         d="m 134.86862,-579.24011 v 9.90234 h -2.69531 v -9.81445 q 0,-2.3291 -0.9082,-3.48633 -0.90821,-1.15723 -2.72461,-1.15723 -2.18262,0 -3.44239,1.39161 -1.25976,1.3916 -1.25976,3.79394 v 9.27246 h -2.70996 v -16.40625 h 2.70996 v 2.54883 q 0.9668,-1.47949 2.27051,-2.21191 1.31836,-0.73243 3.03222,-0.73243 2.82715,0 4.27735,1.75782 1.45019,1.74316 1.45019,5.1416 z"
         style="text-align:center;text-anchor:middle;fill:#757575;stroke-width:0.75"
         id="path1188" /><path
         d="m 147.70065,-577.58484 q -3.2666,0 -4.52636,0.74707 -1.25977,0.74707 -1.25977,2.54883 0,1.43555 0.9375,2.28516 0.95215,0.83496 2.57813,0.83496 2.24121,0 3.58886,-1.58203 1.36231,-1.59668 1.36231,-4.2334 v -0.60059 z m 5.37598,-1.11328 v 9.36035 h -2.69531 v -2.49023 q -0.92285,1.49414 -2.29981,2.21191 -1.37695,0.70313 -3.36914,0.70313 -2.51953,0 -4.01367,-1.40625 -1.47949,-1.4209 -1.47949,-3.79395 0,-2.76855 1.8457,-4.1748 1.86035,-1.40625 5.53711,-1.40625 h 3.7793 v -0.26368 q 0,-1.86035 -1.23047,-2.87109 -1.21582,-1.02539 -3.42774,-1.02539 -1.40625,0 -2.73925,0.33691 -1.33301,0.33692 -2.56348,1.01075 v -2.49024 q 1.47949,-0.57129 2.87109,-0.84961 1.3916,-0.29297 2.70996,-0.29297 3.55957,0 5.31739,1.84571 1.75781,1.8457 1.75781,5.5957 z"
         style="text-align:center;text-anchor:middle;fill:#757575;stroke-width:0.75"
         id="path1190" /><path
         d="m 158.62839,-592.13074 h 2.69531 v 22.79297 h -2.69531 z"
         style="text-align:center;text-anchor:middle;fill:#757575;stroke-width:0.75"
         id="path1192" /><path
         d="m 179.39987,-573.05847 h 2.97363 v 3.7207 h -2.97363 z m 2.88574,-2.15332 h -2.79785 v -2.25586 q 0,-1.47949 0.41016,-2.43164 0.41015,-0.95215 1.72851,-2.21192 l 1.31836,-1.30371 q 0.83496,-0.77636 1.20118,-1.46484 0.38085,-0.68848 0.38085,-1.40625 0,-1.30371 -0.96679,-2.10938 -0.95215,-0.80566 -2.53418,-0.80566 -1.15723,0 -2.47559,0.5127 -1.30371,0.51269 -2.72461,1.49414 v -2.75391 q 1.37696,-0.83496 2.78321,-1.24512 1.42089,-0.41015 2.92968,-0.41015 2.69532,0 4.32129,1.42089 1.64063,1.4209 1.64063,3.75 0,1.11329 -0.52735,2.12403 -0.52734,0.99609 -1.8457,2.25586 l -1.28906,1.25976 q -0.68848,0.68848 -0.98145,1.08399 -0.27832,0.38086 -0.3955,0.74707 -0.0879,0.30762 -0.13184,0.74707 -0.0439,0.43945 -0.0439,1.20117 z"
         style="text-align:center;text-anchor:middle;fill:#757575;stroke-width:0.75"
         id="path1194" /></g></g></svg>
