<?xml version="1.0" encoding="UTF-8" standalone="no"?>
<svg
   xmlns:dc="http://purl.org/dc/elements/1.1/"
   xmlns:cc="http://creativecommons.org/ns#"
   xmlns:rdf="http://www.w3.org/1999/02/22-rdf-syntax-ns#"
   xmlns:svg="http://www.w3.org/2000/svg"
   xmlns="http://www.w3.org/2000/svg"
   xmlns:sodipodi="http://sodipodi.sourceforge.net/DTD/sodipodi-0.dtd"
   xmlns:inkscape="http://www.inkscape.org/namespaces/inkscape"
   version="1.1"
   id="svg2"
   xml:space="preserve"
   width="635.03729"
   height="564.68372"
   viewBox="0 0 635.03729 564.68369"
   sodipodi:docname="lack-money.svg"
   inkscape:version="1.0.1 (1.0.1+r73)"><metadata
     id="metadata8"><rdf:RDF><cc:Work
         rdf:about=""><dc:format>image/svg+xml</dc:format><dc:type
           rdf:resource="http://purl.org/dc/dcmitype/StillImage" /><dc:title></dc:title></cc:Work></rdf:RDF></metadata><defs
     id="defs6" /><sodipodi:namedview
     pagecolor="#ffffff"
     bordercolor="#666666"
     borderopacity="1"
     objecttolerance="10"
     gridtolerance="10"
     guidetolerance="10"
     inkscape:pageopacity="0"
     inkscape:pageshadow="2"
     inkscape:window-width="1896"
     inkscape:window-height="1019"
     id="namedview4"
     showgrid="false"
     inkscape:zoom="0.39"
     inkscape:cx="235.03733"
     inkscape:cy="432.62507"
     inkscape:window-x="1932"
     inkscape:window-y="12"
     inkscape:window-maximized="0"
     inkscape:current-layer="g10" /><g
     id="g10"
     inkscape:groupmode="layer"
     inkscape:label="ink_ext_XXXXXX"
     transform="matrix(1.3333333,0,0,-1.3333333,-164.96266,965.95839)"><path
       d="m 260.272,432.277 c -60.128,24.921 -137.561,-58.695 -82.25,-109.136 83.932,-76.545 182.106,66.123 82.25,109.136"
       style="fill:#b0883d;fill-opacity:1;fill-rule:nonzero;stroke:none;stroke-width:0.1"
       id="path16" /><path
       d="m 259.18,439.616 c -64.874,26.889 -143.23,-53.525 -82.248,-109.135 83.93,-76.544 182.105,66.123 82.248,109.135"
       style="fill:#f0b64b;fill-opacity:1;fill-rule:nonzero;stroke:none;stroke-width:0.1"
       id="path18" /><path
       d="m 242.883,372.768 c -0.21,1.41 -0.718,2.661 -1.524,3.752 -0.806,1.09 -1.78,2.014 -2.922,2.772 -1.144,0.758 -2.397,1.305 -3.761,1.644 -1.364,0.337 -2.681,0.437 -3.947,0.301 0.337,-2.267 0.594,-4.083 0.772,-5.449 0.176,-1.363 0.325,-2.538 0.445,-3.525 0.123,-0.988 0.222,-1.926 0.305,-2.815 0.08,-0.89 0.206,-2.004 0.379,-3.343 0.174,-1.339 0.4,-3.031 0.679,-5.077 0.275,-2.045 0.661,-4.706 1.148,-7.979 1.556,0.951 2.929,2.122 4.113,3.509 1.187,1.384 2.155,2.908 2.913,4.565 0.76,1.659 1.273,3.397 1.544,5.214 0.271,1.818 0.276,3.607 0.013,5.372 l -0.157,1.059 m -19.476,20.825 c -0.807,-1.15 -1.547,-2.33 -2.218,-3.535 -0.669,-1.209 -1.045,-2.411 -1.125,-3.606 0.743,-0.148 1.477,-0.245 2.208,-0.291 0.727,-0.047 1.455,-0.092 2.183,-0.139 -0.139,1.629 -0.243,3.016 -0.31,4.165 -0.068,1.149 -0.168,2.512 -0.299,4.089 -0.214,-0.289 -0.362,-0.516 -0.439,-0.683 m 1.517,26.187 c 0.354,-1.698 0.684,-3.142 0.991,-4.333 0.304,-1.192 0.574,-2.31 0.809,-3.358 0.232,-1.046 0.451,-2.095 0.66,-3.146 0.206,-1.052 0.421,-2.308 0.638,-3.769 0.667,0.356 1.343,0.649 2.032,0.881 0.687,0.23 1.358,0.396 2.014,0.493 2.72,0.405 5.354,-0.338 7.9,-2.226 l -0.011,0.076 c 0.523,-0.386 0.839,-0.957 0.952,-1.712 0.09,-0.605 -0.049,-1.156 -0.411,-1.646 -0.367,-0.492 -0.826,-0.78 -1.38,-0.862 -0.707,-0.105 -1.377,0.077 -2.015,0.55 l 0.078,0.011 c -1.542,1.008 -3.094,1.396 -4.657,1.164 -1.31,-0.195 -2.627,-0.854 -3.955,-1.98 0.262,-1.765 0.465,-3.291 0.606,-4.584 0.139,-1.292 0.264,-2.473 0.371,-3.537 0.106,-1.067 0.194,-2.084 0.26,-3.052 0.067,-0.97 0.154,-1.985 0.26,-3.053 2.413,0.05 4.652,-0.184 6.71,-0.701 2.061,-0.518 3.871,-1.333 5.425,-2.44 1.554,-1.109 2.849,-2.538 3.882,-4.291 1.034,-1.751 1.732,-3.838 2.09,-6.255 0.36,-2.42 0.302,-4.811 -0.17,-7.174 -0.475,-2.363 -1.277,-4.594 -2.404,-6.693 -1.133,-2.1 -2.573,-4.003 -4.329,-5.706 -1.756,-1.704 -3.738,-3.104 -5.944,-4.205 0.23,-1.202 0.429,-2.19 0.596,-2.963 0.164,-0.774 0.355,-1.607 0.565,-2.505 0.211,-0.896 0.502,-1.997 0.877,-3.307 0.375,-1.31 0.887,-3.101 1.533,-5.375 0.075,-0.502 0.193,-0.949 0.354,-1.338 0.16,-0.387 0.279,-0.834 0.354,-1.338 0.075,-0.503 -0.144,-0.934 -0.659,-1.296 -0.512,-0.358 -0.971,-0.57 -1.374,-0.63 -0.404,-0.06 -0.829,0.033 -1.276,0.276 -0.449,0.242 -0.751,0.713 -0.905,1.41 -0.647,2.274 -1.176,4.179 -1.583,5.713 -0.41,1.536 -0.762,2.861 -1.056,3.978 -0.294,1.115 -0.559,2.108 -0.79,2.974 -0.233,0.865 -0.498,1.793 -0.798,2.777 -0.247,-0.087 -0.543,-0.171 -0.891,-0.247 -0.35,-0.078 -0.675,-0.138 -0.978,-0.183 -1.813,-0.27 -3.436,-0.191 -4.863,0.241 -1.431,0.433 -2.721,1.05 -3.872,1.86 -1.15,0.806 -2.204,1.744 -3.161,2.814 -0.957,1.067 -1.849,2.132 -2.676,3.194 l 0.011,-0.075 c -0.378,0.458 -0.74,0.906 -1.088,1.346 -0.35,0.436 -0.679,0.837 -0.989,1.204 l -0.023,0.151 c -0.291,0.213 -0.565,0.496 -0.822,0.844 -0.258,0.346 -0.404,0.646 -0.442,0.9 -0.068,0.453 0.049,0.869 0.356,1.25 0.302,0.38 0.706,0.608 1.21,0.683 0.455,0.067 0.89,-0.01 1.31,-0.232 0.42,-0.22 0.821,-0.507 1.21,-0.861 0.387,-0.356 0.753,-0.74 1.098,-1.151 0.343,-0.412 0.665,-0.752 0.963,-1.017 0.912,-0.946 1.791,-1.833 2.635,-2.659 0.844,-0.828 1.758,-1.517 2.741,-2.065 0.983,-0.55 2.036,-0.96 3.158,-1.232 1.124,-0.27 2.416,-0.323 3.887,-0.156 -0.267,1.094 -0.512,2.306 -0.734,3.64 -0.225,1.33 -0.512,3.078 -0.857,5.242 -0.348,2.163 -0.77,4.919 -1.269,8.271 -0.498,3.353 -1.129,7.599 -1.893,12.739 l -0.075,-0.012 c -0.62,0.012 -1.511,0.032 -2.676,0.066 -1.165,0.032 -2.326,0.131 -3.482,0.294 -1.157,0.163 -2.187,0.421 -3.091,0.777 -0.901,0.355 -1.406,0.885 -1.511,1.591 -0.187,1.26 -0.086,2.575 0.302,3.947 0.388,1.372 0.947,2.728 1.674,4.073 0.728,1.345 1.552,2.638 2.475,3.884 0.923,1.244 1.815,2.42 2.682,3.529 l -0.076,-0.011 1.546,2.083 c -0.269,1.813 -0.498,3.351 -0.685,4.611 -0.188,1.258 -0.379,2.456 -0.572,3.585 -0.196,1.129 -0.398,2.324 -0.61,3.58 -0.212,1.255 -0.484,2.813 -0.81,4.669 l -0.079,0.53 c -0.127,0.856 0.041,1.538 0.507,2.046 0.466,0.506 1.025,0.809 1.68,0.906 0.504,0.075 0.98,0.004 1.424,-0.213 0.444,-0.218 0.816,-0.639 1.116,-1.264"
       style="fill:#b0883d;fill-opacity:1;fill-rule:nonzero;stroke:none;stroke-width:0.1"
       id="path20" /><path
       d="m 255.812,434.897 c -46.008,18.231 -109.336,-31.48 -90.468,-81.388 8.843,-23.393 36.767,-39.925 61.087,-40.582 21.465,-0.582 41.238,11.311 54.061,27.929 11.013,14.266 16.682,32.958 13.558,50.856 -3.598,20.646 -19.858,35.053 -38.238,43.185 -1.976,0.874 -3.209,-2.231 -1.246,-3.099 24.194,-10.704 40.375,-31.828 36.342,-59.034 -3.394,-22.867 -20.312,-43.093 -41.32,-52.055 -26.396,-11.267 -56.168,0.5 -73.831,21.685 -20.372,24.433 -7.598,57.042 13.853,75.704 17.63,15.337 42.697,22.521 64.956,13.7 2.006,-0.795 3.245,2.306 1.246,3.099"
       style="fill:#b0883d;fill-opacity:1;fill-rule:nonzero;stroke:none;stroke-width:0.1"
       id="path22" /><path
       d="m 230.289,399.327 c -0.545,0 -1.09,10e-4 -1.633,0.002 -0.028,0.195 -0.057,0.393 -0.087,0.594 1.328,1.126 2.645,1.785 3.955,1.98 0.293,0.043 0.585,0.065 0.877,0.065 1.267,0 2.527,-0.41 3.78,-1.229 l -0.078,-0.011 c 0.521,-0.386 1.064,-0.579 1.632,-0.579 0.126,0 0.254,0.01 0.383,0.029 0.554,0.082 1.013,0.37 1.38,0.862 0.362,0.49 0.501,1.041 0.411,1.646 -0.113,0.755 -0.429,1.326 -0.952,1.712 l 0.011,-0.076 c -2.097,1.555 -4.254,2.333 -6.47,2.333 -0.474,0 -0.951,-0.035 -1.43,-0.107 -0.656,-0.097 -1.327,-0.263 -2.014,-0.493 -0.689,-0.232 -1.365,-0.525 -2.032,-0.881 -0.217,1.461 -0.432,2.717 -0.638,3.769 -0.209,1.051 -0.428,2.1 -0.66,3.146 -0.235,1.048 -0.505,2.166 -0.809,3.358 -0.307,1.191 -0.637,2.635 -0.991,4.333 -0.3,0.625 -0.672,1.046 -1.116,1.264 -0.33,0.162 -0.678,0.242 -1.042,0.242 -0.125,0 -0.253,-0.01 -0.382,-0.029 -0.655,-0.097 -1.214,-0.4 -1.68,-0.906 -0.466,-0.508 -0.634,-1.19 -0.507,-2.046 l 0.079,-0.53 c 0.326,-1.856 0.598,-3.414 0.81,-4.669 0.212,-1.256 0.414,-2.451 0.61,-3.58 0.193,-1.129 0.384,-2.327 0.572,-3.585 0.187,-1.26 0.416,-2.798 0.685,-4.611 l -1.442,-1.943 c -17.051,0.232 -32.718,1.112 -46.136,2.202 3.923,6.159 8.8,11.781 14.235,16.509 12.39,10.778 28.453,17.53 44.633,17.53 6.843,0 13.707,-1.208 20.323,-3.83 v 0 c 14.578,-6.449 26.246,-16.681 32.337,-29.748 -19.573,-1.971 -38.74,-2.723 -56.614,-2.723"
       style="fill:#deaa48;fill-opacity:1;fill-rule:nonzero;stroke:none;stroke-width:0.1"
       id="path24" /><path
       d="m 228.656,399.329 c -2.406,0.006 -4.79,0.026 -7.145,0.058 l 1.442,1.943 c -0.269,1.813 -0.498,3.351 -0.685,4.611 -0.188,1.258 -0.379,2.456 -0.572,3.585 -0.196,1.129 -0.398,2.324 -0.61,3.58 -0.212,1.255 -0.484,2.813 -0.81,4.669 l -0.079,0.53 c -0.127,0.856 0.041,1.538 0.507,2.046 0.466,0.506 1.025,0.809 1.68,0.906 0.129,0.019 0.257,0.029 0.382,0.029 0.364,0 0.712,-0.08 1.042,-0.242 0.444,-0.218 0.816,-0.639 1.116,-1.264 0.354,-1.698 0.684,-3.142 0.991,-4.333 0.304,-1.192 0.574,-2.31 0.809,-3.358 0.232,-1.046 0.451,-2.095 0.66,-3.146 0.206,-1.052 0.421,-2.308 0.638,-3.769 0.667,0.356 1.343,0.649 2.032,0.881 0.687,0.23 1.358,0.396 2.014,0.493 0.479,0.072 0.956,0.107 1.43,0.107 2.216,0 4.373,-0.778 6.47,-2.333 l -0.011,0.076 c 0.523,-0.386 0.839,-0.957 0.952,-1.712 0.09,-0.605 -0.049,-1.156 -0.411,-1.646 -0.367,-0.492 -0.826,-0.78 -1.38,-0.862 -0.129,-0.019 -0.257,-0.029 -0.383,-0.029 -0.568,0 -1.111,0.193 -1.632,0.579 l 0.078,0.011 c -1.253,0.819 -2.513,1.229 -3.78,1.229 -0.292,0 -0.584,-0.022 -0.877,-0.065 -1.31,-0.195 -2.627,-0.854 -3.955,-1.98 0.03,-0.201 0.059,-0.399 0.087,-0.594"
       style="fill:#a27d3b;fill-opacity:1;fill-rule:nonzero;stroke:none;stroke-width:0.1"
       id="path26" /><path
       d="m 261.314,438.668 v 0 0 m -0.113,0.052 c -0.006,0.003 -0.004,0.002 -0.01,0.004 0.004,-10e-4 0.006,-0.002 0.01,-0.004 m -0.115,0.052 c -0.006,0.003 -0.009,0.004 -0.014,0.007 0.004,-0.002 0.009,-0.005 0.014,-0.007 m -0.113,0.052 c -0.006,0.002 -0.016,0.007 -0.022,0.01 0.007,-0.003 0.015,-0.007 0.022,-0.01 m -0.114,0.051 c -0.012,0.006 -0.015,0.007 -0.027,0.012 0.01,-0.004 0.017,-0.007 0.027,-0.012 m -0.115,0.052 c -0.006,0.003 -0.025,0.011 -0.031,0.014 0.011,-0.005 0.02,-0.009 0.031,-0.014 m -0.115,0.052 c -0.012,0.005 -0.022,0.01 -0.034,0.015 0.011,-0.005 0.023,-0.01 0.034,-0.015 m -0.113,0.051 c -0.018,0.008 -0.022,0.01 -0.04,0.018 0.013,-0.006 0.026,-0.012 0.04,-0.018 m -0.116,0.052 c -0.012,0.005 -0.029,0.012 -0.041,0.018 0.013,-0.006 0.027,-0.012 0.041,-0.018 m -0.115,0.051 c -0.018,0.008 -0.026,0.011 -0.044,0.019 0.014,-0.006 0.029,-0.013 0.044,-0.019 m -0.117,0.051 c -0.012,0.006 -0.033,0.015 -0.045,0.02 0.016,-0.007 0.029,-0.013 0.045,-0.02 m -0.115,0.052 c -0.018,0.008 -0.03,0.013 -0.048,0.02 0.017,-0.007 0.032,-0.013 0.048,-0.02 m -0.118,0.051 c -0.018,0.008 -0.029,0.013 -0.047,0.021 0.016,-0.007 0.031,-0.014 0.047,-0.021 m -0.115,0.051 c -0.018,0.008 -0.032,0.014 -0.05,0.022 0.017,-0.008 0.032,-0.014 0.05,-0.022 m -0.116,0.051 c -0.018,0.008 -0.034,0.015 -0.052,0.023 0.017,-0.008 0.035,-0.016 0.052,-0.023 m -0.118,0.051 c -0.018,0.008 -0.034,0.015 -0.052,0.023 0.018,-0.008 0.035,-0.015 0.052,-0.023 m -0.12,0.052 c -0.018,0.008 -0.032,0.014 -0.05,0.022 0.016,-0.007 0.034,-0.015 0.05,-0.022 m -0.116,0.051 c -0.018,0.008 -0.034,0.015 -0.052,0.022 0.017,-0.007 0.035,-0.015 0.052,-0.022 m -0.17,0.073 c -7.036,2.917 -14.238,4.571 -21.396,5.131 7.158,-0.56 14.359,-2.214 21.396,-5.131"
       style="fill:#2f556d;fill-opacity:1;fill-rule:nonzero;stroke:none;stroke-width:0.1"
       id="path28" /><path
       d="m 170.866,401.97 c -3.116,0.274 -6.096,0.557 -8.926,0.843 12.637,24.092 40.689,42.152 70.248,42.152 1.861,0 3.726,-0.071 5.596,-0.218 7.158,-0.56 14.36,-2.214 21.396,-5.131 v 0 c 0.039,-0.017 0.079,-0.034 0.118,-0.051 0.018,-0.007 0.034,-0.014 0.052,-0.022 0.023,-0.01 0.044,-0.019 0.066,-0.029 0.018,-0.008 0.032,-0.014 0.05,-0.022 0.023,-0.009 0.046,-0.019 0.068,-0.029 0.018,-0.008 0.034,-0.015 0.052,-0.023 0.022,-0.009 0.043,-0.019 0.066,-0.028 0.018,-0.008 0.034,-0.015 0.052,-0.023 0.021,-0.009 0.045,-0.02 0.066,-0.029 0.018,-0.008 0.032,-0.014 0.05,-0.022 0.022,-0.01 0.046,-0.02 0.068,-0.03 0.018,-0.008 0.029,-0.013 0.047,-0.021 0.024,-0.01 0.047,-0.02 0.07,-0.031 0.018,-0.007 0.03,-0.012 0.048,-0.02 0.022,-0.01 0.048,-0.022 0.07,-0.032 0.012,-0.005 0.033,-0.014 0.045,-0.02 0.024,-0.01 0.049,-0.021 0.073,-0.032 0.018,-0.008 0.026,-0.011 0.044,-0.019 0.024,-0.011 0.049,-0.022 0.074,-0.033 0.012,-0.006 0.029,-0.013 0.041,-0.018 0.026,-0.012 0.05,-0.023 0.076,-0.034 0.018,-0.008 0.022,-0.01 0.04,-0.018 0.026,-0.012 0.053,-0.024 0.079,-0.036 0.012,-0.005 0.022,-0.01 0.034,-0.015 0.028,-0.013 0.056,-0.025 0.084,-0.038 0.006,-0.003 0.025,-0.011 0.031,-0.014 0.028,-0.013 0.06,-0.027 0.088,-0.04 0.012,-0.005 0.015,-0.006 0.027,-0.012 0.03,-0.013 0.061,-0.027 0.092,-0.041 0.006,-0.003 0.016,-0.008 0.022,-0.01 0.033,-0.015 0.066,-0.03 0.099,-0.045 0.005,-0.003 0.008,-0.004 0.014,-0.007 0.034,-0.015 0.071,-0.032 0.105,-0.048 0.006,-0.002 0.004,-10e-4 0.01,-0.004 0.037,-0.017 0.075,-0.034 0.113,-0.052 v 0 c 19.236,-8.812 30.734,-21.453 36.17,-35.435 -2.215,-0.272 -4.427,-0.529 -6.635,-0.769 -6.425,14.931 -19.946,25.726 -34.891,32.369 -0.047,0.023 -0.095,0.044 -0.146,0.064 v 0 c -0.051,0.023 -0.102,0.043 -0.152,0.06 -6.605,2.594 -13.571,3.792 -20.59,3.792 -25.113,0 -50.994,-15.309 -64.204,-36.779"
       style="fill:#deaa48;fill-opacity:1;fill-rule:nonzero;stroke:none;stroke-width:0.1"
       id="path30" /><path
       d="m 175.375,401.589 c -1.534,0.125 -3.035,0.252 -4.509,0.381 13.21,21.47 39.091,36.779 64.204,36.779 7.019,0 13.985,-1.198 20.59,-3.792 0.05,-0.017 0.101,-0.037 0.152,-0.06 v 0 c 0.051,-0.02 0.099,-0.041 0.146,-0.064 14.945,-6.643 28.466,-17.438 34.891,-32.369 -1.316,-0.143 -2.634,-0.281 -3.946,-0.414 -6.091,13.067 -17.759,23.299 -32.337,29.748 v 0 c -6.616,2.622 -13.48,3.83 -20.323,3.83 -16.18,0 -32.243,-6.752 -44.633,-17.53 -5.435,-4.728 -10.312,-10.35 -14.235,-16.509"
       style="fill:#a27d3b;fill-opacity:1;fill-rule:nonzero;stroke:none;stroke-width:0.1"
       id="path32" /><path
       d="m 357.618,639.006 c -159.075,0 -225.65,-31.027 -225.65,-156.964 v -12.455 h 197.525 v 8.471 c 0,41.725 31.566,71.753 87.96,71.753 H 600 v 89.195 H 357.618"
       style="fill:#dbdad8;fill-opacity:1;fill-rule:nonzero;stroke:none;stroke-width:0.1"
       id="path42" /><path
       d="m 131.968,418.807 c 65.139,-3.079 125.632,-2.789 197.525,0 4.554,0 8.246,3.692 8.246,8.246 v 34.288 c 0,4.554 -3.692,8.246 -8.246,8.246 -63.626,4.484 -124.515,3.837 -197.525,0 -4.554,0 -8.246,-3.692 -8.246,-8.246 v -34.288 c 0,-4.554 3.692,-8.246 8.246,-8.246"
       style="fill:#b7b6b5;fill-opacity:1;fill-rule:nonzero;stroke:none;stroke-width:0.1"
       id="path44" /><path
       d="m 424.104,698.116 c 0,0 9.017,11.524 30.06,12.526 21.043,1.002 54.611,6.681 69.141,-2.672 14.529,-9.353 8.015,-24.383 -2.004,-26.888 -10.021,-2.505 -59.12,-6.94 -72.147,-4.609 -7.168,1.282 -20.542,5.611 -25.05,10.621 -4.51,5.01 0,11.022 0,11.022"
       style="fill:#b7b6b5;fill-opacity:1;fill-rule:nonzero;stroke:none;stroke-width:0.1"
       id="path46" /><path
       d="m 430.39,682.709 c -0.005,0.002 -0.01,0.005 -0.015,0.007 0.005,-0.002 0.01,-0.005 0.015,-0.007 m -0.036,0.018 c -0.011,0.005 -0.022,0.011 -0.033,0.017 0.011,-0.006 0.022,-0.011 0.033,-0.017 m -0.04,0.02 c -2.614,1.34 -4.829,2.811 -6.21,4.347 -1.502,1.668 -2.004,3.448 -2.005,5.08 0.001,-1.632 0.503,-3.412 2.005,-5.08 1.382,-1.535 3.597,-3.007 6.21,-4.347"
       style="fill:#2f556d;fill-opacity:1;fill-rule:nonzero;stroke:none;stroke-width:0.1"
       id="path48" /><path
       d="m 433.908,681.084 c -1.221,0.514 -2.405,1.057 -3.518,1.625 -0.005,0.002 -0.01,0.005 -0.015,0.007 -0.007,0.004 -0.013,0.007 -0.021,0.011 -0.011,0.006 -0.022,0.011 -0.033,0.017 -0.002,10e-4 -0.004,0.002 -0.007,0.003 -2.613,1.34 -4.828,2.812 -6.21,4.347 -1.502,1.668 -2.004,3.448 -2.005,5.08 -0.002,3.268 2.005,5.942 2.005,5.942 0,0 3.039,3.873 9.688,7.324 1.934,-4.177 4.98,-13.566 0.116,-24.356"
       style="fill:#a9a9a7;fill-opacity:1;fill-rule:nonzero;stroke:none;stroke-width:0.1"
       id="path50" /><path
       d="m 354.916,687.959 c 0,0 -9.018,-11.524 -30.061,-12.525 -21.042,-1.002 -50.602,-6.682 -65.132,2.671 -14.529,9.353 -6.012,26.387 4.008,28.893 10.021,2.504 53.108,4.935 66.134,2.605 7.168,-1.283 20.542,-5.612 25.051,-10.622 4.51,-5.01 0,-11.022 0,-11.022"
       style="fill:#b7b6b5;fill-opacity:1;fill-rule:nonzero;stroke:none;stroke-width:0.1"
       id="path52" /><path
       d="m 354.916,687.959 v 0 0 m 0,11.022 c -0.607,0.675 -1.375,1.337 -2.267,1.981 0.892,-0.644 1.66,-1.306 2.267,-1.981 m -2.274,1.986 c -0.009,0.007 -0.018,0.013 -0.027,0.02 0.009,-0.007 0.018,-0.013 0.027,-0.02 m -0.043,0.031 c -0.006,0.005 -0.011,0.009 -0.017,0.013 0.005,-0.004 0.011,-0.008 0.017,-0.013 m -0.043,0.031 c -10e-4,10e-4 -0.003,0.002 -0.004,0.003 10e-4,-0.001 0.003,-0.002 0.004,-0.003"
       style="fill:#2f556d;fill-opacity:1;fill-rule:nonzero;stroke:none;stroke-width:0.1"
       id="path54" /><path
       d="m 346.224,681.169 c -3.269,9.886 -2.454,18.585 -1.298,23.899 2.888,-1.204 5.575,-2.572 7.626,-4.036 10e-4,-0.001 0.003,-0.002 0.004,-0.003 0.009,-0.006 0.017,-0.013 0.026,-0.018 0.006,-0.004 0.011,-0.008 0.017,-0.013 0.005,-0.003 0.01,-0.007 0.016,-0.011 0.009,-0.007 0.018,-0.013 0.027,-0.02 0.002,-10e-4 0.005,-0.003 0.007,-0.005 0.892,-0.644 1.66,-1.306 2.267,-1.981 v 0 c 1.502,-1.668 2.003,-3.448 2.004,-5.079 0.002,-3.268 -2.004,-5.943 -2.004,-5.943 v 0 0 0 c -0.028,-0.036 -2.766,-3.503 -8.692,-6.79"
       style="fill:#a9a9a7;fill-opacity:1;fill-rule:nonzero;stroke:none;stroke-width:0.1"
       id="path56" /><path
       d="m 361.059,639.006 h 55.6102 v 33.459 H 361.059 Z"
       style="fill:#b7b6b5;fill-opacity:1;fill-rule:nonzero;stroke:none;stroke-width:0.1"
       id="path58" /><path
       d="m 387.653,663.966 c -10.75,10e-4 -20.188,1.799 -26.594,3.453 v 5.046 h 55.61 v -3.483 c -9.922,-3.734 -19.937,-5.016 -29.016,-5.016"
       style="fill:#a9a9a7;fill-opacity:1;fill-rule:nonzero;stroke:none;stroke-width:0.1"
       id="path60" /><path
       d="m 361.059,672.465 c 25.802,-5.245 55.61,0 55.61,0 17.622,2.438 22.298,34.169 5.263,42.185 h -60.873 c -19.289,-1.336 -15.07,-39.123 0,-42.185"
       style="fill:#dbdad8;fill-opacity:1;fill-rule:nonzero;stroke:none;stroke-width:0.1"
       id="path62" /><path
       d="m 361.059,714.65 c 12.235,10.605 45.508,15.364 60.873,0 -25.051,-11.691 -45.425,-8.684 -60.873,0"
       style="fill:#b7b6b5;fill-opacity:1;fill-rule:nonzero;stroke:none;stroke-width:0.1"
       id="path64" /></g></svg>
