<?xml version="1.0" encoding="UTF-8" standalone="no"?>
<svg
   xmlns:dc="http://purl.org/dc/elements/1.1/"
   xmlns:cc="http://creativecommons.org/ns#"
   xmlns:rdf="http://www.w3.org/1999/02/22-rdf-syntax-ns#"
   xmlns:svg="http://www.w3.org/2000/svg"
   xmlns="http://www.w3.org/2000/svg"
   xmlns:sodipodi="http://sodipodi.sourceforge.net/DTD/sodipodi-0.dtd"
   xmlns:inkscape="http://www.inkscape.org/namespaces/inkscape"
   version="1.1"
   id="svg2"
   xml:space="preserve"
   width="650.3537"
   height="817.99066"
   viewBox="0 0 650.35367 817.99062"
   sodipodi:docname="lack-money.svg"
   inkscape:version="1.0.1 (1.0.1+r73)"><metadata
     id="metadata8"><rdf:RDF><cc:Work
         rdf:about=""><dc:format>image/svg+xml</dc:format><dc:type
           rdf:resource="http://purl.org/dc/dcmitype/StillImage" /><dc:title /></cc:Work></rdf:RDF></metadata><defs
     id="defs6" /><sodipodi:namedview
     pagecolor="#ffffff"
     bordercolor="#666666"
     borderopacity="1"
     objecttolerance="10"
     gridtolerance="10"
     guidetolerance="10"
     inkscape:pageopacity="0"
     inkscape:pageshadow="2"
     inkscape:window-width="1896"
     inkscape:window-height="1019"
     id="namedview4"
     showgrid="false"
     inkscape:zoom="0.59"
     inkscape:cx="187.27049"
     inkscape:cy="446.23087"
     inkscape:window-x="1932"
     inkscape:window-y="12"
     inkscape:window-maximized="0"
     inkscape:current-layer="g10"
     inkscape:document-rotation="0" /><g
     id="g10"
     inkscape:groupmode="layer"
     inkscape:label="ink_ext_XXXXXX"
     transform="matrix(1.3333333,0,0,-1.3333333,-198.85163,894.46773)"><path
       d="m 247.964,153.422 c -26.198,0 -47.437,6.775 -47.438,15.134 -0.001,8.358 21.236,15.134 47.435,15.134 26.199,0 47.437,-6.776 47.438,-15.134 10e-4,-8.359 -21.236,-15.134 -47.435,-15.134"
       style="fill:#5d81ac;fill-opacity:1;fill-rule:nonzero;stroke:none;stroke-width:0.1"
       id="path16" /><path
       d="m 367.509,57.3578 c -26.198,0 -47.437,6.7762 -47.438,15.1344 -0.001,8.359 21.236,15.1348 47.435,15.1348 26.199,0 47.437,-6.7758 47.438,-15.1348 10e-4,-8.3582 -21.236,-15.1344 -47.435,-15.1344"
       style="fill:#5d81ac;fill-opacity:1;fill-rule:nonzero;stroke:none;stroke-width:0.1"
       id="path18" /><path
       d="m 542.827,126.026 c -20.422,0 -36.979,5.281 -36.979,11.797 -0.001,6.515 16.554,11.797 36.976,11.797 20.423,0 36.979,-5.282 36.98,-11.797 10e-4,-6.516 -16.554,-11.797 -36.977,-11.797"
       style="fill:#5d81ac;fill-opacity:1;fill-rule:nonzero;stroke:none;stroke-width:0.1"
       id="path20" /><path
       d="m 395.133,119.723 c -39.988,0 -72.407,10.342 -72.408,23.1 -0.002,12.758 32.414,23.1 72.403,23.1 39.989,0 72.407,-10.342 72.409,-23.1 0.001,-12.758 -32.415,-23.1 -72.404,-23.1"
       style="fill:#5d81ac;fill-opacity:1;fill-rule:nonzero;stroke:none;stroke-width:0.1"
       id="path22" /><path
       d="m 517.599,206.604 -5.23,-7.248 c -4.579,-6.346 6.856,-22.42 25.541,-35.902 18.684,-13.483 37.544,-19.268 42.123,-12.922 l 5.23,7.248 -67.664,48.824"
       style="fill:#ecb627;fill-opacity:1;fill-rule:nonzero;stroke:none;stroke-width:0.1"
       id="path24" /><path
       d="m 585.263,157.78 c -4.58,-6.346 -23.439,-0.561 -42.124,12.922 -18.684,13.482 -30.119,29.556 -25.54,35.902 4.579,6.346 23.438,0.561 42.123,-12.921 18.685,-13.483 30.12,-29.557 25.541,-35.903"
       style="fill:#fbd14e;fill-opacity:1;fill-rule:nonzero;stroke:none;stroke-width:0.1"
       id="path26" /><path
       d="m 578.969,162.321 c -3.727,-5.165 -19.078,-0.456 -34.287,10.518 -15.209,10.975 -24.517,24.059 -20.79,29.224 3.727,5.166 19.078,0.457 34.287,-10.518 15.209,-10.974 24.517,-24.058 20.79,-29.224"
       style="fill:#ecb627;fill-opacity:1;fill-rule:nonzero;stroke:none;stroke-width:0.1"
       id="path28" /><path
       d="M 326.9,86.6539 V 77.716 c 0,-7.8258 18.679,-14.1699 41.72,-14.1699 23.041,0 41.72,6.3441 41.72,14.1699 v 8.9379 H 326.9"
       style="fill:#ecb627;fill-opacity:1;fill-rule:nonzero;stroke:none;stroke-width:0.1"
       id="path30" /><path
       d="m 410.34,86.6539 c 0,-7.8258 -18.679,-14.1699 -41.72,-14.1699 -23.041,0 -41.72,6.3441 -41.72,14.1699 0,7.825 18.679,14.1691 41.72,14.1691 23.041,0 41.72,-6.3441 41.72,-14.1691"
       style="fill:#fbd14e;fill-opacity:1;fill-rule:nonzero;stroke:none;stroke-width:0.1"
       id="path32" /><path
       d="m 402.579,86.6539 c 0,-6.3699 -15.204,-11.534 -33.959,-11.534 -18.755,0 -33.959,5.1641 -33.959,11.534 0,6.3691 15.204,11.5332 33.959,11.5332 18.755,0 33.959,-5.1641 33.959,-11.5332"
       style="fill:#ecb627;fill-opacity:1;fill-rule:nonzero;stroke:none;stroke-width:0.1"
       id="path34" /><path
       d="m 206.243,182.568 v -8.938 c 0,-7.825 18.678,-14.169 41.72,-14.169 23.041,0 41.719,6.344 41.719,14.169 v 8.938 h -83.439"
       style="fill:#ecb627;fill-opacity:1;fill-rule:nonzero;stroke:none;stroke-width:0.1"
       id="path36" /><path
       d="m 289.682,182.568 c 0,-7.825 -18.678,-14.169 -41.719,-14.169 -23.042,0 -41.72,6.344 -41.72,14.169 0,7.826 18.678,14.17 41.72,14.17 23.041,0 41.719,-6.344 41.719,-14.17"
       style="fill:#fbd14e;fill-opacity:1;fill-rule:nonzero;stroke:none;stroke-width:0.1"
       id="path38" /><path
       d="m 281.922,182.568 c 0,-6.37 -15.204,-11.533 -33.959,-11.533 -18.756,0 -33.96,5.163 -33.96,11.533 0,6.37 15.204,11.534 33.96,11.534 18.755,0 33.959,-5.164 33.959,-11.534"
       style="fill:#ecb627;fill-opacity:1;fill-rule:nonzero;stroke:none;stroke-width:0.1"
       id="path40" /><path
       d="m 395.131,229.055 c -1.381,0 -2.5,1.119 -2.5,2.5 v 14.043 c 0,1.381 1.119,2.5 2.5,2.5 1.381,0 2.5,-1.119 2.5,-2.5 v -14.043 c 0,-1.381 -1.119,-2.5 -2.5,-2.5 z m 0,-29.957 c -1.381,0 -2.5,1.119 -2.5,2.5 v 14.043 c 0,1.38 1.119,2.5 2.5,2.5 1.381,0 2.5,-1.12 2.5,-2.5 v -14.043 c 0,-1.381 -1.119,-2.5 -2.5,-2.5 z m 0,-29.958 c -1.381,0 -2.5,1.119 -2.5,2.5 v 14.043 c 0,1.38 1.119,2.5 2.5,2.5 1.381,0 2.5,-1.12 2.5,-2.5 V 171.64 c 0,-1.381 -1.119,-2.5 -2.5,-2.5"
       style="fill:#d6e8da;fill-opacity:1;fill-rule:nonzero;stroke:none;stroke-width:0.1"
       id="path42" /><path
       d="m 395.131,288.699 c -1.381,0 -2.5,1.119 -2.5,2.5 v 14.043 c 0,1.381 1.119,2.5 2.5,2.5 1.381,0 2.5,-1.119 2.5,-2.5 v -14.043 c 0,-1.381 -1.119,-2.5 -2.5,-2.5 z m 0,-29.957 c -1.381,0 -2.5,1.119 -2.5,2.5 v 14.043 c 0,1.381 1.119,2.5 2.5,2.5 1.381,0 2.5,-1.119 2.5,-2.5 v -14.043 c 0,-1.381 -1.119,-2.5 -2.5,-2.5"
       style="fill:#d6e8da;fill-opacity:1;fill-rule:nonzero;stroke:none;stroke-width:0.1"
       id="path44" /><path
       d="m 395.132,145.725 c -0.154,0 -0.31,0.014 -0.466,0.044 -1.181,0.223 -2.035,1.254 -2.035,2.456 v 7.5 c 0,1.381 1.119,2.5 2.5,2.5 0.818,0 1.545,-0.394 2.001,-1.001 0.699,0.371 1.562,0.403 2.317,0.014 1.228,-0.632 1.71,-2.139 1.078,-3.367 -2.051,-3.983 -3.059,-6.534 -3.069,-6.559 -0.381,-0.97 -1.314,-1.587 -2.326,-1.587"
       style="fill:#d6e8da;fill-opacity:1;fill-rule:nonzero;stroke:none;stroke-width:0.1"
       id="path46" /><path
       d="m 451.027,202.983 c -1.008,0 -1.96,0.617 -2.338,1.617 -0.489,1.292 0.163,2.734 1.454,3.222 4.436,1.679 9.048,2.97 13.708,3.838 1.358,0.249 2.662,-0.642 2.916,-2 0.253,-1.357 -0.643,-2.663 -2,-2.916 -4.37,-0.813 -8.695,-2.024 -12.855,-3.598 -0.291,-0.11 -0.591,-0.163 -0.885,-0.163 z M 425.88,187.904 c -0.707,0 -1.409,0.298 -1.903,0.878 -0.896,1.051 -0.771,2.629 0.28,3.525 3.667,3.127 7.518,5.944 11.446,8.374 1.175,0.726 2.716,0.364 3.442,-0.811 0.726,-1.175 0.363,-2.715 -0.811,-3.441 -3.714,-2.297 -7.358,-4.964 -10.833,-7.927 -0.471,-0.401 -1.047,-0.598 -1.621,-0.598 z m -19.543,-21.962 c -0.487,0 -0.98,0.142 -1.412,0.439 -1.139,0.78 -1.429,2.337 -0.648,3.475 2.696,3.931 5.596,7.686 8.618,11.161 0.907,1.042 2.486,1.151 3.527,0.245 1.042,-0.906 1.151,-2.485 0.245,-3.527 -2.897,-3.331 -5.679,-6.932 -8.267,-10.707 -0.484,-0.706 -1.267,-1.086 -2.063,-1.086"
       style="fill:#d6e8da;fill-opacity:1;fill-rule:nonzero;stroke:none;stroke-width:0.1"
       id="path48" /><path
       d="m 487.392,207.68 -0.233,0.01 c -2.44,0.225 -4.891,0.348 -7.284,0.368 -1.38,0.01 -2.49,1.139 -2.48,2.519 0.011,1.374 1.128,2.481 2.5,2.481 h 0.021 c 2.531,-0.021 5.122,-0.152 7.702,-0.389 1.375,-0.126 2.387,-1.344 2.26,-2.719 -0.119,-1.297 -1.209,-2.27 -2.486,-2.27"
       style="fill:#d6e8da;fill-opacity:1;fill-rule:nonzero;stroke:none;stroke-width:0.1"
       id="path50" /><path
       d="m 543.091,211.05 c 0,0 0.223,-0.035 0.641,-0.102 0.417,-0.071 1.035,-0.168 1.804,-0.348 0.777,-0.16 1.704,-0.404 2.772,-0.69 1.05,-0.326 2.263,-0.639 3.532,-1.12 0.641,-0.228 1.309,-0.465 2,-0.712 0.684,-0.262 1.376,-0.57 2.098,-0.868 1.45,-0.578 2.927,-1.307 4.456,-2.061 0.766,-0.373 1.511,-0.817 2.286,-1.232 0.764,-0.431 1.563,-0.828 2.309,-1.328 1.492,-0.994 3.077,-1.903 4.526,-3.017 0.728,-0.551 1.456,-1.101 2.181,-1.65 0.727,-0.544 1.388,-1.171 2.078,-1.747 0.685,-0.582 1.355,-1.171 2.006,-1.763 0.616,-0.632 1.223,-1.256 1.821,-1.871 0.591,-0.619 1.194,-1.206 1.743,-1.82 0.516,-0.643 1.02,-1.273 1.511,-1.887 0.487,-0.613 0.961,-1.209 1.42,-1.785 0.457,-0.577 0.803,-1.21 1.185,-1.775 0.743,-1.147 1.408,-2.203 1.969,-3.153 0.501,-0.991 0.908,-1.867 1.247,-2.582 0.67,-1.435 1.023,-2.258 1.023,-2.258 0,0 -0.578,0.707 -1.535,1.95 -0.474,0.625 -1.055,1.375 -1.688,2.25 -0.71,0.823 -1.533,1.73 -2.384,2.746 -0.826,1.035 -1.858,2.039 -2.914,3.123 -0.527,0.541 -1.069,1.097 -1.622,1.665 -0.588,0.534 -1.188,1.079 -1.798,1.634 -0.608,0.555 -1.225,1.119 -1.85,1.69 -0.668,0.524 -1.335,1.063 -1.997,1.618 -0.674,0.54 -1.317,1.129 -2.028,1.64 -0.708,0.515 -1.418,1.032 -2.129,1.549 -1.371,1.1 -2.887,2.005 -4.308,2.995 -1.467,0.92 -2.901,1.852 -4.322,2.699 -1.451,0.793 -2.802,1.667 -4.156,2.361 -1.336,0.73 -2.608,1.409 -3.798,2.011 -1.182,0.622 -2.295,1.129 -3.264,1.629 -0.991,0.441 -1.839,0.886 -2.558,1.196 -0.715,0.325 -1.278,0.581 -1.661,0.756 -0.389,0.167 -0.596,0.257 -0.596,0.257"
       style="fill:#bfdbc7;fill-opacity:1;fill-rule:nonzero;stroke:none;stroke-width:0.1"
       id="path52" /><path
       d="m 558.714,211.758 c 0,0 2.119,-0.259 5.106,-1.363 0.754,-0.257 1.547,-0.592 2.385,-0.952 0.826,-0.383 1.71,-0.771 2.581,-1.252 0.868,-0.486 1.793,-0.947 2.662,-1.532 0.892,-0.547 1.77,-1.147 2.633,-1.77 0.872,-0.611 1.677,-1.31 2.491,-1.968 0.834,-0.635 1.528,-1.41 2.264,-2.079 0.745,-0.663 1.345,-1.427 1.963,-2.096 0.627,-0.662 1.145,-1.355 1.617,-1.996 0.475,-0.638 0.921,-1.211 1.263,-1.76 0.346,-0.545 0.63,-1.032 0.866,-1.429 0.468,-0.798 0.718,-1.26 0.718,-1.26 0,0 -0.388,0.366 -1.034,1.019 -0.317,0.329 -0.702,0.729 -1.144,1.187 -0.436,0.46 -0.984,0.93 -1.529,1.481 -0.555,0.544 -1.154,1.131 -1.825,1.714 -0.672,0.581 -1.333,1.238 -2.087,1.843 -0.747,0.611 -1.49,1.272 -2.297,1.882 -0.799,0.619 -1.591,1.273 -2.444,1.847 -0.819,0.62 -1.653,1.218 -2.504,1.766 -0.835,0.572 -1.672,1.112 -2.488,1.628 -0.826,0.503 -1.625,0.989 -2.382,1.449 -0.777,0.426 -1.493,0.873 -2.18,1.237 -2.722,1.505 -4.635,2.404 -4.635,2.404"
       style="fill:#bfdbc7;fill-opacity:1;fill-rule:nonzero;stroke:none;stroke-width:0.1"
       id="path54" /><path
       d="m 240.45,548.921 -5.401,3.54 c 0.045,0.066 0.091,0.132 0.136,0.199 l 5.368,-3.571 c -0.033,-0.054 -0.07,-0.114 -0.103,-0.168"
       style="fill:#80a991;fill-opacity:1;fill-rule:nonzero;stroke:none;stroke-width:0.1"
       id="path58" /><path
       d="m 489.434,273.605 c -3.582,0.465 -6.65,2.324 -8.723,4.967 l -0.146,0.189 -52.749,68.467 83.148,-10.781 -6.664,-51.396 c -0.943,-7.269 -7.596,-12.388 -14.866,-11.446"
       style="fill:#b84226;fill-opacity:1;fill-rule:nonzero;stroke:none;stroke-width:0.1"
       id="path62" /><path
       d="m 627.749,407.149 -28.1,3.644 9.155,70.599 28.1,-3.644 -9.155,-70.599"
       style="fill:#b84226;fill-opacity:1;fill-rule:nonzero;stroke:none;stroke-width:0.1"
       id="path64" /><path
       d="m 227.115,390.436 c -4.67,-2.151 -9.786,-3.002 -14.392,-2.405 -1.575,0.204 -3.089,0.575 -4.504,1.122 -4.835,1.869 -6.505,7.099 -6.003,11.175 0.226,1.842 1.51,7.923 8.634,8.813 6.303,0.788 10.309,-3.666 12.134,-6.394 2.401,-3.575 3.789,-7.92 4.131,-12.311 m 386.667,54.415 c 9.609,74.104 -42.674,141.965 -116.778,151.575 l -126.485,16.401 -0.005,-0.034 c -73.016,7.965 -139.312,-43.93 -148.801,-117.103 -0.137,-1.057 -0.259,-2.117 -0.372,-3.173 -3.343,-31.479 4.438,-61.689 20.242,-86.616 -1.812,-4.687 -4.691,-8.698 -8.532,-11.793 -0.748,4.379 -2.337,8.607 -4.75,12.206 -4.504,6.722 -11.156,10.068 -18.245,9.181 -7.669,-0.963 -13.243,-6.609 -14.193,-14.392 -0.969,-7.894 3.168,-15.265 10.052,-17.922 6.226,-2.397 13.813,-2.234 20.835,0.222 -0.456,-2.402 -1.256,-4.692 -2.413,-6.737 -3.938,-6.964 -11.489,-10.377 -21.831,-9.87 -1.765,0.086 -3.265,-1.272 -3.355,-3.04 -0.082,-1.762 1.285,-3.261 3.043,-3.352 12.735,-0.625 22.581,4.027 27.716,13.115 2.181,3.86 3.378,8.415 3.6,13.089 0.299,0.189 0.591,0.378 0.885,0.567 4.881,3.214 8.719,7.464 11.395,12.497 20.582,-28.806 52.341,-49.508 89.936,-55.163 l -0.004,-0.033 63.9,-8.287 48.278,-62.658 0.145,-0.193 c 2.074,-2.639 5.134,-4.497 8.724,-4.963 7.265,-0.942 13.922,4.178 14.865,11.446 l 6.113,47.143 c 66.758,-1 125.23,47.442 135.573,114.642 0.17,1.08 0.321,2.162 0.462,3.245"
       style="fill:#cc492b;fill-opacity:1;fill-rule:nonzero;stroke:none;stroke-width:0.1"
       id="path66" /><path
       d="m 204.436,360.348 c -0.736,0 -1.485,0.019 -2.242,0.056 -1.71,0.089 -3.05,1.51 -3.046,3.208 -0.004,-1.698 1.336,-3.119 3.046,-3.208 0.757,-0.037 1.506,-0.056 2.242,-0.056 v 0 m 20.035,16.558 c 1.085,1.984 1.841,4.189 2.279,6.497 v 0 c -0.438,-2.308 -1.194,-4.513 -2.279,-6.497 m -11.936,4.72 c -0.005,0.001 -0.01,0.001 -0.015,0.002 0.005,-10e-4 0.01,-10e-4 0.015,-0.002 m -0.039,0.004 c -2.297,0.242 -4.514,0.755 -6.581,1.551 -0.229,0.088 -0.454,0.182 -0.677,0.28 0.223,-0.098 0.448,-0.192 0.677,-0.28 2.067,-0.796 4.284,-1.309 6.581,-1.551 m 3.164,6.215 c -0.591,0 -1.177,0.022 -1.757,0.065 0.58,-0.043 1.166,-0.065 1.757,-0.065 3.782,0 7.758,0.889 11.455,2.591 -3.697,-1.703 -7.673,-2.591 -11.455,-2.591 m -1.771,0.066 c -0.017,0.002 -0.034,0.003 -0.05,0.004 0.016,-0.001 0.033,-0.002 0.05,-0.004 m -0.104,0.009 c -0.04,0.003 -0.081,0.006 -0.122,0.01 0.041,-0.004 0.081,-0.007 0.122,-0.01 m -0.187,0.015 c -0.025,0.003 -0.051,0.005 -0.076,0.007 0.025,-0.002 0.051,-0.004 0.076,-0.007 m -0.283,0.028 c -0.002,0 -0.003,0 -0.005,0 0.002,0 0.003,0 0.005,0 m -0.007,0 c -0.028,0.003 -0.055,0.006 -0.083,0.009 0.028,-0.003 0.055,-0.006 0.083,-0.009 m -0.207,0.022 c -0.094,0.011 -0.188,0.022 -0.282,0.034 0.094,-0.012 0.188,-0.023 0.282,-0.034 m -5.958,1.665 c -4.007,2.182 -5.39,6.92 -4.927,10.678 0.226,1.842 1.51,7.923 8.634,8.813 v 0 0 c -7.124,-0.89 -8.408,-6.971 -8.634,-8.813 -0.463,-3.758 0.92,-8.496 4.927,-10.678 m 19.972,0.786 c -0.342,4.391 -1.73,8.736 -4.131,12.311 -1.681,2.512 -5.209,6.487 -10.677,6.486 v 0 c 5.468,0 8.996,-3.974 10.677,-6.486 2.401,-3.575 3.789,-7.92 4.131,-12.311 v 0 m 5.936,3.672 c 3.796,3.059 6.652,7.013 8.468,11.629 -1.816,-4.616 -4.672,-8.57 -8.468,-11.629 m -37.328,4.701 c -0.001,0.757 0.045,1.523 0.14,2.294 -0.095,-0.771 -0.141,-1.537 -0.14,-2.294 m 0.221,2.882 c 1.153,7.479 6.637,12.865 14.112,13.804 -7.475,-0.939 -12.959,-6.325 -14.112,-13.804"
       style="fill:#88b498;fill-opacity:1;fill-rule:nonzero;stroke:none;stroke-width:0.1"
       id="path68" /><path
       d="m 472.803,288.836 v 0 l 4.944,38.128 c 0.676,-0.01 1.355,-0.015 2.03,-0.015 10.4,0 20.582,1.197 30.406,3.477 v 0 c -9.824,-2.28 -20.006,-3.477 -30.406,-3.477 -0.675,0 -1.354,0.005 -2.03,0.015 l -4.944,-38.128"
       style="fill:#ae3f25;fill-opacity:1;fill-rule:nonzero;stroke:none;stroke-width:0.1"
       id="path70" /><path
       d="m 604.511,410.163 v 0 c 4.117,9.886 7.11,20.41 8.809,31.443 0.17,1.08 0.321,2.162 0.462,3.245 v 0 0 c -0.141,-1.083 -0.292,-2.165 -0.462,-3.245 -1.699,-11.033 -4.692,-21.557 -8.809,-31.443 m 9.288,34.824 c 0.002,0.014 0.003,0.021 0.005,0.034 -0.002,-0.011 -0.003,-0.022 -0.005,-0.034 m 0.02,0.154 c 0.001,0.009 0.001,0.007 0.002,0.016 -10e-4,-0.006 -10e-4,-0.01 -0.002,-0.016"
       style="fill:#ae3f25;fill-opacity:1;fill-rule:nonzero;stroke:none;stroke-width:0.1"
       id="path72" /><path
       d="m 458.493,268.263 c -0.569,0 -1.145,0.037 -1.724,0.112 v 0 c -3.59,0.466 -6.65,2.324 -8.724,4.963 l -0.145,0.193 -48.278,62.659 -63.9,8.286 0.004,0.033 v 0 c -37.595,5.655 -69.354,26.357 -89.936,55.163 -2.676,-5.033 -6.514,-9.283 -11.395,-12.497 -0.294,-0.189 -0.586,-0.378 -0.885,-0.567 -0.039,-0.803 -0.105,-1.603 -0.201,-2.396 -0.462,-3.823 -1.593,-7.497 -3.399,-10.692 -4.83,-8.548 -13.826,-13.172 -25.474,-13.172 -0.736,0 -1.485,0.019 -2.242,0.056 -1.71,0.089 -3.05,1.51 -3.046,3.208 0,0.048 0.001,0.096 0.003,0.144 0.087,1.715 1.502,3.044 3.198,3.044 0.052,0 0.105,-0.001 0.157,-0.004 0.673,-0.033 1.332,-0.049 1.98,-0.049 9.327,0 16.169,3.407 19.851,9.919 0.045,0.079 0.09,0.16 0.134,0.24 1.085,1.984 1.841,4.189 2.279,6.497 v 0 0 c -3.65,-1.277 -7.453,-1.934 -11.138,-1.934 -1.037,0 -2.065,0.052 -3.077,0.157 -0.005,0.001 -0.01,0.001 -0.015,0.002 -0.008,0.001 -0.016,0.002 -0.024,0.002 -2.297,0.242 -4.514,0.755 -6.581,1.551 -0.229,0.088 -0.454,0.182 -0.677,0.28 -5.822,2.578 -9.51,8.611 -9.515,15.348 -0.001,0.757 0.045,1.523 0.14,2.294 v 0 c 0.024,0.197 0.051,0.394 0.081,0.588 1.153,7.479 6.637,12.865 14.112,13.804 v 0 c 0.75,0.094 1.496,0.141 2.235,0.141 6.238,0 11.983,-3.312 16.01,-9.322 2.413,-3.599 4.002,-7.827 4.75,-12.206 v 0 c 3.796,3.059 6.652,7.013 8.468,11.629 0.021,0.055 0.043,0.11 0.064,0.164 v 0 0 c -13.381,21.105 -21.01,45.998 -21.006,72.241 0,2.132 0.051,4.27 0.153,6.419 -0.754,-15.878 1.299,-31.342 5.751,-45.861 l 0.898,4.037 10.019,-2.761 0.975,3.823 c 0.002,0 0.004,-10e-4 0.005,-0.002 19.733,-37.917 57.067,-65.89 102.672,-71.804 l 126.485,-16.401 0.005,0.034 c 4.968,-0.542 9.898,-0.807 14.789,-0.807 64.065,0 120.082,45.491 132.572,109.125 0.07,-6.196 -0.275,-12.468 -1.08,-18.787 -10e-4,-0.009 -10e-4,-0.007 -0.002,-0.016 -0.005,-0.04 -0.01,-0.08 -0.015,-0.12 -0.002,-0.013 -0.003,-0.02 -0.005,-0.034 -0.006,-0.045 -0.011,-0.09 -0.017,-0.136 v 0 c -0.141,-1.083 -0.292,-2.165 -0.462,-3.245 -1.699,-11.033 -4.692,-21.557 -8.809,-31.443 -16.786,-40.313 -52.217,-69.964 -94.328,-79.737 -9.824,-2.28 -20.006,-3.477 -30.406,-3.477 -0.675,0 -1.354,0.005 -2.03,0.015 l -4.944,-38.128 -1.169,-9.015 c -0.027,-0.209 -0.059,-0.416 -0.095,-0.622 -1.13,-6.367 -6.684,-10.936 -13.046,-10.936 M 213.903,387.91 c 0.58,-0.043 1.166,-0.065 1.757,-0.065 3.782,0 7.758,0.888 11.455,2.591 v 0 0 0 c -0.342,4.391 -1.73,8.736 -4.131,12.311 -1.681,2.512 -5.209,6.486 -10.677,6.486 v 0 0 c -0.471,0 -0.957,-0.03 -1.457,-0.092 v 0 c -7.124,-0.89 -8.408,-6.971 -8.634,-8.813 -0.463,-3.758 0.92,-8.496 4.927,-10.678 0.339,-0.185 0.698,-0.351 1.076,-0.497 1.415,-0.547 2.929,-0.918 4.504,-1.122 0.032,-0.004 0.064,-0.008 0.096,-0.012 0.094,-0.012 0.188,-0.023 0.282,-0.034 0.042,-0.004 0.083,-0.009 0.124,-0.013 0.028,-0.003 0.055,-0.006 0.083,-0.009 0.001,0 0.002,0 0.002,0 0.002,0 0.003,0 0.005,0 0.069,-0.008 0.138,-0.014 0.207,-0.021 0.025,-0.002 0.051,-0.004 0.076,-0.007 0.022,-10e-4 0.044,-0.003 0.065,-0.005 0.041,-0.004 0.082,-0.007 0.122,-0.01 0.018,-0.002 0.036,-0.003 0.054,-0.005 0.016,-0.001 0.033,-0.002 0.05,-0.004 0.005,0 0.009,0 0.014,-10e-4 m 6.827,96.656 c 0.007,0.144 0.014,0.285 0.021,0.43 -0.007,-0.143 -0.014,-0.287 -0.021,-0.43 m 0.022,0.433 c 10e-4,0.035 0.003,0.066 0.005,0.101 -0.002,-0.033 -0.004,-0.068 -0.005,-0.101 m 0.006,0.117 c 10e-4,0.028 0.003,0.057 0.004,0.086 -0.001,-0.029 -0.003,-0.058 -0.004,-0.086 m 0.005,0.109 c 0.002,0.028 0.003,0.06 0.005,0.089 -0.002,-0.03 -0.003,-0.06 -0.005,-0.089 m 0.006,0.102 c 0.005,0.105 0.011,0.21 0.017,0.315 -0.006,-0.106 -0.012,-0.21 -0.017,-0.315 m 0.018,0.337 c 0.001,0.027 0.003,0.053 0.004,0.08 -0.001,-0.027 -0.003,-0.054 -0.004,-0.08 m 0.006,0.108 c 0.001,0.025 0.003,0.049 0.004,0.073 -0.001,-0.024 -0.003,-0.048 -0.004,-0.073 m 0.006,0.107 c 0.002,0.025 0.003,0.05 0.004,0.075 -0.001,-0.025 -0.002,-0.05 -0.004,-0.075 m 0.006,0.101 c 0.002,0.032 0.004,0.068 0.006,0.1 -0.002,-0.033 -0.004,-0.067 -0.006,-0.1 m 0.007,0.128 c 0.002,0.025 0.003,0.048 0.005,0.073 -0.002,-0.025 -0.003,-0.048 -0.005,-0.073 m 0.007,0.118 c 0.001,0.017 0.003,0.036 0.004,0.053 -0.001,-0.018 -0.002,-0.035 -0.004,-0.053 m 0.007,0.104 c 0.001,0.017 0.002,0.034 0.003,0.051 -0.001,-0.017 -0.002,-0.034 -0.003,-0.051 m 0.006,0.101 c 0.001,0.016 0.002,0.03 0.003,0.045 -0.001,-0.016 -0.002,-0.029 -0.003,-0.045 m 0.006,0.104 c 0.001,0.009 0.001,0.018 0.002,0.028 -0.001,-0.009 -0.001,-0.019 -0.002,-0.028 m 0.016,0.253 c 10e-4,0.012 0.002,0.023 0.002,0.035 0,-0.013 -0.001,-0.022 -0.002,-0.035 m 0.006,0.095 c 10e-4,0.013 0.002,0.025 0.003,0.038 -0.001,-0.012 -0.002,-0.026 -0.003,-0.038 m 0.007,0.103 c 0.001,0.009 0.001,0.02 0.002,0.03 -0.001,-0.009 -0.001,-0.021 -0.002,-0.03 m 0.006,0.097 c 0.001,0.01 0.002,0.02 0.002,0.029 0,-0.01 -0.001,-0.019 -0.002,-0.029 m 0.018,0.266 c 0.001,0.006 0.001,0.012 0.001,0.018 0,-0.007 0,-0.011 -0.001,-0.018 m 0.006,0.087 c 0.001,0.01 0.002,0.022 0.002,0.032 0,-0.011 -0.001,-0.021 -0.002,-0.032 m 0.007,0.097 c 0.001,0.012 0.001,0.02 0.002,0.031 -0.001,-0.01 -0.001,-0.021 -0.002,-0.031 m 0.007,0.099 c 0,0.008 0.001,0.02 0.002,0.027 -0.001,-0.009 -0.002,-0.018 -0.002,-0.027 m 0.026,0.364 c 0,0.005 0,0.009 10e-4,0.015 -10e-4,-0.006 -10e-4,-0.01 -10e-4,-0.015 m 0.007,0.094 c 0,0.004 0.001,0.013 0.001,0.016 -0.001,-0.005 -0.001,-0.01 -0.001,-0.016 m 0.007,0.095 c 0,0.005 0,0.01 0.001,0.016 -0.001,-0.006 -0.001,-0.011 -0.001,-0.016 m 0.027,0.365 c 0,0.002 0.001,0.009 0.001,0.011 0,-0.004 0,-0.008 -0.001,-0.011 m 0.007,0.088 c 0,0.005 10e-4,0.014 0.002,0.02 -0.001,-0.007 -0.001,-0.014 -0.002,-0.02 m 0.008,0.097 c 0,0.006 0,0.011 0.001,0.016 0,-0.004 -0.001,-0.011 -0.001,-0.016 m 0.036,0.46 c 0.001,0.004 0.001,0.006 0.001,0.009 0,-0.002 0,-0.006 -0.001,-0.009 m 0.008,0.089 c 0,0.008 0.001,0.011 0.001,0.019 0,-0.006 -0.001,-0.013 -0.001,-0.019 m 0.008,0.099 c 0,0.002 0,0.006 0.001,0.008 -0.001,-0.002 -0.001,-0.006 -0.001,-0.008 m 0.031,0.369 v 0.002 c 0,-0.002 0,-0.001 0,-0.002 m 0.007,0.084 c 0.001,0.006 0.001,0.012 0.002,0.018 -0.001,-0.006 -0.001,-0.012 -0.002,-0.018 m 0.009,0.096 c 0,0.004 0,0.01 10e-4,0.014 -10e-4,-0.005 -10e-4,-0.009 -10e-4,-0.014 m 0.008,0.097 v 10e-4 c 0,-10e-4 0,0 0,-10e-4 m 0.032,0.359 c 0.001,0.006 0.001,0.009 0.001,0.015 0,-0.005 0,-0.01 -0.001,-0.015 m 0.009,0.093 c 0,0.007 0.001,0.014 0.001,0.021 0,-0.007 -0.001,-0.015 -0.001,-0.021 m 0.008,0.095 c 0.001,0.007 0.001,0.013 0.002,0.021 0,-0.007 -0.001,-0.015 -0.002,-0.021 m 0.025,0.27 c 0.001,0.004 0.001,0.009 0.002,0.013 -10e-4,-0.004 -10e-4,-0.008 -0.002,-0.013 m 0.008,0.083 c 0.001,0.011 0.002,0.018 0.003,0.03 -0.001,-0.01 -0.002,-0.02 -0.003,-0.03 m 0.01,0.1 c 0,0.008 0.001,0.017 0.002,0.025 -10e-4,-0.008 -0.002,-0.017 -0.002,-0.025 m 0.009,0.096 c 0.001,0.011 0.002,0.02 0.003,0.032 -0.001,-0.012 -0.002,-0.021 -0.003,-0.032 m 0.009,0.097 c 0.001,0.011 0.002,0.022 0.003,0.034 -0.001,-0.012 -0.002,-0.023 -0.003,-0.034 m 0.025,0.252 c 10e-4,0.014 0.002,0.024 0.003,0.038 -0.001,-0.013 -0.002,-0.025 -0.003,-0.038 m 0.009,0.097 c 0.002,0.013 0.003,0.03 0.005,0.043 -0.002,-0.015 -0.003,-0.029 -0.005,-0.043 m 0.01,0.095 c 0.002,0.018 0.003,0.034 0.005,0.051 -0.002,-0.017 -0.003,-0.034 -0.005,-0.051 m 0.01,0.103 c 0.002,0.017 0.004,0.034 0.005,0.052 -0.001,-0.018 -0.003,-0.035 -0.005,-0.052 m 0.01,0.099 c 0.003,0.029 0.006,0.056 0.009,0.085 -0.003,-0.029 -0.006,-0.056 -0.009,-0.085 m 0.014,0.138 c 0.002,0.021 0.004,0.04 0.006,0.061 -0.002,-0.019 -0.004,-0.042 -0.006,-0.061 m 0.011,0.103 c 0.002,0.02 0.004,0.039 0.006,0.058 -0.002,-0.019 -0.004,-0.038 -0.006,-0.058 m 0.011,0.104 c 0.002,0.021 0.004,0.038 0.006,0.06 -0.002,-0.021 -0.004,-0.039 -0.006,-0.06 m 0.01,0.101 c 0.002,0.023 0.005,0.047 0.007,0.07 -0.002,-0.023 -0.005,-0.048 -0.007,-0.07 m 0.011,0.1 c 0.003,0.034 0.007,0.068 0.01,0.103 0.113,1.056 0.235,2.116 0.372,3.173 v 0 0 c -0.137,-1.057 -0.259,-2.117 -0.372,-3.173 -0.003,-0.035 -0.007,-0.069 -0.01,-0.103"
       style="fill:#c14529;fill-opacity:1;fill-rule:nonzero;stroke:none;stroke-width:0.1"
       id="path74" /><path
       d="m 221.731,495.828 c 0,0.002 0.001,0.004 0.001,0.005 0,-0.002 -0.001,-0.003 -0.001,-0.005"
       style="fill:#88b498;fill-opacity:1;fill-rule:nonzero;stroke:none;stroke-width:0.1"
       id="path76" /><path
       d="m 259.834,565.994 48.47,37.343 -19.45,25.245 -48.47,-37.343 19.45,-25.245"
       style="fill:#cc492b;fill-opacity:1;fill-rule:nonzero;stroke:none;stroke-width:0.1"
       id="path78" /><path
       d="m 554.512,571.412 37.343,-48.47 25.245,19.45 -37.343,48.47 -25.245,-19.45"
       style="fill:#cc492b;fill-opacity:1;fill-rule:nonzero;stroke:none;stroke-width:0.1"
       id="path80" /><path
       d="m 430.871,345.261 v 0 l -68.967,8.921 c -5.291,0.686 -9.021,5.531 -8.335,10.821 0.686,5.287 5.528,9.017 10.819,8.331 l 68.967,-8.92 c 5.292,-0.687 9.023,-5.529 8.338,-10.816 -0.686,-5.289 -5.529,-9.023 -10.822,-8.337"
       style="fill:#8c3321;fill-opacity:1;fill-rule:nonzero;stroke:none;stroke-width:0.1"
       id="path82" /><path
       d="m 240.384,591.239 -12.013,15.593 29.451,11.907 19.019,25.436 12.013,-15.593 -48.47,-37.343"
       style="fill:#8c3321;fill-opacity:1;fill-rule:nonzero;stroke:none;stroke-width:0.1"
       id="path84" /><path
       d="m 579.758,590.861 15.593,12.013 11.901,-29.444 25.44,-19.023 -15.593,-12.014 -37.341,48.468"
       style="fill:#8c3321;fill-opacity:1;fill-rule:nonzero;stroke:none;stroke-width:0.1"
       id="path86" /><path
       d="m 544.693,400.806 -10.963,-8.472 -14.875,19.252 -19.252,-14.875 -8.47,10.963 19.251,14.875 -14.875,19.252 10.962,8.471 14.876,-19.252 19.252,14.876 8.47,-10.964 -19.251,-14.875 14.875,-19.251"
       style="fill:#8c3321;fill-opacity:1;fill-rule:nonzero;stroke:none;stroke-width:0.1"
       id="path88" /><path
       d="m 221.732,495.833 c 0,0.002 0,0.002 0,0.004 v -0.002 c 0,0 0,-10e-4 0,-0.002 m 0.012,0.096 c 0.001,0.009 0.003,0.018 0.004,0.027 -10e-4,-0.009 -0.002,-0.018 -0.004,-0.027 m 0.019,0.14 c 0,10e-4 0,0.002 0,0.002 v -0.002"
       style="fill:#80a991;fill-opacity:1;fill-rule:nonzero;stroke:none;stroke-width:0.1"
       id="path90" /><path
       d="m 220.73,484.561 c 0,0.002 0,0.002 0,0.005 v -0.005"
       style="fill:#80a991;fill-opacity:1;fill-rule:nonzero;stroke:none;stroke-width:0.1"
       id="path94" /><path
       d="m 220.751,484.996 c 0.001,0.002 0.001,0.002 0.001,0.003 l -0.001,-0.003"
       style="fill:#80a991;fill-opacity:1;fill-rule:nonzero;stroke:none;stroke-width:0.1"
       id="path96" /><path
       d="m 220.757,485.1 c 0,0.005 0,0.01 0.001,0.016 -0.001,-0.006 -0.001,-0.01 -0.001,-0.016"
       style="fill:#80a991;fill-opacity:1;fill-rule:nonzero;stroke:none;stroke-width:0.1"
       id="path98" /><path
       d="m 220.762,485.202 c 0,0.007 0.001,0.015 0.001,0.023 0,-0.008 -0.001,-0.016 -0.001,-0.023"
       style="fill:#80a991;fill-opacity:1;fill-rule:nonzero;stroke:none;stroke-width:0.1"
       id="path100" /><path
       d="m 220.768,485.314 c 0,0.004 0,0.008 0.001,0.013 -0.001,-0.004 -0.001,-0.009 -0.001,-0.013"
       style="fill:#80a991;fill-opacity:1;fill-rule:nonzero;stroke:none;stroke-width:0.1"
       id="path102" /><path
       d="m 220.786,485.642 c 0,0.008 0.001,0.014 0.001,0.022 0,-0.008 -0.001,-0.015 -0.001,-0.022"
       style="fill:#80a991;fill-opacity:1;fill-rule:nonzero;stroke:none;stroke-width:0.1"
       id="path104" /><path
       d="m 220.791,485.744 c 0.001,0.009 0.002,0.019 0.002,0.028 0,-0.009 -0.001,-0.019 -0.002,-0.028"
       style="fill:#80a991;fill-opacity:1;fill-rule:nonzero;stroke:none;stroke-width:0.1"
       id="path106" /><path
       d="m 220.797,485.845 c 0.001,0.012 0.001,0.023 0.002,0.034 -0.001,-0.012 -0.001,-0.022 -0.002,-0.034"
       style="fill:#80a991;fill-opacity:1;fill-rule:nonzero;stroke:none;stroke-width:0.1"
       id="path108" /><path
       d="m 220.803,485.954 c 0.001,0.009 0.001,0.017 0.002,0.026 -0.001,-0.01 -0.001,-0.017 -0.002,-0.026"
       style="fill:#80a991;fill-opacity:1;fill-rule:nonzero;stroke:none;stroke-width:0.1"
       id="path110" /><path
       d="m 220.811,486.08 c 0,0.009 0.001,0.019 0.001,0.028 0,-0.01 -0.001,-0.018 -0.001,-0.028"
       style="fill:#80a991;fill-opacity:1;fill-rule:nonzero;stroke:none;stroke-width:0.1"
       id="path112" /><path
       d="m 220.817,486.181 c 0.001,0.015 0.002,0.031 0.002,0.045 0,-0.015 -10e-4,-0.03 -0.002,-0.045"
       style="fill:#80a991;fill-opacity:1;fill-rule:nonzero;stroke:none;stroke-width:0.1"
       id="path114" /><path
       d="m 220.823,486.279 c 0.001,0.017 0.002,0.034 0.003,0.051 -0.001,-0.017 -0.002,-0.034 -0.003,-0.051"
       style="fill:#80a991;fill-opacity:1;fill-rule:nonzero;stroke:none;stroke-width:0.1"
       id="path116" /><path
       d="m 220.829,486.381 c 0.001,0.016 0.002,0.035 0.003,0.05 -0.001,-0.015 -0.002,-0.035 -0.003,-0.05"
       style="fill:#80a991;fill-opacity:1;fill-rule:nonzero;stroke:none;stroke-width:0.1"
       id="path118" /><path
       d="m 220.835,486.476 c 0.001,0.019 0.002,0.039 0.003,0.059 -0.001,-0.019 -0.002,-0.04 -0.003,-0.059"
       style="fill:#80a991;fill-opacity:1;fill-rule:nonzero;stroke:none;stroke-width:0.1"
       id="path120" /><path
       d="m 220.84,486.563 c 0.005,0.074 0.009,0.15 0.014,0.225 -0.005,-0.076 -0.009,-0.149 -0.014,-0.225"
       style="fill:#80a991;fill-opacity:1;fill-rule:nonzero;stroke:none;stroke-width:0.1"
       id="path122" /><path
       d="m 220.856,486.823 c 0.002,0.019 0.003,0.04 0.004,0.06 -0.001,-0.02 -0.002,-0.041 -0.004,-0.06"
       style="fill:#80a991;fill-opacity:1;fill-rule:nonzero;stroke:none;stroke-width:0.1"
       id="path124" /><path
       d="m 220.863,486.921 c 0.001,0.023 0.002,0.042 0.004,0.065 -10e-4,-0.021 -0.003,-0.044 -0.004,-0.065"
       style="fill:#80a991;fill-opacity:1;fill-rule:nonzero;stroke:none;stroke-width:0.1"
       id="path126" /><path
       d="m 220.869,487.016 c 0.001,0.022 0.003,0.044 0.004,0.067 -10e-4,-0.023 -0.003,-0.044 -0.004,-0.067"
       style="fill:#80a991;fill-opacity:1;fill-rule:nonzero;stroke:none;stroke-width:0.1"
       id="path128" /><path
       d="m 220.875,487.112 c 0.005,0.078 0.011,0.159 0.016,0.237 -0.005,-0.078 -0.01,-0.158 -0.016,-0.237"
       style="fill:#80a991;fill-opacity:1;fill-rule:nonzero;stroke:none;stroke-width:0.1"
       id="path130" /><path
       d="m 220.892,487.367 c 0.002,0.022 0.004,0.047 0.005,0.069 -0.002,-0.025 -0.003,-0.045 -0.005,-0.069"
       style="fill:#80a991;fill-opacity:1;fill-rule:nonzero;stroke:none;stroke-width:0.1"
       id="path132" /><path
       d="m 220.899,487.468 c 0.002,0.022 0.003,0.043 0.005,0.065 -0.002,-0.021 -0.003,-0.044 -0.005,-0.065"
       style="fill:#80a991;fill-opacity:1;fill-rule:nonzero;stroke:none;stroke-width:0.1"
       id="path134" /><path
       d="m 220.906,487.564 c 0.002,0.023 0.003,0.045 0.005,0.068 -0.002,-0.023 -0.003,-0.045 -0.005,-0.068"
       style="fill:#80a991;fill-opacity:1;fill-rule:nonzero;stroke:none;stroke-width:0.1"
       id="path136" /><path
       d="m 220.913,487.659 c 0.008,0.111 0.016,0.226 0.024,0.337 -0.008,-0.113 -0.016,-0.224 -0.024,-0.337"
       style="fill:#80a991;fill-opacity:1;fill-rule:nonzero;stroke:none;stroke-width:0.1"
       id="path138" /><path
       d="m 220.938,488.011 c 0.002,0.026 0.004,0.053 0.006,0.079 -0.002,-0.026 -0.004,-0.052 -0.006,-0.079"
       style="fill:#80a991;fill-opacity:1;fill-rule:nonzero;stroke:none;stroke-width:0.1"
       id="path140" /><path
       d="m 220.945,488.106 c 0.002,0.027 0.004,0.053 0.006,0.079 -0.002,-0.027 -0.004,-0.052 -0.006,-0.079"
       style="fill:#80a991;fill-opacity:1;fill-rule:nonzero;stroke:none;stroke-width:0.1"
       id="path142" /><path
       d="m 220.952,488.201 c 0.008,0.116 0.017,0.233 0.026,0.349 -0.009,-0.117 -0.017,-0.232 -0.026,-0.349"
       style="fill:#80a991;fill-opacity:1;fill-rule:nonzero;stroke:none;stroke-width:0.1"
       id="path144" /><path
       d="m 220.979,488.561 c 0.002,0.026 0.004,0.05 0.006,0.077 -0.002,-0.027 -0.004,-0.051 -0.006,-0.077"
       style="fill:#80a991;fill-opacity:1;fill-rule:nonzero;stroke:none;stroke-width:0.1"
       id="path146" /><path
       d="m 220.987,488.658 c 0.002,0.026 0.004,0.051 0.006,0.077 -0.002,-0.027 -0.004,-0.051 -0.006,-0.077"
       style="fill:#80a991;fill-opacity:1;fill-rule:nonzero;stroke:none;stroke-width:0.1"
       id="path148" /><path
       d="m 220.994,488.751 c 0.012,0.149 0.023,0.296 0.035,0.444 -0.012,-0.147 -0.024,-0.296 -0.035,-0.444"
       style="fill:#80a991;fill-opacity:1;fill-rule:nonzero;stroke:none;stroke-width:0.1"
       id="path150" /><path
       d="m 221.03,489.204 c 0.002,0.028 0.005,0.053 0.007,0.08 -0.002,-0.025 -0.005,-0.055 -0.007,-0.08"
       style="fill:#80a991;fill-opacity:1;fill-rule:nonzero;stroke:none;stroke-width:0.1"
       id="path152" /><path
       d="m 221.038,489.303 c 0.003,0.027 0.005,0.053 0.007,0.08 -0.002,-0.027 -0.005,-0.053 -0.007,-0.08"
       style="fill:#80a991;fill-opacity:1;fill-rule:nonzero;stroke:none;stroke-width:0.1"
       id="path154" /><path
       d="m 221.046,489.391 c 0.01,0.12 0.02,0.241 0.03,0.361 -0.01,-0.121 -0.02,-0.24 -0.03,-0.361"
       style="fill:#80a991;fill-opacity:1;fill-rule:nonzero;stroke:none;stroke-width:0.1"
       id="path156" /><path
       d="m 221.076,489.754 c 0.003,0.027 0.005,0.055 0.007,0.082 -0.002,-0.027 -0.005,-0.056 -0.007,-0.082"
       style="fill:#80a991;fill-opacity:1;fill-rule:nonzero;stroke:none;stroke-width:0.1"
       id="path158" /><path
       d="m 221.085,489.854 c 0.002,0.026 0.004,0.052 0.007,0.078 -0.003,-0.027 -0.005,-0.052 -0.007,-0.078"
       style="fill:#80a991;fill-opacity:1;fill-rule:nonzero;stroke:none;stroke-width:0.1"
       id="path160" /><path
       d="m 221.093,489.946 c 0.002,0.027 0.005,0.056 0.007,0.083 -0.002,-0.029 -0.005,-0.054 -0.007,-0.083"
       style="fill:#80a991;fill-opacity:1;fill-rule:nonzero;stroke:none;stroke-width:0.1"
       id="path162" /><path
       d="m 221.1,490.03 c 0.011,0.119 0.021,0.239 0.032,0.358 -0.011,-0.119 -0.021,-0.239 -0.032,-0.358"
       style="fill:#80a991;fill-opacity:1;fill-rule:nonzero;stroke:none;stroke-width:0.1"
       id="path164" /><path
       d="m 221.133,490.403 c 0.003,0.026 0.005,0.051 0.008,0.078 -0.003,-0.025 -0.005,-0.053 -0.008,-0.078"
       style="fill:#80a991;fill-opacity:1;fill-rule:nonzero;stroke:none;stroke-width:0.1"
       id="path166" /><path
       d="m 221.142,490.502 c 0.003,0.025 0.005,0.049 0.007,0.074 -0.002,-0.025 -0.004,-0.049 -0.007,-0.074"
       style="fill:#80a991;fill-opacity:1;fill-rule:nonzero;stroke:none;stroke-width:0.1"
       id="path168" /><path
       d="m 221.151,490.597 c 0.008,0.083 0.016,0.166 0.023,0.249 -0.007,-0.082 -0.015,-0.167 -0.023,-0.249"
       style="fill:#80a991;fill-opacity:1;fill-rule:nonzero;stroke:none;stroke-width:0.1"
       id="path170" /><path
       d="m 221.176,490.859 c 0.002,0.023 0.004,0.047 0.006,0.07 -0.002,-0.023 -0.004,-0.047 -0.006,-0.07"
       style="fill:#80a991;fill-opacity:1;fill-rule:nonzero;stroke:none;stroke-width:0.1"
       id="path172" /><path
       d="m 221.185,490.959 c 0.002,0.024 0.004,0.046 0.007,0.07 -0.003,-0.023 -0.005,-0.047 -0.007,-0.07"
       style="fill:#80a991;fill-opacity:1;fill-rule:nonzero;stroke:none;stroke-width:0.1"
       id="path174" /><path
       d="m 221.194,491.054 c 0.002,0.023 0.005,0.048 0.007,0.071 -0.002,-0.023 -0.005,-0.048 -0.007,-0.071"
       style="fill:#80a991;fill-opacity:1;fill-rule:nonzero;stroke:none;stroke-width:0.1"
       id="path176" /><path
       d="m 221.204,491.157 c 0.002,0.021 0.004,0.043 0.006,0.065 -0.002,-0.022 -0.004,-0.044 -0.006,-0.065"
       style="fill:#80a991;fill-opacity:1;fill-rule:nonzero;stroke:none;stroke-width:0.1"
       id="path178" /><path
       d="m 221.213,491.256 c 0.007,0.073 0.015,0.145 0.022,0.218 -0.007,-0.073 -0.015,-0.145 -0.022,-0.218"
       style="fill:#80a991;fill-opacity:1;fill-rule:nonzero;stroke:none;stroke-width:0.1"
       id="path180" /><path
       d="m 221.238,491.512 c 0.002,0.019 0.004,0.039 0.006,0.059 -0.002,-0.02 -0.004,-0.04 -0.006,-0.059"
       style="fill:#80a991;fill-opacity:1;fill-rule:nonzero;stroke:none;stroke-width:0.1"
       id="path182" /><path
       d="m 221.249,491.614 c 0.001,0.017 0.003,0.035 0.005,0.052 -0.002,-0.017 -0.004,-0.035 -0.005,-0.052"
       style="fill:#80a991;fill-opacity:1;fill-rule:nonzero;stroke:none;stroke-width:0.1"
       id="path184" /><path
       d="m 221.259,491.717 c 0.002,0.017 0.003,0.035 0.005,0.052 -0.002,-0.017 -0.003,-0.035 -0.005,-0.052"
       style="fill:#80a991;fill-opacity:1;fill-rule:nonzero;stroke:none;stroke-width:0.1"
       id="path186" /><path
       d="m 221.269,491.821 c 0.002,0.015 0.003,0.031 0.005,0.047 -0.001,-0.015 -0.003,-0.032 -0.005,-0.047"
       style="fill:#80a991;fill-opacity:1;fill-rule:nonzero;stroke:none;stroke-width:0.1"
       id="path188" /><path
       d="m 221.283,491.953 c 0.002,0.018 0.003,0.035 0.005,0.053 -0.002,-0.017 -0.003,-0.036 -0.005,-0.053"
       style="fill:#80a991;fill-opacity:1;fill-rule:nonzero;stroke:none;stroke-width:0.1"
       id="path190" /><path
       d="m 221.294,492.067 c 0.002,0.015 0.003,0.027 0.005,0.042 -0.002,-0.013 -0.003,-0.028 -0.005,-0.042"
       style="fill:#80a991;fill-opacity:1;fill-rule:nonzero;stroke:none;stroke-width:0.1"
       id="path192" /><path
       d="m 221.305,492.167 c 0.001,0.015 0.003,0.031 0.005,0.046 -0.002,-0.015 -0.004,-0.03 -0.005,-0.046"
       style="fill:#80a991;fill-opacity:1;fill-rule:nonzero;stroke:none;stroke-width:0.1"
       id="path194" /><path
       d="m 221.316,492.273 c 0.001,0.013 0.003,0.027 0.004,0.041 -0.001,-0.014 -0.003,-0.028 -0.004,-0.041"
       style="fill:#80a991;fill-opacity:1;fill-rule:nonzero;stroke:none;stroke-width:0.1"
       id="path196" /><path
       d="m 221.327,492.384 c 0.002,0.01 0.002,0.019 0.004,0.03 -10e-4,-0.01 -0.003,-0.02 -0.004,-0.03"
       style="fill:#80a991;fill-opacity:1;fill-rule:nonzero;stroke:none;stroke-width:0.1"
       id="path198" /><path
       d="m 221.728,495.808 c 0.001,0.007 0.002,0.013 0.003,0.02 0,-0.002 0,-0.003 -0.001,-0.005 0,-0.004 -10e-4,-0.011 -0.002,-0.015"
       style="fill:#80a991;fill-opacity:1;fill-rule:nonzero;stroke:none;stroke-width:0.1"
       id="path200" /><path
       d="m 221.713,495.69 c 0.005,0.039 0.01,0.079 0.015,0.118 0.001,0.004 0.002,0.011 0.002,0.015 -0.005,-0.044 -0.011,-0.088 -0.017,-0.133"
       style="fill:#b74128;fill-opacity:1;fill-rule:nonzero;stroke:none;stroke-width:0.1"
       id="path202" /><path
       d="m 221.73,495.823 c 0.001,0.002 0.001,0.003 0.001,0.005 0,0.002 0.001,0.003 0.001,0.005 0,10e-4 0,0.002 0,0.002 -0.001,-0.004 -0.001,-0.007 -0.002,-0.012"
       style="fill:#79a188;fill-opacity:1;fill-rule:nonzero;stroke:none;stroke-width:0.1"
       id="path204" /><path
       d="m 226.481,438.7 c -4.452,14.519 -6.505,29.983 -5.751,45.861 v 0.005 c 0.007,0.143 0.014,0.287 0.021,0.43 l 0.001,0.003 c 10e-4,0.033 0.003,0.068 0.005,0.101 0,0.006 0,0.01 0.001,0.016 10e-4,0.028 0.003,0.057 0.004,0.086 0,0.007 0.001,0.015 0.001,0.023 0.002,0.029 0.003,0.059 0.005,0.089 0,0.004 0,0.009 0.001,0.013 0.005,0.105 0.011,0.209 0.017,0.315 0,0.007 0.001,0.014 0.001,0.022 0.001,0.026 0.003,0.053 0.004,0.08 0.001,0.009 0.002,0.019 0.002,0.028 0.001,0.025 0.003,0.049 0.004,0.073 0.001,0.012 0.001,0.022 0.002,0.034 0.002,0.025 0.003,0.05 0.004,0.075 0.001,0.009 0.001,0.016 0.002,0.026 0.002,0.033 0.004,0.067 0.006,0.1 0,0.01 0.001,0.018 0.001,0.028 0.002,0.025 0.003,0.048 0.005,0.073 0.001,0.015 0.002,0.03 0.002,0.045 0.002,0.018 0.003,0.035 0.004,0.053 0.001,0.017 0.002,0.034 0.003,0.051 0.001,0.017 0.002,0.034 0.003,0.051 0.001,0.015 0.002,0.035 0.003,0.05 0.001,0.016 0.002,0.029 0.003,0.045 0.001,0.019 0.002,0.04 0.003,0.059 0.001,0.009 0.001,0.019 0.002,0.028 0.005,0.076 0.009,0.149 0.014,0.225 10e-4,0.013 0.002,0.022 0.002,0.035 0.002,0.019 0.003,0.04 0.004,0.06 10e-4,0.012 0.002,0.026 0.003,0.038 0.001,0.021 0.003,0.044 0.004,0.065 0.001,0.009 0.001,0.021 0.002,0.03 0.001,0.023 0.003,0.044 0.004,0.067 0.001,0.01 0.002,0.019 0.002,0.029 0.006,0.079 0.011,0.159 0.016,0.237 0.001,0.007 0.001,0.011 0.001,0.018 0.002,0.024 0.003,0.044 0.005,0.069 0.001,0.011 0.002,0.021 0.002,0.032 0.002,0.021 0.003,0.044 0.005,0.065 0.001,0.01 0.001,0.021 0.002,0.031 0.002,0.023 0.003,0.045 0.005,0.068 0,0.009 0.001,0.018 0.002,0.027 0.008,0.113 0.016,0.224 0.024,0.337 0,0.005 0,0.009 10e-4,0.015 0.002,0.027 0.004,0.053 0.006,0.079 0,0.006 0,0.011 0.001,0.016 0.002,0.027 0.004,0.052 0.006,0.079 0,0.005 0,0.01 0.001,0.016 0.009,0.117 0.017,0.232 0.026,0.349 0.001,0.003 0.001,0.007 0.001,0.011 0.002,0.026 0.004,0.05 0.006,0.077 10e-4,0.006 10e-4,0.013 0.002,0.02 0.002,0.026 0.004,0.05 0.006,0.077 0,0.005 0.001,0.012 0.001,0.016 0.011,0.148 0.023,0.297 0.035,0.444 0.001,0.003 0.001,0.007 0.001,0.009 0.002,0.025 0.005,0.055 0.007,0.08 0,0.006 0.001,0.013 0.001,0.019 0.002,0.027 0.005,0.053 0.007,0.08 0,0.002 0,0.006 0.001,0.008 0.01,0.121 0.02,0.24 0.03,0.361 0,10e-4 0,0 0,0.002 0.002,0.026 0.005,0.055 0.007,0.082 0.001,0.006 0.001,0.012 0.002,0.018 0.002,0.026 0.004,0.051 0.007,0.078 0,0.005 0,0.009 10e-4,0.014 0.002,0.029 0.005,0.054 0.007,0.083 0,10e-4 0,0 0,10e-4 0.011,0.119 0.021,0.239 0.032,0.358 0.001,0.005 0.001,0.01 0.001,0.015 0.003,0.025 0.005,0.053 0.008,0.078 0,0.006 0.001,0.014 0.001,0.021 0.003,0.025 0.005,0.049 0.007,0.074 0.001,0.006 0.002,0.014 0.002,0.021 0.008,0.082 0.016,0.167 0.023,0.249 0.001,0.005 0.001,0.009 0.002,0.013 0.002,0.023 0.004,0.047 0.006,0.07 0.001,0.01 0.002,0.02 0.003,0.03 0.002,0.023 0.004,0.047 0.007,0.07 0,0.008 0.001,0.017 0.002,0.025 0.002,0.023 0.005,0.048 0.007,0.071 0.001,0.011 0.002,0.02 0.003,0.032 0.002,0.021 0.004,0.043 0.006,0.065 0.001,0.011 0.002,0.022 0.003,0.034 0.007,0.073 0.015,0.145 0.022,0.218 10e-4,0.013 0.002,0.025 0.003,0.038 0.002,0.019 0.004,0.039 0.006,0.059 0.002,0.014 0.003,0.028 0.005,0.043 0.001,0.017 0.003,0.035 0.005,0.052 0.002,0.017 0.003,0.034 0.005,0.051 0.002,0.017 0.003,0.035 0.005,0.052 0.002,0.017 0.004,0.034 0.005,0.052 0.002,0.015 0.004,0.032 0.005,0.047 0.003,0.029 0.006,0.056 0.009,0.085 0.002,0.017 0.003,0.036 0.005,0.053 0.002,0.019 0.004,0.042 0.006,0.061 0.002,0.014 0.003,0.029 0.005,0.042 0.002,0.02 0.004,0.039 0.006,0.058 0.001,0.016 0.003,0.031 0.005,0.046 0.002,0.021 0.004,0.039 0.006,0.06 0.001,0.013 0.003,0.027 0.004,0.041 0.002,0.022 0.005,0.047 0.007,0.07 0.001,0.01 0.003,0.02 0.004,0.03 0.003,0.034 0.007,0.068 0.01,0.103 0.113,1.056 0.235,2.116 0.372,3.173 v 0 c 0.006,0.045 0.012,0.089 0.017,0.133 0.001,0.005 0.001,0.008 0.002,0.012 0.382,2.916 0.863,5.795 1.421,8.641 0.244,-21.637 5.673,-42.324 15.225,-60.679 -10e-4,10e-4 -0.003,0.002 -0.005,0.002 l -0.975,-3.823 -10.019,2.761 -0.898,-4.037"
       style="fill:#c14529;fill-opacity:1;fill-rule:nonzero;stroke:none;stroke-width:0.1"
       id="path206" /><path
       d="m 337.377,636.865 c 0,0 0.614,0.325 1.783,0.891 1.173,0.554 2.885,1.411 5.132,2.316 2.238,0.936 4.978,2.026 8.177,3.116 3.192,1.116 6.829,2.281 10.851,3.366 2.012,0.537 4.11,1.1 6.295,1.63 2.187,0.521 4.46,1.006 6.807,1.46 4.686,0.953 9.669,1.785 14.859,2.391 2.598,0.265 5.236,0.61 7.92,0.8 1.342,0.11 2.692,0.221 4.049,0.333 1.36,0.053 2.727,0.105 4.1,0.158 5.492,0.222 11.081,0.173 16.669,0.018 2.789,-0.2 5.58,-0.352 8.353,-0.607 2.769,-0.308 5.536,-0.502 8.261,-0.902 2.728,-0.372 5.438,-0.708 8.081,-1.265 2.649,-0.516 5.275,-0.958 7.822,-1.584 5.128,-1.075 9.992,-2.519 14.566,-3.946 2.274,-0.768 4.5,-1.455 6.616,-2.227 2.094,-0.832 4.118,-1.635 6.061,-2.406 0.973,-0.372 1.915,-0.768 2.822,-1.188 0.912,-0.408 1.804,-0.8 2.663,-1.209 1.714,-0.827 3.373,-1.518 4.862,-2.332 3.003,-1.567 5.614,-2.92 7.692,-4.172 2.088,-1.233 3.68,-2.285 4.781,-2.963 1.095,-0.689 1.679,-1.057 1.679,-1.057 l -0.226,-0.446 c 0,0 -2.473,1.174 -6.802,3.228 -2.161,1.032 -4.875,2.088 -7.938,3.406 -1.525,0.679 -3.217,1.225 -4.962,1.899 -0.877,0.325 -1.777,0.659 -2.698,1.001 -0.916,0.356 -1.865,0.684 -2.846,0.988 -1.952,0.632 -3.986,1.292 -6.091,1.974 -2.13,0.6 -4.332,1.22 -6.595,1.858 -4.548,1.191 -9.376,2.341 -14.419,3.282 -5.035,0.979 -10.281,1.766 -15.63,2.39 -2.669,0.361 -5.382,0.517 -8.093,0.788 -2.715,0.217 -5.45,0.333 -8.179,0.498 -5.467,0.202 -10.939,0.325 -16.325,0.168 -1.346,-0.035 -2.687,-0.071 -4.021,-0.106 -1.333,-0.07 -2.659,-0.14 -3.977,-0.209 -2.639,-0.107 -5.235,-0.369 -7.794,-0.553 -5.109,-0.48 -10.04,-1.036 -14.69,-1.754 -4.657,-0.672 -9.031,-1.495 -13.057,-2.299 -8.043,-1.662 -14.662,-3.433 -19.242,-4.834 -4.589,-1.384 -7.137,-2.367 -7.137,-2.367 l -0.179,0.467"
       style="fill:#bfdbc7;fill-opacity:1;fill-rule:nonzero;stroke:none;stroke-width:0.1"
       id="path222" /><path
       d="m 366.254,661.136 c 0,0 0.438,0.189 1.258,0.545 0.827,0.338 2.035,0.861 3.61,1.41 3.136,1.141 7.691,2.591 13.275,3.893 2.792,0.645 5.832,1.308 9.081,1.813 3.243,0.554 6.684,1.026 10.261,1.358 1.79,0.142 3.609,0.334 5.456,0.427 0.924,0.056 1.853,0.113 2.788,0.17 0.935,0.02 1.875,0.041 2.819,0.062 3.777,0.089 7.617,0.007 11.455,-0.143 1.916,-0.144 3.832,-0.275 5.737,-0.452 1.902,-0.218 3.802,-0.371 5.675,-0.64 3.753,-0.472 7.413,-1.179 10.933,-1.928 3.528,-0.724 6.882,-1.673 10.041,-2.609 1.571,-0.504 3.105,-0.967 4.572,-1.462 1.451,-0.545 2.852,-1.072 4.198,-1.577 2.682,-1.024 5.083,-2.111 7.194,-3.084 2.094,-1.025 3.915,-1.909 5.374,-2.722 1.462,-0.805 2.582,-1.489 3.356,-1.932 0.769,-0.449 1.179,-0.688 1.179,-0.688 l -0.13,-0.271 c 0,0 -1.721,0.779 -4.732,2.142 -1.507,0.68 -3.387,1.386 -5.516,2.26 -1.063,0.443 -2.232,0.814 -3.443,1.26 -1.221,0.421 -2.484,0.922 -3.844,1.32 -1.352,0.423 -2.76,0.864 -4.217,1.32 -1.474,0.401 -2.997,0.815 -4.563,1.241 -3.146,0.796 -6.481,1.57 -9.963,2.214 -3.477,0.664 -7.096,1.211 -10.786,1.656 -1.842,0.246 -3.712,0.376 -5.582,0.572 -1.874,0.155 -3.759,0.263 -5.643,0.386 -3.771,0.178 -7.546,0.304 -11.264,0.252 -3.718,-0.002 -7.374,-0.193 -10.908,-0.408 -3.531,-0.258 -6.942,-0.566 -10.162,-0.979 -3.224,-0.384 -6.256,-0.867 -9.05,-1.341 -5.581,-0.983 -10.186,-2.05 -13.379,-2.902 -3.199,-0.841 -4.984,-1.448 -4.984,-1.448 l -0.096,0.285"
       style="fill:#bfdbc7;fill-opacity:1;fill-rule:nonzero;stroke:none;stroke-width:0.1"
       id="path224" /><path
       d="m 173.91477,426.45502 c 0,0 -0.24543,0.64992 -0.66035,1.88067 -0.40252,1.23321 -1.03806,3.03918 -1.65411,5.38193 -0.64794,2.33772 -1.38571,5.19278 -2.06591,8.50322 -0.70688,3.30676 -1.40656,7.06115 -1.97859,11.18746 -0.28043,2.06346 -0.57587,4.21551 -0.82766,6.44973 -0.24261,2.23507 -0.43873,4.55095 -0.59481,6.93636 -0.3578,4.76851 -0.5583,9.81652 -0.50864,15.04154 0.0629,2.61072 0.0515,5.27116 0.19957,7.9578 0.0592,1.3452 0.11836,2.69846 0.17743,4.05879 0.11794,1.35592 0.23782,2.71864 0.35743,4.08745 0.46851,5.47648 1.21805,11.01521 2.07262,16.53965 0.54819,2.7419 1.04902,5.49181 1.64977,8.21093 0.65283,2.70851 1.19231,5.42934 1.9309,8.08266 0.71118,2.65981 1.38439,5.30627 2.26845,7.85855 0.84415,2.56337 1.61199,5.11321 2.55246,7.5616 1.70962,4.95269 3.75222,9.59719 5.74159,13.95612 1.04712,2.15973 2.00786,4.28199 3.03914,6.28448 1.08804,1.97312 2.13853,3.88044 3.14711,5.71141 0.4911,0.91865 1.0021,1.80356 1.53254,2.65072 0.51915,0.85363 1.01993,1.68944 1.53343,2.49036 1.03542,1.59675 1.92902,3.15599 2.92333,4.53116 1.93124,2.78276 3.60101,5.20347 5.10372,7.10805 1.48512,1.91688 2.72848,3.36438 3.5392,4.37166 0.82089,0.99995 1.25922,1.53319 1.25922,1.53319 l 0.41413,-0.28015 c 0,0 -1.47486,-2.30625 -4.05556,-6.34347 -1.29486,-2.01452 -2.68289,-4.57465 -4.37461,-7.44818 -0.8649,-1.42781 -1.61879,-3.03797 -2.5063,-4.68467 -0.43242,-0.82932 -0.87666,-1.68033 -1.33146,-2.55117 -0.46807,-0.86412 -0.91249,-1.76448 -1.33712,-2.69962 -0.87181,-1.85733 -1.78169,-3.7925 -2.7223,-5.79534 -0.86238,-2.03794 -1.75364,-4.14481 -2.67041,-6.30993 -1.75197,-4.36272 -3.49838,-9.00838 -5.06439,-13.89356 -1.60272,-4.87247 -3.04141,-9.97835 -4.33131,-15.20687 -0.69287,-2.60265 -1.18787,-5.27466 -1.79673,-7.93027 -0.55578,-2.66636 -1.01386,-5.36521 -1.5198,-8.05198 -0.88603,-5.3985 -1.69431,-10.81187 -2.21397,-16.17505 -0.13404,-1.33977 -0.26655,-2.67468 -0.39912,-4.00254 -0.0977,-1.33126 -0.19458,-2.65557 -0.29141,-3.97181 -0.2248,-2.63159 -0.29044,-5.23995 -0.42882,-7.80183 -0.16451,-5.12885 -0.23131,-10.09065 -0.10214,-14.79398 0.0827,-4.70451 0.35061,-9.14719 0.64335,-13.24224 0.64021,-8.18793 1.56712,-14.97678 2.38268,-19.69631 0.79756,-4.72635 1.45326,-7.37751 1.45326,-7.37751 l -0.48577,-0.11901"
       style="fill:#bfdbc7;fill-opacity:1;fill-rule:nonzero;stroke:none;stroke-width:0.0999997"
       id="path222-6" /><path
       d="m 153.45689,458.14789 c 0,0 -0.13257,0.45824 -0.38293,1.31641 -0.23162,0.86286 -0.59898,2.12691 -0.94613,3.75834 -0.7387,3.25433 -1.606,7.95521 -2.19744,13.65841 -0.28975,2.85085 -0.56626,5.95 -0.65982,9.23668 -0.14291,3.28687 -0.17965,6.75989 -0.0604,10.3503 0.0836,1.79367 0.12126,3.62239 0.26063,5.46647 0.0603,0.92373 0.12027,1.85253 0.18098,2.7873 0.0975,0.93013 0.19452,1.86533 0.29203,2.80452 0.38538,3.75835 0.94831,7.55774 1.57842,11.34663 0.38315,1.88282 0.7534,3.76727 1.16791,5.63502 0.45482,1.85965 0.84489,3.72546 1.34666,5.54993 0.93894,3.66418 2.09936,7.20662 3.2839,10.6049 1.16073,3.40935 2.52287,6.61785 3.84765,9.63452 0.69704,1.49539 1.34877,2.95922 2.02383,4.35256 0.72268,1.37119 1.42121,2.69504 2.09103,3.96708 1.35227,2.5324 2.7318,4.77813 3.96186,6.75044 1.27952,1.94891 2.38492,3.64468 3.37447,4.99019 0.982,1.34951 1.80106,2.37488 2.33763,3.08722 0.54189,0.70662 0.83042,1.0834 0.83042,1.0834 l 0.25256,-0.16295 c 0,0 -0.98868,-1.60972 -2.71853,-4.42602 -0.86363,-1.40981 -1.79983,-3.18644 -2.93393,-5.18902 -0.57281,-0.99905 -1.08749,-2.11229 -1.68185,-3.2578 -0.5708,-1.15856 -1.22624,-2.34876 -1.79165,-3.64811 -0.58921,-1.28827 -1.20331,-2.62985 -1.83843,-4.01816 -0.5827,-1.41207 -1.18443,-2.87113 -1.80346,-4.37134 -1.18426,-3.02133 -2.37039,-6.23293 -3.44599,-9.60668 -1.09481,-3.36627 -2.09136,-6.8881 -2.99561,-10.49316 -0.47506,-1.79661 -0.83856,-3.63554 -1.26753,-5.46619 -0.3888,-1.83977 -0.73235,-3.69635 -1.09065,-5.55004 -0.64952,-3.7189 -1.24794,-7.4483 -1.66267,-11.14347 -0.46431,-3.68889 -0.7333,-7.33998 -0.9632,-10.87304 -0.18687,-3.53548 -0.30908,-6.95817 -0.30316,-10.20455 -0.0234,-3.24671 0.0756,-6.31534 0.19544,-9.14673 0.27532,-5.66021 0.75638,-10.36267 1.20121,-13.63731 0.43317,-3.27921 0.81152,-5.12625 0.81152,-5.12625 l -0.29479,-0.0595"
       style="fill:#bfdbc7;fill-opacity:1;fill-rule:nonzero;stroke:none;stroke-width:0.0999997"
       id="path224-1" /></g></svg>
